<?xml version="1.0" encoding="utf-8" standalone="no"?>
<!DOCTYPE svg PUBLIC "-//W3C//DTD SVG 1.1//EN"
  "http://www.w3.org/Graphics/SVG/1.1/DTD/svg11.dtd">
<!-- Created with matplotlib (http://matplotlib.org/) -->
<svg height="342pt" version="1.1" viewBox="0 0 496 342" width="496pt" xmlns="http://www.w3.org/2000/svg" xmlns:xlink="http://www.w3.org/1999/xlink">
 <defs>
  <style type="text/css">
*{stroke-linecap:butt;stroke-linejoin:round;stroke-miterlimit:100000;}
  </style>
 </defs>
 <g id="figure_1">
  <g id="patch_1">
   <path d="M 0 342.817187 
L 496.428125 342.817187 
L 496.428125 0 
L 0 0 
z
" style="fill:#ffffff;"/>
  </g>
  <g id="axes_1">
   <g id="patch_2">
    <path d="M 36.465625 318.939062 
L 482.865625 318.939062 
L 482.865625 12.039062 
L 36.465625 12.039062 
z
" style="fill:#eaeaf2;"/>
   </g>
   <g id="matplotlib.axis_1">
    <g id="xtick_1">
     <g id="line2d_1">
      <path clip-path="url(#p991e0b695d)" d="M 36.465625 318.939062 
L 36.465625 12.039062 
" style="fill:none;stroke:#ffffff;stroke-linecap:round;"/>
     </g>
     <g id="line2d_2"/>
     <g id="line2d_3"/>
     <g id="text_1">
      <!-- −50 -->
      <defs>
       <path d="M 10.796875 72.90625 
L 49.515625 72.90625 
L 49.515625 64.59375 
L 19.828125 64.59375 
L 19.828125 46.734375 
Q 21.96875 47.46875 24.109375 47.828125 
Q 26.265625 48.1875 28.421875 48.1875 
Q 40.625 48.1875 47.75 41.5 
Q 54.890625 34.8125 54.890625 23.390625 
Q 54.890625 11.625 47.5625 5.09375 
Q 40.234375 -1.421875 26.90625 -1.421875 
Q 22.3125 -1.421875 17.546875 -0.640625 
Q 12.796875 0.140625 7.71875 1.703125 
L 7.71875 11.625 
Q 12.109375 9.234375 16.796875 8.0625 
Q 21.484375 6.890625 26.703125 6.890625 
Q 35.15625 6.890625 40.078125 11.328125 
Q 45.015625 15.765625 45.015625 23.390625 
Q 45.015625 31 40.078125 35.4375 
Q 35.15625 39.890625 26.703125 39.890625 
Q 22.75 39.890625 18.8125 39.015625 
Q 14.890625 38.140625 10.796875 36.28125 
z
" id="BitstreamVeraSans-Roman-35"/>
       <path d="M 10.59375 35.5 
L 73.1875 35.5 
L 73.1875 27.203125 
L 10.59375 27.203125 
z
" id="BitstreamVeraSans-Roman-2212"/>
       <path d="M 31.78125 66.40625 
Q 24.171875 66.40625 20.328125 58.90625 
Q 16.5 51.421875 16.5 36.375 
Q 16.5 21.390625 20.328125 13.890625 
Q 24.171875 6.390625 31.78125 6.390625 
Q 39.453125 6.390625 43.28125 13.890625 
Q 47.125 21.390625 47.125 36.375 
Q 47.125 51.421875 43.28125 58.90625 
Q 39.453125 66.40625 31.78125 66.40625 
M 31.78125 74.21875 
Q 44.046875 74.21875 50.515625 64.515625 
Q 56.984375 54.828125 56.984375 36.375 
Q 56.984375 17.96875 50.515625 8.265625 
Q 44.046875 -1.421875 31.78125 -1.421875 
Q 19.53125 -1.421875 13.0625 8.265625 
Q 6.59375 17.96875 6.59375 36.375 
Q 6.59375 54.828125 13.0625 64.515625 
Q 19.53125 74.21875 31.78125 74.21875 
" id="BitstreamVeraSans-Roman-30"/>
      </defs>
      <g style="fill:#262626;" transform="translate(25.91328125 333.5375)scale(0.1 -0.1)">
       <use xlink:href="#BitstreamVeraSans-Roman-2212"/>
       <use x="83.7890625" xlink:href="#BitstreamVeraSans-Roman-35"/>
       <use x="147.412109375" xlink:href="#BitstreamVeraSans-Roman-30"/>
      </g>
     </g>
    </g>
    <g id="xtick_2">
     <g id="line2d_4">
      <path clip-path="url(#p991e0b695d)" d="M 86.065625 318.939062 
L 86.065625 12.039062 
" style="fill:none;stroke:#ffffff;stroke-linecap:round;"/>
     </g>
     <g id="line2d_5"/>
     <g id="line2d_6"/>
     <g id="text_2">
      <!-- −40 -->
      <defs>
       <path d="M 37.796875 64.3125 
L 12.890625 25.390625 
L 37.796875 25.390625 
z
M 35.203125 72.90625 
L 47.609375 72.90625 
L 47.609375 25.390625 
L 58.015625 25.390625 
L 58.015625 17.1875 
L 47.609375 17.1875 
L 47.609375 0 
L 37.796875 0 
L 37.796875 17.1875 
L 4.890625 17.1875 
L 4.890625 26.703125 
z
" id="BitstreamVeraSans-Roman-34"/>
      </defs>
      <g style="fill:#262626;" transform="translate(75.51328125 333.5375)scale(0.1 -0.1)">
       <use xlink:href="#BitstreamVeraSans-Roman-2212"/>
       <use x="83.7890625" xlink:href="#BitstreamVeraSans-Roman-34"/>
       <use x="147.412109375" xlink:href="#BitstreamVeraSans-Roman-30"/>
      </g>
     </g>
    </g>
    <g id="xtick_3">
     <g id="line2d_7">
      <path clip-path="url(#p991e0b695d)" d="M 135.665625 318.939062 
L 135.665625 12.039062 
" style="fill:none;stroke:#ffffff;stroke-linecap:round;"/>
     </g>
     <g id="line2d_8"/>
     <g id="line2d_9"/>
     <g id="text_3">
      <!-- −30 -->
      <defs>
       <path d="M 40.578125 39.3125 
Q 47.65625 37.796875 51.625 33 
Q 55.609375 28.21875 55.609375 21.1875 
Q 55.609375 10.40625 48.1875 4.484375 
Q 40.765625 -1.421875 27.09375 -1.421875 
Q 22.515625 -1.421875 17.65625 -0.515625 
Q 12.796875 0.390625 7.625 2.203125 
L 7.625 11.71875 
Q 11.71875 9.328125 16.59375 8.109375 
Q 21.484375 6.890625 26.8125 6.890625 
Q 36.078125 6.890625 40.9375 10.546875 
Q 45.796875 14.203125 45.796875 21.1875 
Q 45.796875 27.640625 41.28125 31.265625 
Q 36.765625 34.90625 28.71875 34.90625 
L 20.21875 34.90625 
L 20.21875 43.015625 
L 29.109375 43.015625 
Q 36.375 43.015625 40.234375 45.921875 
Q 44.09375 48.828125 44.09375 54.296875 
Q 44.09375 59.90625 40.109375 62.90625 
Q 36.140625 65.921875 28.71875 65.921875 
Q 24.65625 65.921875 20.015625 65.03125 
Q 15.375 64.15625 9.8125 62.3125 
L 9.8125 71.09375 
Q 15.4375 72.65625 20.34375 73.4375 
Q 25.25 74.21875 29.59375 74.21875 
Q 40.828125 74.21875 47.359375 69.109375 
Q 53.90625 64.015625 53.90625 55.328125 
Q 53.90625 49.265625 50.4375 45.09375 
Q 46.96875 40.921875 40.578125 39.3125 
" id="BitstreamVeraSans-Roman-33"/>
      </defs>
      <g style="fill:#262626;" transform="translate(125.11328125 333.5375)scale(0.1 -0.1)">
       <use xlink:href="#BitstreamVeraSans-Roman-2212"/>
       <use x="83.7890625" xlink:href="#BitstreamVeraSans-Roman-33"/>
       <use x="147.412109375" xlink:href="#BitstreamVeraSans-Roman-30"/>
      </g>
     </g>
    </g>
    <g id="xtick_4">
     <g id="line2d_10">
      <path clip-path="url(#p991e0b695d)" d="M 185.265625 318.939062 
L 185.265625 12.039062 
" style="fill:none;stroke:#ffffff;stroke-linecap:round;"/>
     </g>
     <g id="line2d_11"/>
     <g id="line2d_12"/>
     <g id="text_4">
      <!-- −20 -->
      <defs>
       <path d="M 19.1875 8.296875 
L 53.609375 8.296875 
L 53.609375 0 
L 7.328125 0 
L 7.328125 8.296875 
Q 12.9375 14.109375 22.625 23.890625 
Q 32.328125 33.6875 34.8125 36.53125 
Q 39.546875 41.84375 41.421875 45.53125 
Q 43.3125 49.21875 43.3125 52.78125 
Q 43.3125 58.59375 39.234375 62.25 
Q 35.15625 65.921875 28.609375 65.921875 
Q 23.96875 65.921875 18.8125 64.3125 
Q 13.671875 62.703125 7.8125 59.421875 
L 7.8125 69.390625 
Q 13.765625 71.78125 18.9375 73 
Q 24.125 74.21875 28.421875 74.21875 
Q 39.75 74.21875 46.484375 68.546875 
Q 53.21875 62.890625 53.21875 53.421875 
Q 53.21875 48.921875 51.53125 44.890625 
Q 49.859375 40.875 45.40625 35.40625 
Q 44.1875 33.984375 37.640625 27.21875 
Q 31.109375 20.453125 19.1875 8.296875 
" id="BitstreamVeraSans-Roman-32"/>
      </defs>
      <g style="fill:#262626;" transform="translate(174.71328125 333.5375)scale(0.1 -0.1)">
       <use xlink:href="#BitstreamVeraSans-Roman-2212"/>
       <use x="83.7890625" xlink:href="#BitstreamVeraSans-Roman-32"/>
       <use x="147.412109375" xlink:href="#BitstreamVeraSans-Roman-30"/>
      </g>
     </g>
    </g>
    <g id="xtick_5">
     <g id="line2d_13">
      <path clip-path="url(#p991e0b695d)" d="M 234.865625 318.939062 
L 234.865625 12.039062 
" style="fill:none;stroke:#ffffff;stroke-linecap:round;"/>
     </g>
     <g id="line2d_14"/>
     <g id="line2d_15"/>
     <g id="text_5">
      <!-- −10 -->
      <defs>
       <path d="M 12.40625 8.296875 
L 28.515625 8.296875 
L 28.515625 63.921875 
L 10.984375 60.40625 
L 10.984375 69.390625 
L 28.421875 72.90625 
L 38.28125 72.90625 
L 38.28125 8.296875 
L 54.390625 8.296875 
L 54.390625 0 
L 12.40625 0 
z
" id="BitstreamVeraSans-Roman-31"/>
      </defs>
      <g style="fill:#262626;" transform="translate(224.31328125 333.5375)scale(0.1 -0.1)">
       <use xlink:href="#BitstreamVeraSans-Roman-2212"/>
       <use x="83.7890625" xlink:href="#BitstreamVeraSans-Roman-31"/>
       <use x="147.412109375" xlink:href="#BitstreamVeraSans-Roman-30"/>
      </g>
     </g>
    </g>
    <g id="xtick_6">
     <g id="line2d_16">
      <path clip-path="url(#p991e0b695d)" d="M 284.465625 318.939062 
L 284.465625 12.039062 
" style="fill:none;stroke:#ffffff;stroke-linecap:round;"/>
     </g>
     <g id="line2d_17"/>
     <g id="line2d_18"/>
     <g id="text_6">
      <!-- 0 -->
      <g style="fill:#262626;" transform="translate(281.284375 333.5375)scale(0.1 -0.1)">
       <use xlink:href="#BitstreamVeraSans-Roman-30"/>
      </g>
     </g>
    </g>
    <g id="xtick_7">
     <g id="line2d_19">
      <path clip-path="url(#p991e0b695d)" d="M 334.065625 318.939062 
L 334.065625 12.039062 
" style="fill:none;stroke:#ffffff;stroke-linecap:round;"/>
     </g>
     <g id="line2d_20"/>
     <g id="line2d_21"/>
     <g id="text_7">
      <!-- 10 -->
      <g style="fill:#262626;" transform="translate(327.703125 333.5375)scale(0.1 -0.1)">
       <use xlink:href="#BitstreamVeraSans-Roman-31"/>
       <use x="63.623046875" xlink:href="#BitstreamVeraSans-Roman-30"/>
      </g>
     </g>
    </g>
    <g id="xtick_8">
     <g id="line2d_22">
      <path clip-path="url(#p991e0b695d)" d="M 383.665625 318.939062 
L 383.665625 12.039062 
" style="fill:none;stroke:#ffffff;stroke-linecap:round;"/>
     </g>
     <g id="line2d_23"/>
     <g id="line2d_24"/>
     <g id="text_8">
      <!-- 20 -->
      <g style="fill:#262626;" transform="translate(377.303125 333.5375)scale(0.1 -0.1)">
       <use xlink:href="#BitstreamVeraSans-Roman-32"/>
       <use x="63.623046875" xlink:href="#BitstreamVeraSans-Roman-30"/>
      </g>
     </g>
    </g>
    <g id="xtick_9">
     <g id="line2d_25">
      <path clip-path="url(#p991e0b695d)" d="M 433.265625 318.939062 
L 433.265625 12.039062 
" style="fill:none;stroke:#ffffff;stroke-linecap:round;"/>
     </g>
     <g id="line2d_26"/>
     <g id="line2d_27"/>
     <g id="text_9">
      <!-- 30 -->
      <g style="fill:#262626;" transform="translate(426.903125 333.5375)scale(0.1 -0.1)">
       <use xlink:href="#BitstreamVeraSans-Roman-33"/>
       <use x="63.623046875" xlink:href="#BitstreamVeraSans-Roman-30"/>
      </g>
     </g>
    </g>
    <g id="xtick_10">
     <g id="line2d_28">
      <path clip-path="url(#p991e0b695d)" d="M 482.865625 318.939062 
L 482.865625 12.039062 
" style="fill:none;stroke:#ffffff;stroke-linecap:round;"/>
     </g>
     <g id="line2d_29"/>
     <g id="line2d_30"/>
     <g id="text_10">
      <!-- 40 -->
      <g style="fill:#262626;" transform="translate(476.503125 333.5375)scale(0.1 -0.1)">
       <use xlink:href="#BitstreamVeraSans-Roman-34"/>
       <use x="63.623046875" xlink:href="#BitstreamVeraSans-Roman-30"/>
      </g>
     </g>
    </g>
   </g>
   <g id="matplotlib.axis_2">
    <g id="ytick_1">
     <g id="line2d_31">
      <path clip-path="url(#p991e0b695d)" d="M 36.465625 318.939062 
L 482.865625 318.939062 
" style="fill:none;stroke:#ffffff;stroke-linecap:round;"/>
     </g>
     <g id="line2d_32"/>
     <g id="line2d_33"/>
     <g id="text_11">
      <!-- 0.00 -->
      <defs>
       <path d="M 10.6875 12.40625 
L 21 12.40625 
L 21 0 
L 10.6875 0 
z
" id="BitstreamVeraSans-Roman-2e"/>
      </defs>
      <g style="fill:#262626;" transform="translate(7.2 321.6984375)scale(0.1 -0.1)">
       <use xlink:href="#BitstreamVeraSans-Roman-30"/>
       <use x="63.623046875" xlink:href="#BitstreamVeraSans-Roman-2e"/>
       <use x="95.41015625" xlink:href="#BitstreamVeraSans-Roman-30"/>
       <use x="159.033203125" xlink:href="#BitstreamVeraSans-Roman-30"/>
      </g>
     </g>
    </g>
    <g id="ytick_2">
     <g id="line2d_34">
      <path clip-path="url(#p991e0b695d)" d="M 36.465625 284.839062 
L 482.865625 284.839062 
" style="fill:none;stroke:#ffffff;stroke-linecap:round;"/>
     </g>
     <g id="line2d_35"/>
     <g id="line2d_36"/>
     <g id="text_12">
      <!-- 0.02 -->
      <g style="fill:#262626;" transform="translate(7.2 287.5984375)scale(0.1 -0.1)">
       <use xlink:href="#BitstreamVeraSans-Roman-30"/>
       <use x="63.623046875" xlink:href="#BitstreamVeraSans-Roman-2e"/>
       <use x="95.41015625" xlink:href="#BitstreamVeraSans-Roman-30"/>
       <use x="159.033203125" xlink:href="#BitstreamVeraSans-Roman-32"/>
      </g>
     </g>
    </g>
    <g id="ytick_3">
     <g id="line2d_37">
      <path clip-path="url(#p991e0b695d)" d="M 36.465625 250.739062 
L 482.865625 250.739062 
" style="fill:none;stroke:#ffffff;stroke-linecap:round;"/>
     </g>
     <g id="line2d_38"/>
     <g id="line2d_39"/>
     <g id="text_13">
      <!-- 0.04 -->
      <g style="fill:#262626;" transform="translate(7.2 253.4984375)scale(0.1 -0.1)">
       <use xlink:href="#BitstreamVeraSans-Roman-30"/>
       <use x="63.623046875" xlink:href="#BitstreamVeraSans-Roman-2e"/>
       <use x="95.41015625" xlink:href="#BitstreamVeraSans-Roman-30"/>
       <use x="159.033203125" xlink:href="#BitstreamVeraSans-Roman-34"/>
      </g>
     </g>
    </g>
    <g id="ytick_4">
     <g id="line2d_40">
      <path clip-path="url(#p991e0b695d)" d="M 36.465625 216.639062 
L 482.865625 216.639062 
" style="fill:none;stroke:#ffffff;stroke-linecap:round;"/>
     </g>
     <g id="line2d_41"/>
     <g id="line2d_42"/>
     <g id="text_14">
      <!-- 0.06 -->
      <defs>
       <path d="M 33.015625 40.375 
Q 26.375 40.375 22.484375 35.828125 
Q 18.609375 31.296875 18.609375 23.390625 
Q 18.609375 15.53125 22.484375 10.953125 
Q 26.375 6.390625 33.015625 6.390625 
Q 39.65625 6.390625 43.53125 10.953125 
Q 47.40625 15.53125 47.40625 23.390625 
Q 47.40625 31.296875 43.53125 35.828125 
Q 39.65625 40.375 33.015625 40.375 
M 52.59375 71.296875 
L 52.59375 62.3125 
Q 48.875 64.0625 45.09375 64.984375 
Q 41.3125 65.921875 37.59375 65.921875 
Q 27.828125 65.921875 22.671875 59.328125 
Q 17.53125 52.734375 16.796875 39.40625 
Q 19.671875 43.65625 24.015625 45.921875 
Q 28.375 48.1875 33.59375 48.1875 
Q 44.578125 48.1875 50.953125 41.515625 
Q 57.328125 34.859375 57.328125 23.390625 
Q 57.328125 12.15625 50.6875 5.359375 
Q 44.046875 -1.421875 33.015625 -1.421875 
Q 20.359375 -1.421875 13.671875 8.265625 
Q 6.984375 17.96875 6.984375 36.375 
Q 6.984375 53.65625 15.1875 63.9375 
Q 23.390625 74.21875 37.203125 74.21875 
Q 40.921875 74.21875 44.703125 73.484375 
Q 48.484375 72.75 52.59375 71.296875 
" id="BitstreamVeraSans-Roman-36"/>
      </defs>
      <g style="fill:#262626;" transform="translate(7.2 219.3984375)scale(0.1 -0.1)">
       <use xlink:href="#BitstreamVeraSans-Roman-30"/>
       <use x="63.623046875" xlink:href="#BitstreamVeraSans-Roman-2e"/>
       <use x="95.41015625" xlink:href="#BitstreamVeraSans-Roman-30"/>
       <use x="159.033203125" xlink:href="#BitstreamVeraSans-Roman-36"/>
      </g>
     </g>
    </g>
    <g id="ytick_5">
     <g id="line2d_43">
      <path clip-path="url(#p991e0b695d)" d="M 36.465625 182.539062 
L 482.865625 182.539062 
" style="fill:none;stroke:#ffffff;stroke-linecap:round;"/>
     </g>
     <g id="line2d_44"/>
     <g id="line2d_45"/>
     <g id="text_15">
      <!-- 0.08 -->
      <defs>
       <path d="M 31.78125 34.625 
Q 24.75 34.625 20.71875 30.859375 
Q 16.703125 27.09375 16.703125 20.515625 
Q 16.703125 13.921875 20.71875 10.15625 
Q 24.75 6.390625 31.78125 6.390625 
Q 38.8125 6.390625 42.859375 10.171875 
Q 46.921875 13.96875 46.921875 20.515625 
Q 46.921875 27.09375 42.890625 30.859375 
Q 38.875 34.625 31.78125 34.625 
M 21.921875 38.8125 
Q 15.578125 40.375 12.03125 44.71875 
Q 8.5 49.078125 8.5 55.328125 
Q 8.5 64.0625 14.71875 69.140625 
Q 20.953125 74.21875 31.78125 74.21875 
Q 42.671875 74.21875 48.875 69.140625 
Q 55.078125 64.0625 55.078125 55.328125 
Q 55.078125 49.078125 51.53125 44.71875 
Q 48 40.375 41.703125 38.8125 
Q 48.828125 37.15625 52.796875 32.3125 
Q 56.78125 27.484375 56.78125 20.515625 
Q 56.78125 9.90625 50.3125 4.234375 
Q 43.84375 -1.421875 31.78125 -1.421875 
Q 19.734375 -1.421875 13.25 4.234375 
Q 6.78125 9.90625 6.78125 20.515625 
Q 6.78125 27.484375 10.78125 32.3125 
Q 14.796875 37.15625 21.921875 38.8125 
M 18.3125 54.390625 
Q 18.3125 48.734375 21.84375 45.5625 
Q 25.390625 42.390625 31.78125 42.390625 
Q 38.140625 42.390625 41.71875 45.5625 
Q 45.3125 48.734375 45.3125 54.390625 
Q 45.3125 60.0625 41.71875 63.234375 
Q 38.140625 66.40625 31.78125 66.40625 
Q 25.390625 66.40625 21.84375 63.234375 
Q 18.3125 60.0625 18.3125 54.390625 
" id="BitstreamVeraSans-Roman-38"/>
      </defs>
      <g style="fill:#262626;" transform="translate(7.2 185.2984375)scale(0.1 -0.1)">
       <use xlink:href="#BitstreamVeraSans-Roman-30"/>
       <use x="63.623046875" xlink:href="#BitstreamVeraSans-Roman-2e"/>
       <use x="95.41015625" xlink:href="#BitstreamVeraSans-Roman-30"/>
       <use x="159.033203125" xlink:href="#BitstreamVeraSans-Roman-38"/>
      </g>
     </g>
    </g>
    <g id="ytick_6">
     <g id="line2d_46">
      <path clip-path="url(#p991e0b695d)" d="M 36.465625 148.439062 
L 482.865625 148.439062 
" style="fill:none;stroke:#ffffff;stroke-linecap:round;"/>
     </g>
     <g id="line2d_47"/>
     <g id="line2d_48"/>
     <g id="text_16">
      <!-- 0.10 -->
      <g style="fill:#262626;" transform="translate(7.2 151.1984375)scale(0.1 -0.1)">
       <use xlink:href="#BitstreamVeraSans-Roman-30"/>
       <use x="63.623046875" xlink:href="#BitstreamVeraSans-Roman-2e"/>
       <use x="95.41015625" xlink:href="#BitstreamVeraSans-Roman-31"/>
       <use x="159.033203125" xlink:href="#BitstreamVeraSans-Roman-30"/>
      </g>
     </g>
    </g>
    <g id="ytick_7">
     <g id="line2d_49">
      <path clip-path="url(#p991e0b695d)" d="M 36.465625 114.339062 
L 482.865625 114.339062 
" style="fill:none;stroke:#ffffff;stroke-linecap:round;"/>
     </g>
     <g id="line2d_50"/>
     <g id="line2d_51"/>
     <g id="text_17">
      <!-- 0.12 -->
      <g style="fill:#262626;" transform="translate(7.2 117.0984375)scale(0.1 -0.1)">
       <use xlink:href="#BitstreamVeraSans-Roman-30"/>
       <use x="63.623046875" xlink:href="#BitstreamVeraSans-Roman-2e"/>
       <use x="95.41015625" xlink:href="#BitstreamVeraSans-Roman-31"/>
       <use x="159.033203125" xlink:href="#BitstreamVeraSans-Roman-32"/>
      </g>
     </g>
    </g>
    <g id="ytick_8">
     <g id="line2d_52">
      <path clip-path="url(#p991e0b695d)" d="M 36.465625 80.239062 
L 482.865625 80.239062 
" style="fill:none;stroke:#ffffff;stroke-linecap:round;"/>
     </g>
     <g id="line2d_53"/>
     <g id="line2d_54"/>
     <g id="text_18">
      <!-- 0.14 -->
      <g style="fill:#262626;" transform="translate(7.2 82.9984375)scale(0.1 -0.1)">
       <use xlink:href="#BitstreamVeraSans-Roman-30"/>
       <use x="63.623046875" xlink:href="#BitstreamVeraSans-Roman-2e"/>
       <use x="95.41015625" xlink:href="#BitstreamVeraSans-Roman-31"/>
       <use x="159.033203125" xlink:href="#BitstreamVeraSans-Roman-34"/>
      </g>
     </g>
    </g>
    <g id="ytick_9">
     <g id="line2d_55">
      <path clip-path="url(#p991e0b695d)" d="M 36.465625 46.139062 
L 482.865625 46.139062 
" style="fill:none;stroke:#ffffff;stroke-linecap:round;"/>
     </g>
     <g id="line2d_56"/>
     <g id="line2d_57"/>
     <g id="text_19">
      <!-- 0.16 -->
      <g style="fill:#262626;" transform="translate(7.2 48.8984375)scale(0.1 -0.1)">
       <use xlink:href="#BitstreamVeraSans-Roman-30"/>
       <use x="63.623046875" xlink:href="#BitstreamVeraSans-Roman-2e"/>
       <use x="95.41015625" xlink:href="#BitstreamVeraSans-Roman-31"/>
       <use x="159.033203125" xlink:href="#BitstreamVeraSans-Roman-36"/>
      </g>
     </g>
    </g>
    <g id="ytick_10">
     <g id="line2d_58">
      <path clip-path="url(#p991e0b695d)" d="M 36.465625 12.039062 
L 482.865625 12.039062 
" style="fill:none;stroke:#ffffff;stroke-linecap:round;"/>
     </g>
     <g id="line2d_59"/>
     <g id="line2d_60"/>
     <g id="text_20">
      <!-- 0.18 -->
      <g style="fill:#262626;" transform="translate(7.2 14.7984375)scale(0.1 -0.1)">
       <use xlink:href="#BitstreamVeraSans-Roman-30"/>
       <use x="63.623046875" xlink:href="#BitstreamVeraSans-Roman-2e"/>
       <use x="95.41015625" xlink:href="#BitstreamVeraSans-Roman-31"/>
       <use x="159.033203125" xlink:href="#BitstreamVeraSans-Roman-38"/>
      </g>
     </g>
    </g>
   </g>
   <g id="patch_3">
    <path clip-path="url(#p991e0b695d)" d="M 53.342752 318.939062 
L 61.263382 318.939062 
L 61.263382 318.69214 
L 53.342752 318.69214 
z
" style="fill:#4c72b0;opacity:0.4;stroke:#1a1a1a;stroke-linejoin:miter;stroke-width:0.3;"/>
   </g>
   <g id="patch_4">
    <path clip-path="url(#p991e0b695d)" d="M 61.263382 318.939062 
L 69.184012 318.939062 
L 69.184012 318.939062 
L 61.263382 318.939062 
z
" style="fill:#4c72b0;opacity:0.4;stroke:#1a1a1a;stroke-linejoin:miter;stroke-width:0.3;"/>
   </g>
   <g id="patch_5">
    <path clip-path="url(#p991e0b695d)" d="M 69.184012 318.939062 
L 77.104641 318.939062 
L 77.104641 318.939062 
L 69.184012 318.939062 
z
" style="fill:#4c72b0;opacity:0.4;stroke:#1a1a1a;stroke-linejoin:miter;stroke-width:0.3;"/>
   </g>
   <g id="patch_6">
    <path clip-path="url(#p991e0b695d)" d="M 77.104641 318.939062 
L 85.025271 318.939062 
L 85.025271 318.939062 
L 77.104641 318.939062 
z
" style="fill:#4c72b0;opacity:0.4;stroke:#1a1a1a;stroke-linejoin:miter;stroke-width:0.3;"/>
   </g>
   <g id="patch_7">
    <path clip-path="url(#p991e0b695d)" d="M 85.025271 318.939062 
L 92.945901 318.939062 
L 92.945901 318.939062 
L 85.025271 318.939062 
z
" style="fill:#4c72b0;opacity:0.4;stroke:#1a1a1a;stroke-linejoin:miter;stroke-width:0.3;"/>
   </g>
   <g id="patch_8">
    <path clip-path="url(#p991e0b695d)" d="M 92.945901 318.939062 
L 100.866531 318.939062 
L 100.866531 318.939062 
L 92.945901 318.939062 
z
" style="fill:#4c72b0;opacity:0.4;stroke:#1a1a1a;stroke-linejoin:miter;stroke-width:0.3;"/>
   </g>
   <g id="patch_9">
    <path clip-path="url(#p991e0b695d)" d="M 100.866531 318.939062 
L 108.787161 318.939062 
L 108.787161 318.939062 
L 100.866531 318.939062 
z
" style="fill:#4c72b0;opacity:0.4;stroke:#1a1a1a;stroke-linejoin:miter;stroke-width:0.3;"/>
   </g>
   <g id="patch_10">
    <path clip-path="url(#p991e0b695d)" d="M 108.787161 318.939062 
L 116.707791 318.939062 
L 116.707791 318.939062 
L 108.787161 318.939062 
z
" style="fill:#4c72b0;opacity:0.4;stroke:#1a1a1a;stroke-linejoin:miter;stroke-width:0.3;"/>
   </g>
   <g id="patch_11">
    <path clip-path="url(#p991e0b695d)" d="M 116.707791 318.939062 
L 124.628421 318.939062 
L 124.628421 318.939062 
L 116.707791 318.939062 
z
" style="fill:#4c72b0;opacity:0.4;stroke:#1a1a1a;stroke-linejoin:miter;stroke-width:0.3;"/>
   </g>
   <g id="patch_12">
    <path clip-path="url(#p991e0b695d)" d="M 124.628421 318.939062 
L 132.549051 318.939062 
L 132.549051 318.939062 
L 124.628421 318.939062 
z
" style="fill:#4c72b0;opacity:0.4;stroke:#1a1a1a;stroke-linejoin:miter;stroke-width:0.3;"/>
   </g>
   <g id="patch_13">
    <path clip-path="url(#p991e0b695d)" d="M 132.549051 318.939062 
L 140.469681 318.939062 
L 140.469681 318.939062 
L 132.549051 318.939062 
z
" style="fill:#4c72b0;opacity:0.4;stroke:#1a1a1a;stroke-linejoin:miter;stroke-width:0.3;"/>
   </g>
   <g id="patch_14">
    <path clip-path="url(#p991e0b695d)" d="M 140.469681 318.939062 
L 148.390311 318.939062 
L 148.390311 318.939062 
L 140.469681 318.939062 
z
" style="fill:#4c72b0;opacity:0.4;stroke:#1a1a1a;stroke-linejoin:miter;stroke-width:0.3;"/>
   </g>
   <g id="patch_15">
    <path clip-path="url(#p991e0b695d)" d="M 148.390311 318.939062 
L 156.310941 318.939062 
L 156.310941 318.939062 
L 148.390311 318.939062 
z
" style="fill:#4c72b0;opacity:0.4;stroke:#1a1a1a;stroke-linejoin:miter;stroke-width:0.3;"/>
   </g>
   <g id="patch_16">
    <path clip-path="url(#p991e0b695d)" d="M 156.310941 318.939062 
L 164.231571 318.939062 
L 164.231571 318.939062 
L 156.310941 318.939062 
z
" style="fill:#4c72b0;opacity:0.4;stroke:#1a1a1a;stroke-linejoin:miter;stroke-width:0.3;"/>
   </g>
   <g id="patch_17">
    <path clip-path="url(#p991e0b695d)" d="M 164.231571 318.939062 
L 172.152201 318.939062 
L 172.152201 318.198295 
L 164.231571 318.198295 
z
" style="fill:#4c72b0;opacity:0.4;stroke:#1a1a1a;stroke-linejoin:miter;stroke-width:0.3;"/>
   </g>
   <g id="patch_18">
    <path clip-path="url(#p991e0b695d)" d="M 172.152201 318.939062 
L 180.072831 318.939062 
L 180.072831 318.939062 
L 172.152201 318.939062 
z
" style="fill:#4c72b0;opacity:0.4;stroke:#1a1a1a;stroke-linejoin:miter;stroke-width:0.3;"/>
   </g>
   <g id="patch_19">
    <path clip-path="url(#p991e0b695d)" d="M 180.072831 318.939062 
L 187.993461 318.939062 
L 187.993461 318.939062 
L 180.072831 318.939062 
z
" style="fill:#4c72b0;opacity:0.4;stroke:#1a1a1a;stroke-linejoin:miter;stroke-width:0.3;"/>
   </g>
   <g id="patch_20">
    <path clip-path="url(#p991e0b695d)" d="M 187.993461 318.939062 
L 195.914091 318.939062 
L 195.914091 318.445218 
L 187.993461 318.445218 
z
" style="fill:#4c72b0;opacity:0.4;stroke:#1a1a1a;stroke-linejoin:miter;stroke-width:0.3;"/>
   </g>
   <g id="patch_21">
    <path clip-path="url(#p991e0b695d)" d="M 195.914091 318.939062 
L 203.834721 318.939062 
L 203.834721 318.939062 
L 195.914091 318.939062 
z
" style="fill:#4c72b0;opacity:0.4;stroke:#1a1a1a;stroke-linejoin:miter;stroke-width:0.3;"/>
   </g>
   <g id="patch_22">
    <path clip-path="url(#p991e0b695d)" d="M 203.834721 318.939062 
L 211.755351 318.939062 
L 211.755351 318.198295 
L 203.834721 318.198295 
z
" style="fill:#4c72b0;opacity:0.4;stroke:#1a1a1a;stroke-linejoin:miter;stroke-width:0.3;"/>
   </g>
   <g id="patch_23">
    <path clip-path="url(#p991e0b695d)" d="M 211.755351 318.939062 
L 219.67598 318.939062 
L 219.67598 316.963683 
L 211.755351 316.963683 
z
" style="fill:#4c72b0;opacity:0.4;stroke:#1a1a1a;stroke-linejoin:miter;stroke-width:0.3;"/>
   </g>
   <g id="patch_24">
    <path clip-path="url(#p991e0b695d)" d="M 219.67598 318.939062 
L 227.59661 318.939062 
L 227.59661 315.72907 
L 219.67598 315.72907 
z
" style="fill:#4c72b0;opacity:0.4;stroke:#1a1a1a;stroke-linejoin:miter;stroke-width:0.3;"/>
   </g>
   <g id="patch_25">
    <path clip-path="url(#p991e0b695d)" d="M 227.59661 318.939062 
L 235.51724 318.939062 
L 235.51724 315.975993 
L 227.59661 315.975993 
z
" style="fill:#4c72b0;opacity:0.4;stroke:#1a1a1a;stroke-linejoin:miter;stroke-width:0.3;"/>
   </g>
   <g id="patch_26">
    <path clip-path="url(#p991e0b695d)" d="M 235.51724 318.939062 
L 243.43787 318.939062 
L 243.43787 312.025233 
L 235.51724 312.025233 
z
" style="fill:#4c72b0;opacity:0.4;stroke:#1a1a1a;stroke-linejoin:miter;stroke-width:0.3;"/>
   </g>
   <g id="patch_27">
    <path clip-path="url(#p991e0b695d)" d="M 243.43787 318.939062 
L 251.3585 318.939062 
L 251.3585 303.136023 
L 243.43787 303.136023 
z
" style="fill:#4c72b0;opacity:0.4;stroke:#1a1a1a;stroke-linejoin:miter;stroke-width:0.3;"/>
   </g>
   <g id="patch_28">
    <path clip-path="url(#p991e0b695d)" d="M 251.3585 318.939062 
L 259.27913 318.939062 
L 259.27913 298.197573 
L 251.3585 298.197573 
z
" style="fill:#4c72b0;opacity:0.4;stroke:#1a1a1a;stroke-linejoin:miter;stroke-width:0.3;"/>
   </g>
   <g id="patch_29">
    <path clip-path="url(#p991e0b695d)" d="M 259.27913 318.939062 
L 267.19976 318.939062 
L 267.19976 262.640734 
L 259.27913 262.640734 
z
" style="fill:#4c72b0;opacity:0.4;stroke:#1a1a1a;stroke-linejoin:miter;stroke-width:0.3;"/>
   </g>
   <g id="patch_30">
    <path clip-path="url(#p991e0b695d)" d="M 267.19976 318.939062 
L 275.12039 318.939062 
L 275.12039 207.577019 
L 267.19976 207.577019 
z
" style="fill:#4c72b0;opacity:0.4;stroke:#1a1a1a;stroke-linejoin:miter;stroke-width:0.3;"/>
   </g>
   <g id="patch_31">
    <path clip-path="url(#p991e0b695d)" d="M 275.12039 318.939062 
L 283.04102 318.939062 
L 283.04102 61.398903 
L 275.12039 61.398903 
z
" style="fill:#4c72b0;opacity:0.4;stroke:#1a1a1a;stroke-linejoin:miter;stroke-width:0.3;"/>
   </g>
   <g id="patch_32">
    <path clip-path="url(#p991e0b695d)" d="M 283.04102 318.939062 
L 290.96165 318.939062 
L 290.96165 16.952855 
L 283.04102 16.952855 
z
" style="fill:#4c72b0;opacity:0.4;stroke:#1a1a1a;stroke-linejoin:miter;stroke-width:0.3;"/>
   </g>
   <g id="patch_33">
    <path clip-path="url(#p991e0b695d)" d="M 290.96165 318.939062 
L 298.88228 318.939062 
L 298.88228 169.550955 
L 290.96165 169.550955 
z
" style="fill:#4c72b0;opacity:0.4;stroke:#1a1a1a;stroke-linejoin:miter;stroke-width:0.3;"/>
   </g>
   <g id="patch_34">
    <path clip-path="url(#p991e0b695d)" d="M 298.88228 318.939062 
L 306.80291 318.939062 
L 306.80291 254.24537 
L 298.88228 254.24537 
z
" style="fill:#4c72b0;opacity:0.4;stroke:#1a1a1a;stroke-linejoin:miter;stroke-width:0.3;"/>
   </g>
   <g id="patch_35">
    <path clip-path="url(#p991e0b695d)" d="M 306.80291 318.939062 
L 314.72354 318.939062 
L 314.72354 291.777588 
L 306.80291 291.777588 
z
" style="fill:#4c72b0;opacity:0.4;stroke:#1a1a1a;stroke-linejoin:miter;stroke-width:0.3;"/>
   </g>
   <g id="patch_36">
    <path clip-path="url(#p991e0b695d)" d="M 314.72354 318.939062 
L 322.64417 318.939062 
L 322.64417 305.605248 
L 314.72354 305.605248 
z
" style="fill:#4c72b0;opacity:0.4;stroke:#1a1a1a;stroke-linejoin:miter;stroke-width:0.3;"/>
   </g>
   <g id="patch_37">
    <path clip-path="url(#p991e0b695d)" d="M 322.64417 318.939062 
L 330.5648 318.939062 
L 330.5648 310.049853 
L 322.64417 310.049853 
z
" style="fill:#4c72b0;opacity:0.4;stroke:#1a1a1a;stroke-linejoin:miter;stroke-width:0.3;"/>
   </g>
   <g id="patch_38">
    <path clip-path="url(#p991e0b695d)" d="M 330.5648 318.939062 
L 338.48543 318.939062 
L 338.48543 312.025233 
L 330.5648 312.025233 
z
" style="fill:#4c72b0;opacity:0.4;stroke:#1a1a1a;stroke-linejoin:miter;stroke-width:0.3;"/>
   </g>
   <g id="patch_39">
    <path clip-path="url(#p991e0b695d)" d="M 338.48543 318.939062 
L 346.40606 318.939062 
L 346.40606 314.000613 
L 338.48543 314.000613 
z
" style="fill:#4c72b0;opacity:0.4;stroke:#1a1a1a;stroke-linejoin:miter;stroke-width:0.3;"/>
   </g>
   <g id="patch_40">
    <path clip-path="url(#p991e0b695d)" d="M 346.40606 318.939062 
L 354.32669 318.939062 
L 354.32669 317.70445 
L 346.40606 317.70445 
z
" style="fill:#4c72b0;opacity:0.4;stroke:#1a1a1a;stroke-linejoin:miter;stroke-width:0.3;"/>
   </g>
   <g id="patch_41">
    <path clip-path="url(#p991e0b695d)" d="M 354.32669 318.939062 
L 362.247319 318.939062 
L 362.247319 317.210605 
L 354.32669 317.210605 
z
" style="fill:#4c72b0;opacity:0.4;stroke:#1a1a1a;stroke-linejoin:miter;stroke-width:0.3;"/>
   </g>
   <g id="patch_42">
    <path clip-path="url(#p991e0b695d)" d="M 362.247319 318.939062 
L 370.167949 318.939062 
L 370.167949 316.963683 
L 362.247319 316.963683 
z
" style="fill:#4c72b0;opacity:0.4;stroke:#1a1a1a;stroke-linejoin:miter;stroke-width:0.3;"/>
   </g>
   <g id="patch_43">
    <path clip-path="url(#p991e0b695d)" d="M 370.167949 318.939062 
L 378.088579 318.939062 
L 378.088579 316.963683 
L 370.167949 316.963683 
z
" style="fill:#4c72b0;opacity:0.4;stroke:#1a1a1a;stroke-linejoin:miter;stroke-width:0.3;"/>
   </g>
   <g id="patch_44">
    <path clip-path="url(#p991e0b695d)" d="M 378.088579 318.939062 
L 386.009209 318.939062 
L 386.009209 317.951373 
L 378.088579 317.951373 
z
" style="fill:#4c72b0;opacity:0.4;stroke:#1a1a1a;stroke-linejoin:miter;stroke-width:0.3;"/>
   </g>
   <g id="patch_45">
    <path clip-path="url(#p991e0b695d)" d="M 386.009209 318.939062 
L 393.929839 318.939062 
L 393.929839 318.198295 
L 386.009209 318.198295 
z
" style="fill:#4c72b0;opacity:0.4;stroke:#1a1a1a;stroke-linejoin:miter;stroke-width:0.3;"/>
   </g>
   <g id="patch_46">
    <path clip-path="url(#p991e0b695d)" d="M 393.929839 318.939062 
L 401.850469 318.939062 
L 401.850469 318.198295 
L 393.929839 318.198295 
z
" style="fill:#4c72b0;opacity:0.4;stroke:#1a1a1a;stroke-linejoin:miter;stroke-width:0.3;"/>
   </g>
   <g id="patch_47">
    <path clip-path="url(#p991e0b695d)" d="M 401.850469 318.939062 
L 409.771099 318.939062 
L 409.771099 318.445218 
L 401.850469 318.445218 
z
" style="fill:#4c72b0;opacity:0.4;stroke:#1a1a1a;stroke-linejoin:miter;stroke-width:0.3;"/>
   </g>
   <g id="patch_48">
    <path clip-path="url(#p991e0b695d)" d="M 409.771099 318.939062 
L 417.691729 318.939062 
L 417.691729 318.445218 
L 409.771099 318.445218 
z
" style="fill:#4c72b0;opacity:0.4;stroke:#1a1a1a;stroke-linejoin:miter;stroke-width:0.3;"/>
   </g>
   <g id="patch_49">
    <path clip-path="url(#p991e0b695d)" d="M 417.691729 318.939062 
L 425.612359 318.939062 
L 425.612359 318.69214 
L 417.691729 318.69214 
z
" style="fill:#4c72b0;opacity:0.4;stroke:#1a1a1a;stroke-linejoin:miter;stroke-width:0.3;"/>
   </g>
   <g id="patch_50">
    <path clip-path="url(#p991e0b695d)" d="M 425.612359 318.939062 
L 433.532989 318.939062 
L 433.532989 318.445218 
L 425.612359 318.445218 
z
" style="fill:#4c72b0;opacity:0.4;stroke:#1a1a1a;stroke-linejoin:miter;stroke-width:0.3;"/>
   </g>
   <g id="patch_51">
    <path clip-path="url(#p991e0b695d)" d="M 433.532989 318.939062 
L 441.453619 318.939062 
L 441.453619 318.939062 
L 433.532989 318.939062 
z
" style="fill:#4c72b0;opacity:0.4;stroke:#1a1a1a;stroke-linejoin:miter;stroke-width:0.3;"/>
   </g>
   <g id="patch_52">
    <path clip-path="url(#p991e0b695d)" d="M 441.453619 318.939062 
L 449.374249 318.939062 
L 449.374249 318.69214 
L 441.453619 318.69214 
z
" style="fill:#4c72b0;opacity:0.4;stroke:#1a1a1a;stroke-linejoin:miter;stroke-width:0.3;"/>
   </g>
   <g id="line2d_61">
    <path clip-path="url(#p991e0b695d)" d="M 42.53172 318.936655 
L 46.750443 318.898425 
L 50.969166 318.764781 
L 55.187889 318.749165 
L 59.406612 318.886492 
L 63.625335 318.935365 
L 67.844057 318.938996 
L 72.06278 318.939062 
L 76.281503 318.939062 
L 80.500226 318.939062 
L 84.718949 318.939062 
L 88.937672 318.939062 
L 93.156394 318.939062 
L 97.375117 318.939062 
L 101.59384 318.939062 
L 105.812563 318.939062 
L 110.031286 318.939062 
L 114.250008 318.939062 
L 118.468731 318.939062 
L 122.687454 318.939062 
L 126.906177 318.939062 
L 131.1249 318.939062 
L 135.343623 318.939062 
L 139.562345 318.939062 
L 143.781068 318.939062 
L 147.999791 318.939061 
L 152.218514 318.938813 
L 156.437237 318.92942 
L 160.65596 318.837149 
L 164.874682 318.591501 
L 169.093405 318.430567 
L 173.312128 318.601627 
L 177.530851 318.859257 
L 181.749574 318.93196 
L 185.968296 318.903849 
L 190.187019 318.713659 
L 194.405742 318.520448 
L 198.624465 318.625026 
L 202.843188 318.508119 
L 207.061911 318.303024 
L 211.280633 317.923312 
L 215.499356 317.311051 
L 219.718079 316.816315 
L 223.936802 315.766985 
L 228.155525 315.112388 
L 232.374248 314.682809 
L 236.59297 313.211485 
L 240.811693 311.3909 
L 245.030416 307.462728 
L 249.249139 303.154828 
L 253.467862 298.724732 
L 257.686584 286.172723 
L 261.905307 267.209916 
L 266.12403 245.691181 
L 270.342753 209.548864 
L 274.561476 148.286905 
L 278.780199 72.9076 
L 282.998921 22.555592 
L 287.217644 35.710913 
L 291.436367 101.834722 
L 295.65509 175.422133 
L 299.873813 228.109143 
L 304.092536 260.409767 
L 308.311258 281.346671 
L 312.529981 294.076416 
L 316.748704 302.180819 
L 320.967427 307.902658 
L 325.18615 309.721306 
L 329.404873 309.879456 
L 333.623595 311.597308 
L 337.842318 313.42327 
L 342.061041 314.26572 
L 346.279764 315.685458 
L 350.498487 317.150187 
L 354.717209 317.530468 
L 358.935932 317.328032 
L 363.154655 317.117079 
L 367.373378 316.658152 
L 371.592101 316.541601 
L 375.810824 317.335915 
L 380.029546 317.898834 
L 384.248269 318.17173 
L 388.466992 318.098452 
L 392.685715 318.017913 
L 396.904438 318.200295 
L 401.123161 318.662336 
L 405.341883 318.637106 
L 409.560606 318.427379 
L 413.779329 318.370931 
L 417.998052 318.330736 
L 422.216775 318.574732 
L 426.435497 318.636018 
L 430.65422 318.620395 
L 434.872943 318.742472 
L 439.091666 318.892379 
L 443.310389 318.883922 
L 447.529112 318.749125 
L 451.747834 318.764781 
L 455.966557 318.898425 
L 460.18528 318.936655 
" style="fill:none;stroke:#4c72b0;stroke-linecap:round;stroke-width:1.75;"/>
   </g>
   <g id="line2d_62">
    <path clip-path="url(#p991e0b695d)" d="M 42.53047 318.939062 
L 210.432404 318.841457 
L 216.728726 318.610378 
L 220.926275 318.24333 
L 225.123823 317.534931 
L 227.222597 316.979637 
L 229.321371 316.237126 
L 231.420146 315.257375 
L 233.51892 313.981773 
L 235.617694 312.343267 
L 237.716468 310.267137 
L 239.815242 307.672554 
L 241.914016 304.475055 
L 244.012791 300.590019 
L 246.111565 295.937163 
L 248.210339 290.445978 
L 250.309113 284.061935 
L 252.407887 276.753151 
L 254.506662 268.517111 
L 256.605436 259.386927 
L 258.70421 249.436548 
L 262.901758 227.594368 
L 269.198081 193.07589 
L 271.296855 182.180427 
L 273.395629 172.101784 
L 275.494403 163.147699 
L 277.593177 155.60532 
L 279.691952 149.725982 
L 281.790726 145.711324 
L 283.8895 143.701814 
L 285.988274 143.768592 
L 288.087048 145.909284 
L 290.185822 150.048146 
L 292.284597 156.040513 
L 294.383371 163.681192 
L 296.482145 172.716121 
L 298.580919 182.85637 
L 302.778467 205.214546 
L 309.07479 239.483915 
L 311.173564 250.095661 
L 313.272338 259.996626 
L 315.371113 269.071363 
L 317.469887 277.248662 
L 319.568661 284.497862 
L 321.667435 290.823551 
L 323.766209 296.259265 
L 325.864983 300.860752 
L 327.963758 304.699325 
L 330.062532 307.855698 
L 332.161306 310.414605 
L 334.26008 312.46037 
L 336.358854 314.073496 
L 338.457628 315.328249 
L 340.556403 316.291159 
L 342.655177 317.020285 
L 344.753951 317.565107 
L 348.951499 318.259319 
L 353.149048 318.618421 
L 359.44537 318.844063 
L 372.038015 318.933017 
L 460.18653 318.939062 
L 460.18653 318.939062 
" style="fill:none;stroke:#282828;stroke-linecap:round;stroke-width:1.75;"/>
   </g>
   <g id="patch_53">
    <path d="M 36.465625 12.039062 
L 482.865625 12.039062 
" style="fill:none;"/>
   </g>
   <g id="patch_54">
    <path d="M 36.465625 318.939062 
L 36.465625 12.039062 
" style="fill:none;"/>
   </g>
   <g id="patch_55">
    <path d="M 482.865625 318.939062 
L 482.865625 12.039062 
" style="fill:none;"/>
   </g>
   <g id="patch_56">
    <path d="M 36.465625 318.939062 
L 482.865625 318.939062 
" style="fill:none;"/>
   </g>
  </g>
 </g>
 <defs>
  <clipPath id="p991e0b695d">
   <rect height="306.9" width="446.4" x="36.465625" y="12.0390625"/>
  </clipPath>
 </defs>
</svg>