<?xml version="1.0" encoding="utf-8" standalone="no"?>
<!DOCTYPE svg PUBLIC "-//W3C//DTD SVG 1.1//EN"
  "http://www.w3.org/Graphics/SVG/1.1/DTD/svg11.dtd">
<!-- Created with matplotlib (http://matplotlib.org/) -->
<svg height="342pt" version="1.1" viewBox="0 0 515 342" width="515pt" xmlns="http://www.w3.org/2000/svg" xmlns:xlink="http://www.w3.org/1999/xlink">
 <defs>
  <style type="text/css">
*{stroke-linecap:butt;stroke-linejoin:round;stroke-miterlimit:100000;}
  </style>
 </defs>
 <g id="figure_1">
  <g id="patch_1">
   <path d="M 0 342.817188 
L 515.51875 342.817188 
L 515.51875 0 
L 0 0 
z
" style="fill:#ffffff;"/>
  </g>
  <g id="axes_1">
   <g id="patch_2">
    <path d="M 58.7375 318.939063 
L 505.1375 318.939063 
L 505.1375 12.039062 
L 58.7375 12.039062 
z
" style="fill:#eaeaf2;"/>
   </g>
   <g id="matplotlib.axis_1">
    <g id="xtick_1">
     <g id="line2d_1">
      <path clip-path="url(#pd055fe7f7e)" d="M 58.7375 318.939063 
L 58.7375 12.039062 
" style="fill:none;stroke:#ffffff;stroke-linecap:round;"/>
     </g>
     <g id="line2d_2"/>
     <g id="line2d_3"/>
     <g id="text_1">
      <!-- 0 -->
      <defs>
       <path d="M 31.78125 66.40625 
Q 24.171875 66.40625 20.328125 58.90625 
Q 16.5 51.421875 16.5 36.375 
Q 16.5 21.390625 20.328125 13.890625 
Q 24.171875 6.390625 31.78125 6.390625 
Q 39.453125 6.390625 43.28125 13.890625 
Q 47.125 21.390625 47.125 36.375 
Q 47.125 51.421875 43.28125 58.90625 
Q 39.453125 66.40625 31.78125 66.40625 
M 31.78125 74.21875 
Q 44.046875 74.21875 50.515625 64.515625 
Q 56.984375 54.828125 56.984375 36.375 
Q 56.984375 17.96875 50.515625 8.265625 
Q 44.046875 -1.421875 31.78125 -1.421875 
Q 19.53125 -1.421875 13.0625 8.265625 
Q 6.59375 17.96875 6.59375 36.375 
Q 6.59375 54.828125 13.0625 64.515625 
Q 19.53125 74.21875 31.78125 74.21875 
" id="BitstreamVeraSans-Roman-30"/>
      </defs>
      <g style="fill:#262626;" transform="translate(55.55625 333.5375)scale(0.1 -0.1)">
       <use xlink:href="#BitstreamVeraSans-Roman-30"/>
      </g>
     </g>
    </g>
    <g id="xtick_2">
     <g id="line2d_4">
      <path clip-path="url(#pd055fe7f7e)" d="M 148.0175 318.939063 
L 148.0175 12.039062 
" style="fill:none;stroke:#ffffff;stroke-linecap:round;"/>
     </g>
     <g id="line2d_5"/>
     <g id="line2d_6"/>
     <g id="text_2">
      <!-- 1 -->
      <defs>
       <path d="M 12.40625 8.296875 
L 28.515625 8.296875 
L 28.515625 63.921875 
L 10.984375 60.40625 
L 10.984375 69.390625 
L 28.421875 72.90625 
L 38.28125 72.90625 
L 38.28125 8.296875 
L 54.390625 8.296875 
L 54.390625 0 
L 12.40625 0 
z
" id="BitstreamVeraSans-Roman-31"/>
      </defs>
      <g style="fill:#262626;" transform="translate(144.83625 333.5375)scale(0.1 -0.1)">
       <use xlink:href="#BitstreamVeraSans-Roman-31"/>
      </g>
     </g>
    </g>
    <g id="xtick_3">
     <g id="line2d_7">
      <path clip-path="url(#pd055fe7f7e)" d="M 237.2975 318.939063 
L 237.2975 12.039062 
" style="fill:none;stroke:#ffffff;stroke-linecap:round;"/>
     </g>
     <g id="line2d_8"/>
     <g id="line2d_9"/>
     <g id="text_3">
      <!-- 2 -->
      <defs>
       <path d="M 19.1875 8.296875 
L 53.609375 8.296875 
L 53.609375 0 
L 7.328125 0 
L 7.328125 8.296875 
Q 12.9375 14.109375 22.625 23.890625 
Q 32.328125 33.6875 34.8125 36.53125 
Q 39.546875 41.84375 41.421875 45.53125 
Q 43.3125 49.21875 43.3125 52.78125 
Q 43.3125 58.59375 39.234375 62.25 
Q 35.15625 65.921875 28.609375 65.921875 
Q 23.96875 65.921875 18.8125 64.3125 
Q 13.671875 62.703125 7.8125 59.421875 
L 7.8125 69.390625 
Q 13.765625 71.78125 18.9375 73 
Q 24.125 74.21875 28.421875 74.21875 
Q 39.75 74.21875 46.484375 68.546875 
Q 53.21875 62.890625 53.21875 53.421875 
Q 53.21875 48.921875 51.53125 44.890625 
Q 49.859375 40.875 45.40625 35.40625 
Q 44.1875 33.984375 37.640625 27.21875 
Q 31.109375 20.453125 19.1875 8.296875 
" id="BitstreamVeraSans-Roman-32"/>
      </defs>
      <g style="fill:#262626;" transform="translate(234.11625 333.5375)scale(0.1 -0.1)">
       <use xlink:href="#BitstreamVeraSans-Roman-32"/>
      </g>
     </g>
    </g>
    <g id="xtick_4">
     <g id="line2d_10">
      <path clip-path="url(#pd055fe7f7e)" d="M 326.5775 318.939063 
L 326.5775 12.039062 
" style="fill:none;stroke:#ffffff;stroke-linecap:round;"/>
     </g>
     <g id="line2d_11"/>
     <g id="line2d_12"/>
     <g id="text_4">
      <!-- 3 -->
      <defs>
       <path d="M 40.578125 39.3125 
Q 47.65625 37.796875 51.625 33 
Q 55.609375 28.21875 55.609375 21.1875 
Q 55.609375 10.40625 48.1875 4.484375 
Q 40.765625 -1.421875 27.09375 -1.421875 
Q 22.515625 -1.421875 17.65625 -0.515625 
Q 12.796875 0.390625 7.625 2.203125 
L 7.625 11.71875 
Q 11.71875 9.328125 16.59375 8.109375 
Q 21.484375 6.890625 26.8125 6.890625 
Q 36.078125 6.890625 40.9375 10.546875 
Q 45.796875 14.203125 45.796875 21.1875 
Q 45.796875 27.640625 41.28125 31.265625 
Q 36.765625 34.90625 28.71875 34.90625 
L 20.21875 34.90625 
L 20.21875 43.015625 
L 29.109375 43.015625 
Q 36.375 43.015625 40.234375 45.921875 
Q 44.09375 48.828125 44.09375 54.296875 
Q 44.09375 59.90625 40.109375 62.90625 
Q 36.140625 65.921875 28.71875 65.921875 
Q 24.65625 65.921875 20.015625 65.03125 
Q 15.375 64.15625 9.8125 62.3125 
L 9.8125 71.09375 
Q 15.4375 72.65625 20.34375 73.4375 
Q 25.25 74.21875 29.59375 74.21875 
Q 40.828125 74.21875 47.359375 69.109375 
Q 53.90625 64.015625 53.90625 55.328125 
Q 53.90625 49.265625 50.4375 45.09375 
Q 46.96875 40.921875 40.578125 39.3125 
" id="BitstreamVeraSans-Roman-33"/>
      </defs>
      <g style="fill:#262626;" transform="translate(323.39625 333.5375)scale(0.1 -0.1)">
       <use xlink:href="#BitstreamVeraSans-Roman-33"/>
      </g>
     </g>
    </g>
    <g id="xtick_5">
     <g id="line2d_13">
      <path clip-path="url(#pd055fe7f7e)" d="M 415.8575 318.939063 
L 415.8575 12.039062 
" style="fill:none;stroke:#ffffff;stroke-linecap:round;"/>
     </g>
     <g id="line2d_14"/>
     <g id="line2d_15"/>
     <g id="text_5">
      <!-- 4 -->
      <defs>
       <path d="M 37.796875 64.3125 
L 12.890625 25.390625 
L 37.796875 25.390625 
z
M 35.203125 72.90625 
L 47.609375 72.90625 
L 47.609375 25.390625 
L 58.015625 25.390625 
L 58.015625 17.1875 
L 47.609375 17.1875 
L 47.609375 0 
L 37.796875 0 
L 37.796875 17.1875 
L 4.890625 17.1875 
L 4.890625 26.703125 
z
" id="BitstreamVeraSans-Roman-34"/>
      </defs>
      <g style="fill:#262626;" transform="translate(412.67625 333.5375)scale(0.1 -0.1)">
       <use xlink:href="#BitstreamVeraSans-Roman-34"/>
      </g>
     </g>
    </g>
    <g id="xtick_6">
     <g id="line2d_16">
      <path clip-path="url(#pd055fe7f7e)" d="M 505.1375 318.939063 
L 505.1375 12.039062 
" style="fill:none;stroke:#ffffff;stroke-linecap:round;"/>
     </g>
     <g id="line2d_17"/>
     <g id="line2d_18"/>
     <g id="text_6">
      <!-- 5 -->
      <defs>
       <path d="M 10.796875 72.90625 
L 49.515625 72.90625 
L 49.515625 64.59375 
L 19.828125 64.59375 
L 19.828125 46.734375 
Q 21.96875 47.46875 24.109375 47.828125 
Q 26.265625 48.1875 28.421875 48.1875 
Q 40.625 48.1875 47.75 41.5 
Q 54.890625 34.8125 54.890625 23.390625 
Q 54.890625 11.625 47.5625 5.09375 
Q 40.234375 -1.421875 26.90625 -1.421875 
Q 22.3125 -1.421875 17.546875 -0.640625 
Q 12.796875 0.140625 7.71875 1.703125 
L 7.71875 11.625 
Q 12.109375 9.234375 16.796875 8.0625 
Q 21.484375 6.890625 26.703125 6.890625 
Q 35.15625 6.890625 40.078125 11.328125 
Q 45.015625 15.765625 45.015625 23.390625 
Q 45.015625 31 40.078125 35.4375 
Q 35.15625 39.890625 26.703125 39.890625 
Q 22.75 39.890625 18.8125 39.015625 
Q 14.890625 38.140625 10.796875 36.28125 
z
" id="BitstreamVeraSans-Roman-35"/>
      </defs>
      <g style="fill:#262626;" transform="translate(501.95625 333.5375)scale(0.1 -0.1)">
       <use xlink:href="#BitstreamVeraSans-Roman-35"/>
      </g>
     </g>
    </g>
   </g>
   <g id="matplotlib.axis_2">
    <g id="ytick_1">
     <g id="line2d_19">
      <path clip-path="url(#pd055fe7f7e)" d="M 58.7375 318.939063 
L 505.1375 318.939063 
" style="fill:none;stroke:#ffffff;stroke-linecap:round;"/>
     </g>
     <g id="line2d_20"/>
     <g id="line2d_21"/>
     <g id="text_7">
      <!-- 6000000 -->
      <defs>
       <path d="M 33.015625 40.375 
Q 26.375 40.375 22.484375 35.828125 
Q 18.609375 31.296875 18.609375 23.390625 
Q 18.609375 15.53125 22.484375 10.953125 
Q 26.375 6.390625 33.015625 6.390625 
Q 39.65625 6.390625 43.53125 10.953125 
Q 47.40625 15.53125 47.40625 23.390625 
Q 47.40625 31.296875 43.53125 35.828125 
Q 39.65625 40.375 33.015625 40.375 
M 52.59375 71.296875 
L 52.59375 62.3125 
Q 48.875 64.0625 45.09375 64.984375 
Q 41.3125 65.921875 37.59375 65.921875 
Q 27.828125 65.921875 22.671875 59.328125 
Q 17.53125 52.734375 16.796875 39.40625 
Q 19.671875 43.65625 24.015625 45.921875 
Q 28.375 48.1875 33.59375 48.1875 
Q 44.578125 48.1875 50.953125 41.515625 
Q 57.328125 34.859375 57.328125 23.390625 
Q 57.328125 12.15625 50.6875 5.359375 
Q 44.046875 -1.421875 33.015625 -1.421875 
Q 20.359375 -1.421875 13.671875 8.265625 
Q 6.984375 17.96875 6.984375 36.375 
Q 6.984375 53.65625 15.1875 63.9375 
Q 23.390625 74.21875 37.203125 74.21875 
Q 40.921875 74.21875 44.703125 73.484375 
Q 48.484375 72.75 52.59375 71.296875 
" id="BitstreamVeraSans-Roman-36"/>
      </defs>
      <g style="fill:#262626;" transform="translate(7.2 321.6984375)scale(0.1 -0.1)">
       <use xlink:href="#BitstreamVeraSans-Roman-36"/>
       <use x="63.623046875" xlink:href="#BitstreamVeraSans-Roman-30"/>
       <use x="127.24609375" xlink:href="#BitstreamVeraSans-Roman-30"/>
       <use x="190.869140625" xlink:href="#BitstreamVeraSans-Roman-30"/>
       <use x="254.4921875" xlink:href="#BitstreamVeraSans-Roman-30"/>
       <use x="318.115234375" xlink:href="#BitstreamVeraSans-Roman-30"/>
       <use x="381.73828125" xlink:href="#BitstreamVeraSans-Roman-30"/>
      </g>
     </g>
    </g>
    <g id="ytick_2">
     <g id="line2d_22">
      <path clip-path="url(#pd055fe7f7e)" d="M 58.7375 275.096205 
L 505.1375 275.096205 
" style="fill:none;stroke:#ffffff;stroke-linecap:round;"/>
     </g>
     <g id="line2d_23"/>
     <g id="line2d_24"/>
     <g id="text_8">
      <!-- 6200000 -->
      <g style="fill:#262626;" transform="translate(7.2 277.855580357)scale(0.1 -0.1)">
       <use xlink:href="#BitstreamVeraSans-Roman-36"/>
       <use x="63.623046875" xlink:href="#BitstreamVeraSans-Roman-32"/>
       <use x="127.24609375" xlink:href="#BitstreamVeraSans-Roman-30"/>
       <use x="190.869140625" xlink:href="#BitstreamVeraSans-Roman-30"/>
       <use x="254.4921875" xlink:href="#BitstreamVeraSans-Roman-30"/>
       <use x="318.115234375" xlink:href="#BitstreamVeraSans-Roman-30"/>
       <use x="381.73828125" xlink:href="#BitstreamVeraSans-Roman-30"/>
      </g>
     </g>
    </g>
    <g id="ytick_3">
     <g id="line2d_25">
      <path clip-path="url(#pd055fe7f7e)" d="M 58.7375 231.253348 
L 505.1375 231.253348 
" style="fill:none;stroke:#ffffff;stroke-linecap:round;"/>
     </g>
     <g id="line2d_26"/>
     <g id="line2d_27"/>
     <g id="text_9">
      <!-- 6400000 -->
      <g style="fill:#262626;" transform="translate(7.2 234.012723214)scale(0.1 -0.1)">
       <use xlink:href="#BitstreamVeraSans-Roman-36"/>
       <use x="63.623046875" xlink:href="#BitstreamVeraSans-Roman-34"/>
       <use x="127.24609375" xlink:href="#BitstreamVeraSans-Roman-30"/>
       <use x="190.869140625" xlink:href="#BitstreamVeraSans-Roman-30"/>
       <use x="254.4921875" xlink:href="#BitstreamVeraSans-Roman-30"/>
       <use x="318.115234375" xlink:href="#BitstreamVeraSans-Roman-30"/>
       <use x="381.73828125" xlink:href="#BitstreamVeraSans-Roman-30"/>
      </g>
     </g>
    </g>
    <g id="ytick_4">
     <g id="line2d_28">
      <path clip-path="url(#pd055fe7f7e)" d="M 58.7375 187.410491 
L 505.1375 187.410491 
" style="fill:none;stroke:#ffffff;stroke-linecap:round;"/>
     </g>
     <g id="line2d_29"/>
     <g id="line2d_30"/>
     <g id="text_10">
      <!-- 6600000 -->
      <g style="fill:#262626;" transform="translate(7.2 190.169866071)scale(0.1 -0.1)">
       <use xlink:href="#BitstreamVeraSans-Roman-36"/>
       <use x="63.623046875" xlink:href="#BitstreamVeraSans-Roman-36"/>
       <use x="127.24609375" xlink:href="#BitstreamVeraSans-Roman-30"/>
       <use x="190.869140625" xlink:href="#BitstreamVeraSans-Roman-30"/>
       <use x="254.4921875" xlink:href="#BitstreamVeraSans-Roman-30"/>
       <use x="318.115234375" xlink:href="#BitstreamVeraSans-Roman-30"/>
       <use x="381.73828125" xlink:href="#BitstreamVeraSans-Roman-30"/>
      </g>
     </g>
    </g>
    <g id="ytick_5">
     <g id="line2d_31">
      <path clip-path="url(#pd055fe7f7e)" d="M 58.7375 143.567634 
L 505.1375 143.567634 
" style="fill:none;stroke:#ffffff;stroke-linecap:round;"/>
     </g>
     <g id="line2d_32"/>
     <g id="line2d_33"/>
     <g id="text_11">
      <!-- 6800000 -->
      <defs>
       <path d="M 31.78125 34.625 
Q 24.75 34.625 20.71875 30.859375 
Q 16.703125 27.09375 16.703125 20.515625 
Q 16.703125 13.921875 20.71875 10.15625 
Q 24.75 6.390625 31.78125 6.390625 
Q 38.8125 6.390625 42.859375 10.171875 
Q 46.921875 13.96875 46.921875 20.515625 
Q 46.921875 27.09375 42.890625 30.859375 
Q 38.875 34.625 31.78125 34.625 
M 21.921875 38.8125 
Q 15.578125 40.375 12.03125 44.71875 
Q 8.5 49.078125 8.5 55.328125 
Q 8.5 64.0625 14.71875 69.140625 
Q 20.953125 74.21875 31.78125 74.21875 
Q 42.671875 74.21875 48.875 69.140625 
Q 55.078125 64.0625 55.078125 55.328125 
Q 55.078125 49.078125 51.53125 44.71875 
Q 48 40.375 41.703125 38.8125 
Q 48.828125 37.15625 52.796875 32.3125 
Q 56.78125 27.484375 56.78125 20.515625 
Q 56.78125 9.90625 50.3125 4.234375 
Q 43.84375 -1.421875 31.78125 -1.421875 
Q 19.734375 -1.421875 13.25 4.234375 
Q 6.78125 9.90625 6.78125 20.515625 
Q 6.78125 27.484375 10.78125 32.3125 
Q 14.796875 37.15625 21.921875 38.8125 
M 18.3125 54.390625 
Q 18.3125 48.734375 21.84375 45.5625 
Q 25.390625 42.390625 31.78125 42.390625 
Q 38.140625 42.390625 41.71875 45.5625 
Q 45.3125 48.734375 45.3125 54.390625 
Q 45.3125 60.0625 41.71875 63.234375 
Q 38.140625 66.40625 31.78125 66.40625 
Q 25.390625 66.40625 21.84375 63.234375 
Q 18.3125 60.0625 18.3125 54.390625 
" id="BitstreamVeraSans-Roman-38"/>
      </defs>
      <g style="fill:#262626;" transform="translate(7.2 146.327008929)scale(0.1 -0.1)">
       <use xlink:href="#BitstreamVeraSans-Roman-36"/>
       <use x="63.623046875" xlink:href="#BitstreamVeraSans-Roman-38"/>
       <use x="127.24609375" xlink:href="#BitstreamVeraSans-Roman-30"/>
       <use x="190.869140625" xlink:href="#BitstreamVeraSans-Roman-30"/>
       <use x="254.4921875" xlink:href="#BitstreamVeraSans-Roman-30"/>
       <use x="318.115234375" xlink:href="#BitstreamVeraSans-Roman-30"/>
       <use x="381.73828125" xlink:href="#BitstreamVeraSans-Roman-30"/>
      </g>
     </g>
    </g>
    <g id="ytick_6">
     <g id="line2d_34">
      <path clip-path="url(#pd055fe7f7e)" d="M 58.7375 99.724777 
L 505.1375 99.724777 
" style="fill:none;stroke:#ffffff;stroke-linecap:round;"/>
     </g>
     <g id="line2d_35"/>
     <g id="line2d_36"/>
     <g id="text_12">
      <!-- 7000000 -->
      <defs>
       <path d="M 8.203125 72.90625 
L 55.078125 72.90625 
L 55.078125 68.703125 
L 28.609375 0 
L 18.3125 0 
L 43.21875 64.59375 
L 8.203125 64.59375 
z
" id="BitstreamVeraSans-Roman-37"/>
      </defs>
      <g style="fill:#262626;" transform="translate(7.2 102.484151786)scale(0.1 -0.1)">
       <use xlink:href="#BitstreamVeraSans-Roman-37"/>
       <use x="63.623046875" xlink:href="#BitstreamVeraSans-Roman-30"/>
       <use x="127.24609375" xlink:href="#BitstreamVeraSans-Roman-30"/>
       <use x="190.869140625" xlink:href="#BitstreamVeraSans-Roman-30"/>
       <use x="254.4921875" xlink:href="#BitstreamVeraSans-Roman-30"/>
       <use x="318.115234375" xlink:href="#BitstreamVeraSans-Roman-30"/>
       <use x="381.73828125" xlink:href="#BitstreamVeraSans-Roman-30"/>
      </g>
     </g>
    </g>
    <g id="ytick_7">
     <g id="line2d_37">
      <path clip-path="url(#pd055fe7f7e)" d="M 58.7375 55.88192 
L 505.1375 55.88192 
" style="fill:none;stroke:#ffffff;stroke-linecap:round;"/>
     </g>
     <g id="line2d_38"/>
     <g id="line2d_39"/>
     <g id="text_13">
      <!-- 7200000 -->
      <g style="fill:#262626;" transform="translate(7.2 58.6412946429)scale(0.1 -0.1)">
       <use xlink:href="#BitstreamVeraSans-Roman-37"/>
       <use x="63.623046875" xlink:href="#BitstreamVeraSans-Roman-32"/>
       <use x="127.24609375" xlink:href="#BitstreamVeraSans-Roman-30"/>
       <use x="190.869140625" xlink:href="#BitstreamVeraSans-Roman-30"/>
       <use x="254.4921875" xlink:href="#BitstreamVeraSans-Roman-30"/>
       <use x="318.115234375" xlink:href="#BitstreamVeraSans-Roman-30"/>
       <use x="381.73828125" xlink:href="#BitstreamVeraSans-Roman-30"/>
      </g>
     </g>
    </g>
    <g id="ytick_8">
     <g id="line2d_40">
      <path clip-path="url(#pd055fe7f7e)" d="M 58.7375 12.039062 
L 505.1375 12.039062 
" style="fill:none;stroke:#ffffff;stroke-linecap:round;"/>
     </g>
     <g id="line2d_41"/>
     <g id="line2d_42"/>
     <g id="text_14">
      <!-- 7400000 -->
      <g style="fill:#262626;" transform="translate(7.2 14.7984375)scale(0.1 -0.1)">
       <use xlink:href="#BitstreamVeraSans-Roman-37"/>
       <use x="63.623046875" xlink:href="#BitstreamVeraSans-Roman-34"/>
       <use x="127.24609375" xlink:href="#BitstreamVeraSans-Roman-30"/>
       <use x="190.869140625" xlink:href="#BitstreamVeraSans-Roman-30"/>
       <use x="254.4921875" xlink:href="#BitstreamVeraSans-Roman-30"/>
       <use x="318.115234375" xlink:href="#BitstreamVeraSans-Roman-30"/>
       <use x="381.73828125" xlink:href="#BitstreamVeraSans-Roman-30"/>
      </g>
     </g>
    </g>
   </g>
   <g id="PolyCollection_1">
    <defs>
     <path d="M 58.7375 -147.859783 
L 58.7375 -147.859783 
L 148.0175 -145.214913 
L 237.2975 -133.649252 
L 326.5775 -117.320655 
L 415.8575 -79.166738 
L 505.1375 -56.51818 
L 505.1375 -56.51818 
L 505.1375 -56.51818 
L 415.8575 -79.166738 
L 326.5775 -117.320655 
L 237.2975 -133.649252 
L 148.0175 -145.214913 
L 58.7375 -147.859783 
z
" id="m4fc68df752" style="stroke:#1a1a1a;stroke-opacity:0.2;stroke-width:0.3;"/>
    </defs>
    <g clip-path="url(#pd055fe7f7e)">
     <use style="fill:#4c72b0;fill-opacity:0.2;stroke:#1a1a1a;stroke-opacity:0.2;stroke-width:0.3;" x="0.0" xlink:href="#m4fc68df752" y="342.8171875"/>
    </g>
   </g>
   <g id="PolyCollection_2">
    <defs>
     <path d="M 58.7375 -147.859783 
L 58.7375 -147.859783 
L 148.0175 -133.501686 
L 237.2975 -121.465215 
L 326.5775 -127.284926 
L 415.8575 -118.792871 
L 505.1375 -119.543334 
L 505.1375 -119.543334 
L 505.1375 -119.543334 
L 415.8575 -118.792871 
L 326.5775 -127.284926 
L 237.2975 -121.465215 
L 148.0175 -133.501686 
L 58.7375 -147.859783 
z
" id="ma52c1cd7b7" style="stroke:#1a1a1a;stroke-opacity:0.2;stroke-width:0.3;"/>
    </defs>
    <g clip-path="url(#pd055fe7f7e)">
     <use style="fill:#4c72b0;fill-opacity:0.2;stroke:#1a1a1a;stroke-opacity:0.2;stroke-width:0.3;" x="0.0" xlink:href="#ma52c1cd7b7" y="342.8171875"/>
    </g>
   </g>
   <g id="PolyCollection_3">
    <defs>
     <path d="M 58.7375 -147.859783 
L 58.7375 -147.859783 
L 148.0175 -136.818381 
L 237.2975 -116.129386 
L 326.5775 -116.789169 
L 415.8575 -124.985655 
L 505.1375 -130.356342 
L 505.1375 -130.356342 
L 505.1375 -130.356342 
L 415.8575 -124.985655 
L 326.5775 -116.789169 
L 237.2975 -116.129386 
L 148.0175 -136.818381 
L 58.7375 -147.859783 
z
" id="m46a4adb839" style="stroke:#1a1a1a;stroke-opacity:0.2;stroke-width:0.3;"/>
    </defs>
    <g clip-path="url(#pd055fe7f7e)">
     <use style="fill:#4c72b0;fill-opacity:0.2;stroke:#1a1a1a;stroke-opacity:0.2;stroke-width:0.3;" x="0.0" xlink:href="#m46a4adb839" y="342.8171875"/>
    </g>
   </g>
   <g id="PolyCollection_4">
    <defs>
     <path d="M 58.7375 -147.859783 
L 58.7375 -147.859783 
L 148.0175 -142.446388 
L 237.2975 -128.350754 
L 326.5775 -133.602132 
L 415.8575 -123.80035 
L 505.1375 -138.14706 
L 505.1375 -138.14706 
L 505.1375 -138.14706 
L 415.8575 -123.80035 
L 326.5775 -133.602132 
L 237.2975 -128.350754 
L 148.0175 -142.446388 
L 58.7375 -147.859783 
z
" id="m045bd17c79" style="stroke:#1a1a1a;stroke-opacity:0.2;stroke-width:0.3;"/>
    </defs>
    <g clip-path="url(#pd055fe7f7e)">
     <use style="fill:#4c72b0;fill-opacity:0.2;stroke:#1a1a1a;stroke-opacity:0.2;stroke-width:0.3;" x="0.0" xlink:href="#m045bd17c79" y="342.8171875"/>
    </g>
   </g>
   <g id="PolyCollection_5">
    <defs>
     <path d="M 58.7375 -147.859783 
L 58.7375 -147.859783 
L 148.0175 -135.486214 
L 237.2975 -118.869123 
L 326.5775 -139.865751 
L 415.8575 -143.560284 
L 505.1375 -145.21081 
L 505.1375 -145.21081 
L 505.1375 -145.21081 
L 415.8575 -143.560284 
L 326.5775 -139.865751 
L 237.2975 -118.869123 
L 148.0175 -135.486214 
L 58.7375 -147.859783 
z
" id="mc51f63ce55" style="stroke:#1a1a1a;stroke-opacity:0.2;stroke-width:0.3;"/>
    </defs>
    <g clip-path="url(#pd055fe7f7e)">
     <use style="fill:#4c72b0;fill-opacity:0.2;stroke:#1a1a1a;stroke-opacity:0.2;stroke-width:0.3;" x="0.0" xlink:href="#mc51f63ce55" y="342.8171875"/>
    </g>
   </g>
   <g id="PolyCollection_6">
    <defs>
     <path d="M 58.7375 -147.859783 
L 58.7375 -147.859783 
L 148.0175 -150.436728 
L 237.2975 -132.644456 
L 326.5775 -144.544798 
L 415.8575 -147.524154 
L 505.1375 -151.897848 
L 505.1375 -151.897848 
L 505.1375 -151.897848 
L 415.8575 -147.524154 
L 326.5775 -144.544798 
L 237.2975 -132.644456 
L 148.0175 -150.436728 
L 58.7375 -147.859783 
z
" id="ma05f850170" style="stroke:#1a1a1a;stroke-opacity:0.2;stroke-width:0.3;"/>
    </defs>
    <g clip-path="url(#pd055fe7f7e)">
     <use style="fill:#4c72b0;fill-opacity:0.2;stroke:#1a1a1a;stroke-opacity:0.2;stroke-width:0.3;" x="0.0" xlink:href="#ma05f850170" y="342.8171875"/>
    </g>
   </g>
   <g id="PolyCollection_7">
    <defs>
     <path d="M 58.7375 -147.859783 
L 58.7375 -147.859783 
L 148.0175 -148.073804 
L 237.2975 -151.345306 
L 326.5775 -145.464082 
L 415.8575 -137.730487 
L 505.1375 -158.726295 
L 505.1375 -158.726295 
L 505.1375 -158.726295 
L 415.8575 -137.730487 
L 326.5775 -145.464082 
L 237.2975 -151.345306 
L 148.0175 -148.073804 
L 58.7375 -147.859783 
z
" id="mf2635bcf7c" style="stroke:#1a1a1a;stroke-opacity:0.2;stroke-width:0.3;"/>
    </defs>
    <g clip-path="url(#pd055fe7f7e)">
     <use style="fill:#4c72b0;fill-opacity:0.2;stroke:#1a1a1a;stroke-opacity:0.2;stroke-width:0.3;" x="0.0" xlink:href="#mf2635bcf7c" y="342.8171875"/>
    </g>
   </g>
   <g id="PolyCollection_8">
    <defs>
     <path d="M 58.7375 -147.859783 
L 58.7375 -147.859783 
L 148.0175 -141.500087 
L 237.2975 -146.525683 
L 326.5775 -146.225325 
L 415.8575 -152.055464 
L 505.1375 -166.450571 
L 505.1375 -166.450571 
L 505.1375 -166.450571 
L 415.8575 -152.055464 
L 326.5775 -146.225325 
L 237.2975 -146.525683 
L 148.0175 -141.500087 
L 58.7375 -147.859783 
z
" id="m16aca3b473" style="stroke:#1a1a1a;stroke-opacity:0.2;stroke-width:0.3;"/>
    </defs>
    <g clip-path="url(#pd055fe7f7e)">
     <use style="fill:#4c72b0;fill-opacity:0.2;stroke:#1a1a1a;stroke-opacity:0.2;stroke-width:0.3;" x="0.0" xlink:href="#m16aca3b473" y="342.8171875"/>
    </g>
   </g>
   <g id="PolyCollection_9">
    <defs>
     <path d="M 58.7375 -147.859783 
L 58.7375 -147.859783 
L 148.0175 -158.539441 
L 237.2975 -177.112474 
L 326.5775 -176.968172 
L 415.8575 -174.319415 
L 505.1375 -175.401641 
L 505.1375 -175.401641 
L 505.1375 -175.401641 
L 415.8575 -174.319415 
L 326.5775 -176.968172 
L 237.2975 -177.112474 
L 148.0175 -158.539441 
L 58.7375 -147.859783 
z
" id="ma00e3502a6" style="stroke:#1a1a1a;stroke-opacity:0.2;stroke-width:0.3;"/>
    </defs>
    <g clip-path="url(#pd055fe7f7e)">
     <use style="fill:#4c72b0;fill-opacity:0.2;stroke:#1a1a1a;stroke-opacity:0.2;stroke-width:0.3;" x="0.0" xlink:href="#ma00e3502a6" y="342.8171875"/>
    </g>
   </g>
   <g id="PolyCollection_10">
    <defs>
     <path d="M 58.7375 -147.859783 
L 58.7375 -147.859783 
L 148.0175 -153.783049 
L 237.2975 -171.850165 
L 326.5775 -162.279795 
L 415.8575 -156.837479 
L 505.1375 -188.883154 
L 505.1375 -188.883154 
L 505.1375 -188.883154 
L 415.8575 -156.837479 
L 326.5775 -162.279795 
L 237.2975 -171.850165 
L 148.0175 -153.783049 
L 58.7375 -147.859783 
z
" id="m4d15b33d61" style="stroke:#1a1a1a;stroke-opacity:0.2;stroke-width:0.3;"/>
    </defs>
    <g clip-path="url(#pd055fe7f7e)">
     <use style="fill:#4c72b0;fill-opacity:0.2;stroke:#1a1a1a;stroke-opacity:0.2;stroke-width:0.3;" x="0.0" xlink:href="#m4d15b33d61" y="342.8171875"/>
    </g>
   </g>
   <g id="PolyCollection_11">
    <defs>
     <path d="M 58.7375 -147.859783 
L 58.7375 -147.859783 
L 148.0175 -176.951658 
L 237.2975 -185.214997 
L 326.5775 -229.606337 
L 415.8575 -295.621863 
L 505.1375 -297.800501 
L 505.1375 -297.800501 
L 505.1375 -297.800501 
L 415.8575 -295.621863 
L 326.5775 -229.606337 
L 237.2975 -185.214997 
L 148.0175 -176.951658 
L 58.7375 -147.859783 
z
" id="mb5becdf0c0" style="stroke:#1a1a1a;stroke-opacity:0.2;stroke-width:0.3;"/>
    </defs>
    <g clip-path="url(#pd055fe7f7e)">
     <use style="fill:#4c72b0;fill-opacity:0.2;stroke:#1a1a1a;stroke-opacity:0.2;stroke-width:0.3;" x="0.0" xlink:href="#mb5becdf0c0" y="342.8171875"/>
    </g>
   </g>
   <g id="line2d_43">
    <path clip-path="url(#pd055fe7f7e)" d="M 58.7375 194.957405 
L 148.0175 197.602274 
L 237.2975 209.167935 
L 326.5775 225.496533 
L 415.8575 263.650449 
L 505.1375 286.299007 
" style="fill:none;stroke:#4c72b0;stroke-linecap:round;stroke-width:1.75;"/>
   </g>
   <g id="line2d_44">
    <path clip-path="url(#pd055fe7f7e)" d="M 58.7375 194.957405 
L 148.0175 209.315501 
L 237.2975 221.351972 
L 326.5775 215.532261 
L 415.8575 224.024316 
L 505.1375 223.273854 
" style="fill:none;stroke:#4c72b0;stroke-linecap:round;stroke-width:1.75;"/>
   </g>
   <g id="line2d_45">
    <path clip-path="url(#pd055fe7f7e)" d="M 58.7375 194.957405 
L 148.0175 205.998806 
L 237.2975 226.687801 
L 326.5775 226.028018 
L 415.8575 217.831533 
L 505.1375 212.460846 
" style="fill:none;stroke:#4c72b0;stroke-linecap:round;stroke-width:1.75;"/>
   </g>
   <g id="line2d_46">
    <path clip-path="url(#pd055fe7f7e)" d="M 58.7375 194.957405 
L 148.0175 200.3708 
L 237.2975 214.466433 
L 326.5775 209.215055 
L 415.8575 219.016838 
L 505.1375 204.670128 
" style="fill:none;stroke:#4c72b0;stroke-linecap:round;stroke-width:1.75;"/>
   </g>
   <g id="line2d_47">
    <path clip-path="url(#pd055fe7f7e)" d="M 58.7375 194.957405 
L 148.0175 207.330974 
L 237.2975 223.948065 
L 326.5775 202.951437 
L 415.8575 199.256903 
L 505.1375 197.606377 
" style="fill:none;stroke:#4c72b0;stroke-linecap:round;stroke-width:1.75;"/>
   </g>
   <g id="line2d_48">
    <path clip-path="url(#pd055fe7f7e)" d="M 58.7375 194.957405 
L 148.0175 192.380459 
L 237.2975 210.172732 
L 326.5775 198.272389 
L 415.8575 195.293033 
L 505.1375 190.919339 
" style="fill:none;stroke:#4c72b0;stroke-linecap:round;stroke-width:1.75;"/>
   </g>
   <g id="line2d_49">
    <path clip-path="url(#pd055fe7f7e)" d="M 58.7375 194.957405 
L 148.0175 194.743383 
L 237.2975 191.471881 
L 326.5775 197.353106 
L 415.8575 205.086701 
L 505.1375 184.090892 
" style="fill:none;stroke:#4c72b0;stroke-linecap:round;stroke-width:1.75;"/>
   </g>
   <g id="line2d_50">
    <path clip-path="url(#pd055fe7f7e)" d="M 58.7375 194.957405 
L 148.0175 201.317101 
L 237.2975 196.291504 
L 326.5775 196.591863 
L 415.8575 190.761723 
L 505.1375 176.366617 
" style="fill:none;stroke:#4c72b0;stroke-linecap:round;stroke-width:1.75;"/>
   </g>
   <g id="line2d_51">
    <path clip-path="url(#pd055fe7f7e)" d="M 58.7375 194.957405 
L 148.0175 184.277746 
L 237.2975 165.704714 
L 326.5775 165.849016 
L 415.8575 168.497773 
L 505.1375 167.415546 
" style="fill:none;stroke:#4c72b0;stroke-linecap:round;stroke-width:1.75;"/>
   </g>
   <g id="line2d_52">
    <path clip-path="url(#pd055fe7f7e)" d="M 58.7375 194.957405 
L 148.0175 189.034139 
L 237.2975 170.967023 
L 326.5775 180.537393 
L 415.8575 185.979708 
L 505.1375 153.934034 
" style="fill:none;stroke:#4c72b0;stroke-linecap:round;stroke-width:1.75;"/>
   </g>
   <g id="line2d_53">
    <path clip-path="url(#pd055fe7f7e)" d="M 58.7375 194.957405 
L 148.0175 165.865529 
L 237.2975 157.60219 
L 326.5775 113.210851 
L 415.8575 47.195325 
L 505.1375 45.016686 
" style="fill:none;stroke:#4c72b0;stroke-linecap:round;stroke-width:1.75;"/>
   </g>
   <g id="patch_3">
    <path d="M 58.7375 12.039062 
L 505.1375 12.039062 
" style="fill:none;"/>
   </g>
   <g id="patch_4">
    <path d="M 58.7375 318.939063 
L 58.7375 12.039062 
" style="fill:none;"/>
   </g>
   <g id="patch_5">
    <path d="M 505.1375 318.939063 
L 505.1375 12.039062 
" style="fill:none;"/>
   </g>
   <g id="patch_6">
    <path d="M 58.7375 318.939063 
L 505.1375 318.939063 
" style="fill:none;"/>
   </g>
  </g>
 </g>
 <defs>
  <clipPath id="pd055fe7f7e">
   <rect height="306.9" width="446.4" x="58.7375" y="12.0390625"/>
  </clipPath>
 </defs>
</svg>