<?xml version="1.0" encoding="UTF-8" standalone="no"?>
<!-- Generator: Adobe Illustrator 16.0.4, SVG Export Plug-In . SVG Version: 6.00 Build 0)  -->

<svg
   xmlns:dc="http://purl.org/dc/elements/1.1/"
   xmlns:cc="http://creativecommons.org/ns#"
   xmlns:rdf="http://www.w3.org/1999/02/22-rdf-syntax-ns#"
   xmlns:svg="http://www.w3.org/2000/svg"
   xmlns="http://www.w3.org/2000/svg"
   xmlns:sodipodi="http://sodipodi.sourceforge.net/DTD/sodipodi-0.dtd"
   xmlns:inkscape="http://www.inkscape.org/namespaces/inkscape"
   version="1.1"
   id="Layer_1"
   x="0px"
   y="0px"
   width="288"
   height="10.666667"
   viewBox="0 0 270 10"
   enable-background="new 0 0 270 10"
   xml:space="preserve"
   inkscape:version="0.92.1 r"
   sodipodi:docname="brand-ophicleide.svg"><metadata
     id="metadata75"><rdf:RDF><cc:Work
         rdf:about=""><dc:format>image/svg+xml</dc:format><dc:type
           rdf:resource="http://purl.org/dc/dcmitype/StillImage" /><dc:title></dc:title></cc:Work></rdf:RDF></metadata><defs
     id="defs73" /><sodipodi:namedview
     pagecolor="#939393"
     bordercolor="#666666"
     borderopacity="1"
     objecttolerance="10"
     gridtolerance="10"
     guidetolerance="10"
     inkscape:pageopacity="0"
     inkscape:pageshadow="2"
     inkscape:window-width="2560"
     inkscape:window-height="1366"
     id="namedview71"
     showgrid="false"
     inkscape:zoom="13.511111"
     inkscape:cx="52.640661"
     inkscape:cy="-17.319343"
     inkscape:window-x="0"
     inkscape:window-y="34"
     inkscape:window-maximized="1"
     inkscape:current-layer="g3"
     showguides="true"
     inkscape:guide-bbox="true"><inkscape:grid
       type="xygrid"
       id="grid4203"
       originx="0"
       originy="0"
       spacingx="1"
       spacingy="1" /></sodipodi:namedview><g
     id="g3"><g
       aria-label=" "
       style="font-style:normal;font-variant:normal;font-weight:normal;font-stretch:normal;line-height:0%;font-family:'Open Sans';-inkscape-font-specification:'Open Sans';letter-spacing:0px;word-spacing:0px;fill:#000000;fill-opacity:1;stroke:none;stroke-width:1px;stroke-linecap:butt;stroke-linejoin:miter;stroke-opacity:1"
       id="text4254" /><g
       aria-label=" "
       style="font-style:normal;font-weight:normal;line-height:0%;font-family:sans-serif;letter-spacing:0px;word-spacing:0px;fill:#000000;fill-opacity:1;stroke:none;stroke-width:1px;stroke-linecap:butt;stroke-linejoin:miter;stroke-opacity:1"
       id="text4258" /><g
       aria-label=" "
       style="font-style:normal;font-variant:normal;font-weight:bold;font-stretch:normal;line-height:0%;font-family:sans-serif;-inkscape-font-specification:'Sans Bold';letter-spacing:0px;word-spacing:0px;fill:#000000;fill-opacity:1;stroke:none;stroke-width:1px;stroke-linecap:butt;stroke-linejoin:miter;stroke-opacity:1"
       id="text4262" /><g
       aria-label="O P H I C L E I D E"
       style="font-style:normal;font-variant:normal;font-weight:bold;font-stretch:normal;line-height:0%;font-family:Overpass;-inkscape-font-specification:'Overpass Bold';letter-spacing:0px;word-spacing:0px;fill:#ffffff;fill-opacity:1;stroke:none;stroke-width:1px;stroke-linecap:butt;stroke-linejoin:miter;stroke-opacity:1"
       id="text4270"><path
         d="m 5.3276316,9.556064 q -1.325,0 -2.1875,-0.65 -0.8625,-0.65 -1.2625,-1.675 -0.3875,-1.0375 -0.3875,-2.2 0,-1.1625 0.3875,-2.1875 0.4,-1.0375 1.2625,-1.6875 0.8625,-0.64999997 2.1875,-0.64999997 1.3375,0 2.2,0.64999997 0.8625,0.65 1.25,1.6875 0.3875,1.025 0.3875,2.1875 0,1.1625 -0.3875,2.2 -0.3875,1.025 -1.25,1.675 -0.8625,0.65 -2.2,0.65 z m 0,-1.4375 q 0.7875,0 1.3,-0.4625 0.525,-0.475 0.75,-1.175 0.2375,-0.7125 0.2375,-1.45 0,-0.7875 -0.2375,-1.4875 -0.225,-0.7 -0.7375,-1.15 -0.5125,-0.45 -1.3125,-0.45 -0.8,0 -1.3125,0.475 -0.5125,0.4625 -0.75,1.1625 -0.225,0.7 -0.225,1.45 0,0.775 0.225,1.4875 0.2375,0.7 0.75,1.15 0.5125,0.45 1.3125,0.45 z"
         style="font-size:12.5px;line-height:1.25"
         id="path5065" /><path
         d="m 13.863178,0.65606403 h 3.6375 q 1.025,0 1.6875,0.38749997 0.6625,0.375 0.95,0.9875 0.3,0.6125 0.3,1.3375 0,0.675 -0.3125,1.3 -0.3125,0.625 -0.975,1.025 -0.6625,0.4 -1.65,0.4 h -2.1375 v 3.3125 h -1.5 z m 3.7125,4.01249997 q 0.6625,0 0.9875,-0.3875 0.325,-0.3875 0.325,-0.9125 0,-0.5 -0.3125,-0.8875 -0.3,-0.4 -1,-0.4 h -2.2125 v 2.5875 z"
         style="font-size:12.5px;line-height:1.25"
         id="path5067" /><path
         d="m 30.028022,5.606064 h -3.825 v 3.8 h -1.5 V 0.65606403 h 1.5 V 4.193564 h 3.825 V 0.65606403 h 1.4875 V 9.406064 h -1.4875 z"
         style="font-size:12.5px;line-height:1.25"
         id="path5069" /><path
         d="m 36.581928,0.65606403 h 1.5 V 9.406064 h -1.5 z"
         style="font-size:12.5px;line-height:1.25"
         id="path5071" /><path
         d="m 46.510053,9.556064 q -1.2875,0 -2.1125,-0.65 -0.8125,-0.65 -1.1875,-1.675 -0.3625,-1.025 -0.3625,-2.2 0,-1.1 0.375,-2.1375 0.375,-1.0375 1.2,-1.7125 0.825,-0.67499997 2.0875,-0.67499997 1.1625,0 1.95,0.54999997 0.7875,0.5375 1.1,1.3125 l -1.35,0.6125 q -0.35,-0.5375 -0.7375,-0.7875 -0.375,-0.25 -0.9625,-0.25 -0.75,0 -1.225,0.4625 -0.475,0.4625 -0.6875,1.1625 -0.2,0.7 -0.2,1.4625 0,0.775 0.225,1.475 0.2375,0.7 0.7125,1.15 0.475,0.45 1.175,0.45 0.55,0 0.95,-0.2875 0.4,-0.2875 0.725,-0.8375 l 1.3875,0.525 q -0.425,0.9625 -1.1875,1.5125 -0.75,0.5375 -1.875,0.5375 z"
         style="font-size:12.5px;line-height:1.25"
         id="path5073" /><path
         d="m 54.097553,0.65606403 h 1.5 V 7.968564 h 4.25 v 1.4375 h -5.75 z"
         style="font-size:12.5px;line-height:1.25"
         id="path5075" /><path
         d="m 64.107319,0.65606403 h 5.7 V 2.068564 h -4.2 v 2.1125 h 2.5875 v 1.4125 h -2.5875 v 2.4 h 4.475 v 1.4125 h -5.975 z"
         style="font-size:12.5px;line-height:1.25"
         id="path5077" /><path
         d="m 74.716694,0.65606403 h 1.5 V 9.406064 h -1.5 z"
         style="font-size:12.5px;line-height:1.25"
         id="path5079" /><path
         d="m 83.994819,0.65606403 q 1.45,0 2.4,0.62499997 0.95,0.6125 1.375,1.6 0.4375,0.9875 0.4375,2.15 0,1.1 -0.425,2.1 -0.4125,0.9875 -1.375,1.6375 -0.95,0.6375 -2.4625,0.6375 h -2.65 V 0.65606403 Z m 0.1625,7.33749997 q 0.875,0 1.4375,-0.425 0.5625,-0.4375 0.8125,-1.1125 0.25,-0.675 0.25,-1.425 0,-0.775 -0.2625,-1.45 -0.25,-0.675 -0.7875,-1.0875 -0.525,-0.425 -1.3125,-0.425 h -1.5 v 5.925 z"
         style="font-size:12.5px;line-height:1.25"
         id="path5081" /><path
         d="m 92.891499,0.65606403 h 5.7 V 2.068564 h -4.2 v 2.1125 h 2.5875 v 1.4125 h -2.5875 v 2.4 h 4.475 v 1.4125 h -5.975 z"
         style="font-size:12.5px;line-height:1.25"
         id="path5083" /></g><g
       aria-label="WORD2VEC APPLICATION"
       style="font-style:normal;font-variant:normal;font-weight:300;font-stretch:normal;line-height:0%;font-family:Overpass;-inkscape-font-specification:'Overpass Light';letter-spacing:0px;word-spacing:0px;fill:#ffffff;fill-opacity:1;stroke:none;stroke-width:1px;stroke-linecap:butt;stroke-linejoin:miter;stroke-opacity:1"
       id="text4276"><path
         d="m 113.55592,0.65789509 h 0.925 l 1.0625,6.01250001 0.15,0.875 q 0.0375,-0.15 0.2375,-0.85 l 1.725,-6.03750001 h 0.65 l 1.7,6.03750001 0.1875,0.7 0.15,-0.7375 1.2625,-6.00000001 h 0.9125 l -1.9,8.75000001 h -0.55 l -1.875,-6.275 -0.225,-0.775 -0.225,0.775 -1.9,6.275 h -0.6 z"
         style="font-size:12.5px;line-height:1.25"
         id="path5086" /><path
         d="m 127.50026,9.5578951 q -1.275,0 -2.0875,-0.65 -0.8125,-0.65 -1.175,-1.675 -0.3625,-1.025 -0.3625,-2.2 0,-1.175 0.3625,-2.2 0.3625,-1.025 1.175,-1.675 0.8125,-0.65000001 2.0875,-0.65000001 1.275,0 2.0875,0.65000001 0.8125,0.65 1.175,1.675 0.3625,1.025 0.3625,2.2 0,1.175 -0.3625,2.2 -0.3625,1.025 -1.175,1.675 -0.8125,0.65 -2.0875,0.65 z m 0,-0.7875 q 0.95,0 1.55,-0.5375 0.6125,-0.55 0.8875,-1.4 0.275,-0.85 0.275,-1.8 0,-1.6 -0.6625,-2.6625 -0.65,-1.075 -2.05,-1.075 -0.95,0 -1.5625,0.55 -0.6,0.5375 -0.875,1.3875 -0.275,0.85 -0.275,1.8 0,1.6 0.65,2.675 0.6625,1.0625 2.0625,1.0625 z"
         style="font-size:12.5px;line-height:1.25"
         id="path5088" /><path
         d="m 133.32155,0.65789509 h 3.2125 q 1.425,0 2.0625,0.70000001 0.6375,0.6875 0.6375,1.7 0,0.8875 -0.525,1.5625 -0.525,0.6625 -1.6375,0.8375 l 1.9375,3.95 h -0.9625 l -1.875,-3.9125 h -1.975 v 3.9125 h -0.875 z m 3.2375,4.05000001 q 0.95,0 1.3875,-0.4625 0.45,-0.475 0.45,-1.15 0,-0.6375 -0.4375,-1.1375 -0.425,-0.5125 -1.4,-0.5125 h -2.3625 v 3.2625 z"
         style="font-size:12.5px;line-height:1.25"
         id="path5090" /><path
         d="m 143.87409,0.65789509 q 1.4,0 2.2875,0.62500001 0.8875,0.6125 1.275,1.6 0.4,0.9875 0.4,2.15 0,1.125 -0.375,2.1125 -0.3625,0.9875 -1.2625,1.625 -0.9,0.6375 -2.375,0.6375 h -2.275 V 0.65789509 Z m 0.0125,7.96250001 q 1.6125,0 2.325,-1.0375 0.7125,-1.05 0.7125,-2.55 0,-0.9625 -0.3125,-1.775 -0.3,-0.8125 -0.95,-1.3125 -0.65,-0.5 -1.6375,-0.5 h -1.6 v 7.175 z"
         style="font-size:12.5px;line-height:1.25"
         id="path5092" /><path
         d="m 149.65827,9.4078951 q 0,-1.0125 0.3625,-1.725 0.375,-0.7125 0.8875,-1.15 0.5125,-0.4375 1.4,-1.0375 0.7375,-0.5 1.1375,-0.825 0.4125,-0.325 0.6875,-0.75 0.275,-0.425 0.275,-0.95 0,-0.7375 -0.5125,-1.2 -0.5,-0.475 -1.3875,-0.475 -1.5875,0 -1.95,1.4125 l -0.775,-0.35 q 0.2,-0.8 0.95,-1.325 0.7625,-0.52500001 1.85,-0.52500001 1.275,0 2,0.67500001 0.7375,0.6625 0.7375,1.7875 0,0.75 -0.3625,1.3125 -0.35,0.5625 -0.85,0.95 -0.5,0.3875 -1.3875,0.9625 -0.65,0.425 -1.05,0.7375 -0.3875,0.3 -0.7,0.7125 -0.3,0.4125 -0.3875,0.925 h 4.8125 v 0.8375 z"
         style="font-size:12.5px;line-height:1.25"
         id="path5094" /><path
         d="m 156.76881,0.65789509 h 0.925 l 2.1875,6.56250001 q 0.0875,0.25 0.1375,0.4375 l 0.1125,0.3375 0.2375,-0.775 2.0875,-6.56250001 h 0.9375 l -2.9875,8.75000001 h -0.6375 z"
         style="font-size:12.5px;line-height:1.25"
         id="path5096" /><path
         d="m 165.20631,0.65789509 h 4.9875 V 1.4953951 h -4.1125 v 2.975 h 2.775 v 0.825 h -2.775 v 3.275 h 4.3875 v 0.8375 h -5.2625 z"
         style="font-size:12.5px;line-height:1.25"
         id="path5098" /><path
         d="m 175.47389,9.5578951 q -1.2375,0 -2.05,-0.625 -0.8125,-0.6375 -1.2,-1.6625 -0.375,-1.025 -0.375,-2.2375 0,-1.25 0.3875,-2.275 0.4,-1.025 1.2125,-1.6375 0.8125,-0.61250001 2.025,-0.61250001 1.075,0 1.675,0.3875 0.6,0.37500001 1,1.02500001 l -0.775,0.45 q -0.35,-0.5 -0.7875,-0.7875 -0.425,-0.2875 -1.1125,-0.2875 -0.9375,0 -1.55,0.55 -0.6125,0.5375 -0.8875,1.4 -0.275,0.85 -0.275,1.7875 0,1.0125 0.2875,1.8625 0.2875,0.85 0.9,1.3625 0.6125,0.5125 1.525,0.5125 0.75,0 1.225,-0.2875 0.475,-0.2875 0.8,-0.825 l 0.775,0.3 q -0.3375,0.6875 -1.05,1.15 -0.7,0.45 -1.75,0.45 z"
         style="font-size:12.5px;line-height:1.25"
         id="path5100" /><path
         d="m 187.26061,7.1453951 h -3.4125 l -0.7625,2.2625 h -0.9125 l 3.0375,-8.75000001 h 0.675 l 3.0625,8.75000001 h -0.8875 z m -1.4625,-4.275 q -0.2,-0.5625 -0.25,-0.7875 -0.025,0.1 -0.0875,0.3125 -0.0625,0.2125 -0.15,0.475 l -1.2,3.5 h 2.8875 z"
         style="font-size:12.5px;line-height:1.25"
         id="path5102" /><path
         d="m 190.76784,0.65789509 h 3.2 q 1.45,0 2.1,0.75000001 0.6625,0.7375 0.6625,1.825 0,0.6375 -0.2875,1.225 -0.2875,0.5875 -0.9125,0.9625 -0.6125,0.375 -1.5625,0.375 h -2.325 v 3.6125 h -0.875 z m 3.275,4.35000001 q 0.95,0 1.4,-0.525 0.45,-0.525 0.45,-1.25 0,-0.7125 -0.4375,-1.25 -0.425,-0.5375 -1.4125,-0.5375 h -2.4 v 3.5625 z"
         style="font-size:12.5px;line-height:1.25"
         id="path5104" /><path
         d="m 198.60475,0.65789509 h 3.2 q 1.45,0 2.1,0.75000001 0.6625,0.7375 0.6625,1.825 0,0.6375 -0.2875,1.225 -0.2875,0.5875 -0.9125,0.9625 -0.6125,0.375 -1.5625,0.375 h -2.325 v 3.6125 h -0.875 z m 3.275,4.35000001 q 0.95,0 1.4,-0.525 0.45,-0.525 0.45,-1.25 0,-0.7125 -0.4375,-1.25 -0.425,-0.5375 -1.4125,-0.5375 h -2.4 v 3.5625 z"
         style="font-size:12.5px;line-height:1.25"
         id="path5106" /><path
         d="m 206.44167,0.65789509 h 0.875 V 8.5703951 h 4.3375 v 0.8375 h -5.2125 z"
         style="font-size:12.5px;line-height:1.25"
         id="path5108" /><path
         d="m 213.47292,0.65789509 h 0.875 V 9.4078951 h -0.875 z"
         style="font-size:12.5px;line-height:1.25"
         id="path5110" /><path
         d="m 220.15163,9.5578951 q -1.2375,0 -2.05,-0.625 -0.8125,-0.6375 -1.2,-1.6625 -0.375,-1.025 -0.375,-2.2375 0,-1.25 0.3875,-2.275 0.4,-1.025 1.2125,-1.6375 0.8125,-0.61250001 2.025,-0.61250001 1.075,0 1.675,0.3875 0.6,0.37500001 1,1.02500001 l -0.775,0.45 q -0.35,-0.5 -0.7875,-0.7875 -0.425,-0.2875 -1.1125,-0.2875 -0.9375,0 -1.55,0.55 -0.6125,0.5375 -0.8875,1.4 -0.275,0.85 -0.275,1.7875 0,1.0125 0.2875,1.8625 0.2875,0.85 0.9,1.3625 0.6125,0.5125 1.525,0.5125 0.75,0 1.225,-0.2875 0.475,-0.2875 0.8,-0.825 l 0.775,0.3 q -0.3375,0.6875 -1.05,1.15 -0.7,0.45 -1.75,0.45 z"
         style="font-size:12.5px;line-height:1.25"
         id="path5112" /><path
         d="m 229.30163,7.1453951 h -3.4125 l -0.7625,2.2625 h -0.9125 l 3.0375,-8.75000001 h 0.675 l 3.0625,8.75000001 h -0.8875 z m -1.4625,-4.275 q -0.2,-0.5625 -0.25,-0.7875 -0.025,0.1 -0.0875,0.3125 -0.0625,0.2125 -0.15,0.475 l -1.2,3.5 h 2.8875 z"
         style="font-size:12.5px;line-height:1.25"
         id="path5114" /><path
         d="m 234.52038,9.4078951 h -0.875 v -7.9125 h -2.4 V 0.65789509 h 5.6875 V 1.4953951 h -2.4125 z"
         style="font-size:12.5px;line-height:1.25"
         id="path5116" /><path
         d="m 238.98561,0.65789509 h 0.875 V 9.4078951 h -0.875 z"
         style="font-size:12.5px;line-height:1.25"
         id="path5118" /><path
         d="m 245.66432,9.5578951 q -1.275,0 -2.0875,-0.65 -0.8125,-0.65 -1.175,-1.675 -0.3625,-1.025 -0.3625,-2.2 0,-1.175 0.3625,-2.2 0.3625,-1.025 1.175,-1.675 0.8125,-0.65000001 2.0875,-0.65000001 1.275,0 2.0875,0.65000001 0.8125,0.65 1.175,1.675 0.3625,1.025 0.3625,2.2 0,1.175 -0.3625,2.2 -0.3625,1.025 -1.175,1.675 -0.8125,0.65 -2.0875,0.65 z m 0,-0.7875 q 0.95,0 1.55,-0.5375 0.6125,-0.55 0.8875,-1.4 0.275,-0.85 0.275,-1.8 0,-1.6 -0.6625,-2.6625 -0.65,-1.075 -2.05,-1.075 -0.95,0 -1.5625,0.55 -0.6,0.5375 -0.875,1.3875 -0.275,0.85 -0.275,1.8 0,1.6 0.65,2.675 0.6625,1.0625 2.0625,1.0625 z"
         style="font-size:12.5px;line-height:1.25"
         id="path5120" /><path
         d="m 256.78561,9.4078951 -4.075,-6.55 -0.35,-0.5875 v 0.5875 6.55 h -0.875 V 0.65789509 h 0.8875 l 4.0625,6.62500001 q 0.2,0.325 0.3625,0.6125 v -0.6125 -6.62500001 h 0.875 V 9.4078951 Z"
         style="font-size:12.5px;line-height:1.25"
         id="path5122" /></g></g></svg>