<?xml version="1.0" encoding="UTF-8" standalone="no"?>
<!-- Created with Inkscape (http://www.inkscape.org/) -->

<svg
   xmlns:dc="http://purl.org/dc/elements/1.1/"
   xmlns:cc="http://creativecommons.org/ns#"
   xmlns:rdf="http://www.w3.org/1999/02/22-rdf-syntax-ns#"
   xmlns:svg="http://www.w3.org/2000/svg"
   xmlns="http://www.w3.org/2000/svg"
   xmlns:sodipodi="http://sodipodi.sourceforge.net/DTD/sodipodi-0.dtd"
   xmlns:inkscape="http://www.inkscape.org/namespaces/inkscape"
   width="131.14568mm"
   height="44.331367mm"
   viewBox="0 0 131.14568 44.331367"
   version="1.1"
   id="svg8"
   inkscape:version="0.92+devel unknown"
   sodipodi:docname="sparkpi-architecture.svg">
  <defs
     id="defs2">
    <marker
       inkscape:stockid="TriangleOutM"
       orient="auto"
       refY="0"
       refX="0"
       id="TriangleOutM"
       style="overflow:visible"
       inkscape:isstock="true">
      <path
         id="path7528"
         d="M 5.77,0 -2.88,5 V -5 Z"
         style="fill:#92d400;fill-opacity:1;fill-rule:evenodd;stroke:#92d400;stroke-width:1.00000003pt;stroke-opacity:1"
         transform="scale(0.4)"
         inkscape:connector-curvature="0" />
    </marker>
    <marker
       inkscape:stockid="TriangleOutL"
       orient="auto"
       refY="0"
       refX="0"
       id="TriangleOutL"
       style="overflow:visible"
       inkscape:isstock="true">
      <path
         id="path7525"
         d="M 5.77,0 -2.88,5 V -5 Z"
         style="fill:#000000;fill-opacity:1;fill-rule:evenodd;stroke:#000000;stroke-width:1.00000003pt;stroke-opacity:1"
         transform="scale(0.8)"
         inkscape:connector-curvature="0" />
    </marker>
    <marker
       inkscape:stockid="Arrow2Mend"
       orient="auto"
       refY="0"
       refX="0"
       id="Arrow2Mend"
       style="overflow:visible"
       inkscape:isstock="true">
      <path
         id="path7410"
         style="fill:#000000;fill-opacity:1;fill-rule:evenodd;stroke:#000000;stroke-width:0.625;stroke-linejoin:round;stroke-opacity:1"
         d="M 8.7185878,4.0337352 -2.2072895,0.01601326 8.7185884,-4.0017078 c -1.7454984,2.3720609 -1.7354408,5.6174519 -6e-7,8.035443 z"
         transform="scale(-0.6)"
         inkscape:connector-curvature="0" />
    </marker>
    <marker
       inkscape:stockid="Arrow1Mend"
       orient="auto"
       refY="0"
       refX="0"
       id="Arrow1Mend"
       style="overflow:visible"
       inkscape:isstock="true">
      <path
         id="path7392"
         d="M 0,0 5,-5 -12.5,0 5,5 Z"
         style="fill:#000000;fill-opacity:1;fill-rule:evenodd;stroke:#000000;stroke-width:1.00000003pt;stroke-opacity:1"
         transform="matrix(-0.4,0,0,-0.4,-4,0)"
         inkscape:connector-curvature="0" />
    </marker>
    <marker
       inkscape:stockid="Arrow1Lend"
       orient="auto"
       refY="0"
       refX="0"
       id="marker7815"
       style="overflow:visible"
       inkscape:isstock="true">
      <path
         id="path7813"
         d="M 0,0 5,-5 -12.5,0 5,5 Z"
         style="fill:#000000;fill-opacity:1;fill-rule:evenodd;stroke:#000000;stroke-width:1.00000003pt;stroke-opacity:1"
         transform="matrix(-0.8,0,0,-0.8,-10,0)"
         inkscape:connector-curvature="0" />
    </marker>
    <marker
       inkscape:stockid="Arrow1Send"
       orient="auto"
       refY="0"
       refX="0"
       id="Arrow1Send"
       style="overflow:visible"
       inkscape:isstock="true">
      <path
         id="path7398"
         d="M 0,0 5,-5 -12.5,0 5,5 Z"
         style="fill:#000000;fill-opacity:1;fill-rule:evenodd;stroke:#000000;stroke-width:1.00000003pt;stroke-opacity:1"
         transform="matrix(-0.2,0,0,-0.2,-1.2,0)"
         inkscape:connector-curvature="0" />
    </marker>
    <marker
       inkscape:stockid="Arrow2Lend"
       orient="auto"
       refY="0"
       refX="0"
       id="Arrow2Lend"
       style="overflow:visible"
       inkscape:isstock="true">
      <path
         id="path7404"
         style="fill:#000000;fill-opacity:1;fill-rule:evenodd;stroke:#000000;stroke-width:0.625;stroke-linejoin:round;stroke-opacity:1"
         d="M 8.7185878,4.0337352 -2.2072895,0.01601326 8.7185884,-4.0017078 c -1.7454984,2.3720609 -1.7354408,5.6174519 -6e-7,8.035443 z"
         transform="matrix(-1.1,0,0,-1.1,-1.1,0)"
         inkscape:connector-curvature="0" />
    </marker>
    <marker
       inkscape:stockid="Arrow1Lend"
       orient="auto"
       refY="0"
       refX="0"
       id="Arrow1Lend"
       style="overflow:visible"
       inkscape:isstock="true">
      <path
         id="path7386"
         d="M 0,0 5,-5 -12.5,0 5,5 Z"
         style="fill:#000000;fill-opacity:1;fill-rule:evenodd;stroke:#000000;stroke-width:1.00000003pt;stroke-opacity:1"
         transform="matrix(-0.8,0,0,-0.8,-10,0)"
         inkscape:connector-curvature="0" />
    </marker>
  </defs>
  <sodipodi:namedview
     id="base"
     pagecolor="#ffffff"
     bordercolor="#666666"
     borderopacity="1.0"
     inkscape:pageopacity="0.0"
     inkscape:pageshadow="2"
     inkscape:zoom="2.8"
     inkscape:cx="244.0586"
     inkscape:cy="139.47412"
     inkscape:document-units="mm"
     inkscape:current-layer="layer1"
     inkscape:document-rotation="0"
     showgrid="false"
     inkscape:window-width="2552"
     inkscape:window-height="1362"
     inkscape:window-x="-4"
     inkscape:window-y="32"
     inkscape:window-maximized="0"
     fit-margin-top="1"
     fit-margin-left="1"
     fit-margin-right="1"
     fit-margin-bottom="1" />
  <metadata
     id="metadata5">
    <rdf:RDF>
      <cc:Work
         rdf:about="">
        <dc:format>image/svg+xml</dc:format>
        <dc:type
           rdf:resource="http://purl.org/dc/dcmitype/StillImage" />
        <dc:title></dc:title>
      </cc:Work>
    </rdf:RDF>
  </metadata>
  <g
     inkscape:label="Layer 1"
     inkscape:groupmode="layer"
     id="layer1"
     transform="translate(-47.974631,-67.608873)">
    <rect
       style="fill:#ebebeb;fill-opacity:1;stroke:#000000;stroke-width:0.565;stroke-linecap:round;stroke-linejoin:round;stroke-miterlimit:4;stroke-dasharray:0.565, 1.13;stroke-dashoffset:0;stroke-opacity:1"
       id="rect6210"
       width="66.523811"
       height="41.766369"
       x="111.31399"
       y="68.891373"
       ry="1.403165" />
    <path
       inkscape:connector-curvature="0"
       id="path5380"
       d="m 170.0188,74.913618 c -0.74083,-1.05833 -2.8575,-0.97895 -5.76792,0.23813 -0.18521,-0.13229 -0.39687,-0.23813 -0.66146,-0.23813 h -7.88458 c -0.60854,0 -1.08479,0.50271 -1.08479,1.0848 v 5.715 c -2.48708,2.56645 -3.4925,4.7625 -2.69875,5.9002 0.34396,0.47625 0.97896,0.74084 1.87854,0.74084 0.66146,0 1.48167,-0.13229 2.40771,-0.42334 0.47625,-0.15875 0.97896,-0.34395 1.50812,-0.55562 0.18521,0.13229 0.39688,0.23812 0.66146,0.23812 h 7.85813 c 0.60854,0 1.08479,-0.5027 1.08479,-1.08479 v -5.715 c 0.58208,-0.60854 1.11125,-1.19062 1.53458,-1.77271 1.34938,-1.82562 1.74625,-3.28083 1.16417,-4.1275 z m -7.14375,9.12813 h -2.03729 v -2.91042 h 2.91041 v 2.27542 c -0.26458,0.21167 -0.55562,0.42333 -0.84666,0.60854 0,0.0265 -0.0265,0.0265 -0.0265,0.0265 z m -4.94771,2.83104 c -0.0794,-0.10583 -0.13229,-0.21167 -0.13229,-0.34396 v -2.2225 h 2.77812 v 1.21709 c -0.89958,0.52916 -1.79916,0.97895 -2.64583,1.34937 z m -1.45521,-4.15396 v -2.91041 h 0.79375 v 2.91041 z m 0.79375,0.26459 v 2.77812 h -0.23812 c -0.3175,0 -0.55563,-0.26458 -0.55563,-0.55562 v -2.2225 z m -0.79375,-3.43959 v -2.2225 c 0,-0.3175 0.26459,-0.55562 0.55563,-0.55562 h 2.2225 v 0.79375 h -0.89959 c -0.60854,0 -1.08479,0.50271 -1.08479,1.08479 v 0.89958 z m 5.95313,-1.98437 h -2.91042 v -0.79375 h 2.91042 z m 1.32291,0.52916 v 2.77813 h -2.91041 v -2.77813 z m -3.175,0 v 2.77813 h -2.77812 v -2.2225 c 0,-0.3175 0.26458,-0.55563 0.55562,-0.55563 z m 0,3.04271 v 2.91042 h -2.77812 v -2.91042 z m 0.26459,3.175 h 1.64041 c -0.55562,0.37042 -1.11125,0.71438 -1.64041,1.05834 z m 5.95312,-3.51896 c -0.0265,0.0265 -0.0529,0.0529 -0.0794,0.0794 h -2.69875 v -2.77812 h 2.2225 c 0.3175,0 0.55563,0.26458 0.55563,0.55562 z m -0.34396,0.34396 c -0.74083,0.68792 -1.53458,1.40229 -2.43416,2.06375 v -2.06375 z m -0.97895,-3.57187 h -2.77813 v -0.79375 h 2.2225 c 0.3175,0 0.55563,0.26458 0.55563,0.55562 z m -4.10105,-2.11667 h 2.2225 c 0.3175,0 0.55563,0.26458 0.55563,0.55563 v 0.23812 h -2.77813 z m -3.175,0 h 2.91042 v 0.79375 h -2.91042 z m -3.0427,0.55563 c 0,-0.3175 0.26458,-0.55563 0.55562,-0.55563 h 2.2225 v 0.79375 h -0.89958 c -0.60854,0 -1.08479,0.50271 -1.08479,1.08479 v 0.89959 h -0.79375 z m 0,2.48708 h 0.79375 v 2.91042 h -0.79375 z m 0,3.175 h 0.79375 v 2.77812 h -0.23813 c -0.3175,0 -0.55562,-0.26458 -0.55562,-0.55562 z m 0.92604,5.90021 c -1.95792,0.58208 -3.33375,0.52916 -3.83646,-0.15875 -0.635,-0.89959 0.29104,-2.88396 2.35479,-5.10646 v 1.5875 c 0,0.60854 0.50271,1.08479 1.08479,1.08479 h 0.26459 v 0.23813 c 0,0.60854 0.5027,1.08479 1.08479,1.08479 h 0.23812 v 0.23812 c 0,0.21167 0.0529,0.39688 0.15875,0.55563 -0.44979,0.18521 -0.89958,0.34396 -1.34937,0.47625 z m 2.32833,-0.47625 c 0.71438,-0.3175 1.42875,-0.68792 2.16958,-1.11125 v 1.11125 z m 5.34458,0 h -2.91041 v -1.27 c 0.76729,-0.44979 1.53458,-0.92604 2.30187,-1.48167 0.0265,0 0.0265,-0.0265 0.0529,-0.0265 h 0.55563 z m -0.1852,-3.04271 c 0.0529,-0.0529 0.13229,-0.10583 0.1852,-0.13229 v 0.13229 z m 3.22791,2.48708 c 0,0.3175 -0.26458,0.55563 -0.55562,0.55563 h -2.2225 v -2.77813 h 2.77812 z m -2.77812,-2.48708 v -0.34396 c 1.00541,-0.76729 1.95791,-1.56104 2.77812,-2.35479 v 2.69875 z m 3.30729,-3.81 v -1.5875 c 0,-0.60854 -0.50271,-1.08479 -1.08479,-1.08479 h -0.23813 v -0.23813 c 0,-0.60854 -0.50271,-1.08479 -1.08479,-1.08479 h -0.23812 v -0.23812 c 0,-0.21167 -0.0529,-0.39688 -0.15875,-0.55563 2.59291,-1.03187 4.57729,-1.16417 5.15937,-0.3175 0.47625,0.68792 0.0794,2.03729 -1.13771,3.65125 -0.34396,0.50271 -0.76729,0.97896 -1.21708,1.45521 z"
       style="stroke-width:0.26458332" />
    <path
       inkscape:connector-curvature="0"
       id="path5495"
       d="m 137.23636,74.913618 c -0.74084,-1.05833 -2.8575,-0.97895 -5.76792,0.23813 -0.18521,-0.13229 -0.39688,-0.23813 -0.66146,-0.23813 h -7.88458 c -0.60854,0 -1.08479,0.50271 -1.08479,1.0848 v 5.715 c -2.48709,2.56645 -3.4925,4.7625 -2.69875,5.9002 0.34395,0.50271 1.00541,0.74084 1.87854,0.74084 1.03187,0 2.38125,-0.34396 3.91583,-0.9525 0.18521,0.13229 0.39688,0.21166 0.66146,0.21166 h 7.85812 c 0.60855,0 1.0848,-0.5027 1.0848,-1.08479 v -5.715 c 0.58208,-0.60854 1.11125,-1.19062 1.53458,-1.77271 1.34937,-1.79916 1.74625,-3.28083 1.16417,-4.1275 z m -3.22792,5.87375 c -1.11125,1.11125 -2.43417,2.19605 -3.88938,3.22792 -1.71979,1.19063 -3.43958,2.16958 -5.00062,2.83104 -0.0794,-0.10583 -0.10583,-0.21166 -0.10583,-0.34396 v -7.85812 c 0,-0.3175 0.26458,-0.55563 0.55562,-0.55563 h 7.85813 c 0.3175,0 0.55562,0.26459 0.55562,0.55563 v 2.14312 z m -1.32292,-3.22791 h -7.11729 c -0.60854,0 -1.08479,0.50271 -1.08479,1.08479 v 7.11729 h -0.23813 c -0.3175,0 -0.55562,-0.26458 -0.55562,-0.55562 v -7.88459 c 0,-0.3175 0.26458,-0.55562 0.55562,-0.55562 h 7.85813 c 0.3175,0 0.55562,0.26458 0.55562,0.55562 v 0.23813 z m -10.31875,-1.56104 c 0,-0.3175 0.26459,-0.55563 0.55563,-0.55563 h 7.85812 c 0.3175,0 0.55563,0.26458 0.55563,0.55563 v 0.23812 h -7.09084 c -0.60854,0 -1.08479,0.50271 -1.08479,1.08479 v 7.11729 h -0.23812 c -0.3175,0 -0.55563,-0.26458 -0.55563,-0.55562 z m -2.88396,11.40354 c -0.635,-0.89959 0.29105,-2.88396 2.3548,-5.10646 v 1.5875 c 0,0.60854 0.5027,1.08479 1.08479,1.08479 h 0.23812 v 0.23813 c 0,0.60854 0.50271,1.08479 1.08479,1.08479 h 0.23813 v 0.23812 c 0,0.21167 0.0529,0.39688 0.15875,0.55563 -2.54,1.00541 -4.55083,1.21708 -5.15938,0.3175 z m 13.97,-0.3175 h -7.83166 c 1.48166,-0.66146 3.09562,-1.5875 4.70958,-2.75167 1.34938,-0.9525 2.59292,-1.98437 3.65125,-2.98979 v 5.18583 c 0.0265,0.3175 -0.23812,0.55563 -0.52917,0.55563 z m 1.0848,-6.82625 v -1.5875 c 0,-0.60854 -0.50271,-1.08479 -1.0848,-1.08479 h -0.23812 v -0.23813 c 0,-0.60854 -0.50271,-1.08479 -1.08479,-1.08479 h -0.23813 v -0.23813 c 0,-0.21166 -0.0529,-0.39687 -0.15875,-0.55562 2.59292,-1.05833 4.57729,-1.16417 5.15938,-0.3175 0.47625,0.68792 0.0794,2.03729 -1.13771,3.65125 -0.34396,0.47625 -0.76729,0.9525 -1.21708,1.45521 z"
       style="stroke-width:0.26458332" />
    <path
       inkscape:connector-curvature="0"
       id="path5711"
       d="m 56.660741,97.07319 c -3.2168,0 -4.4958,-0.677333 -4.97178,-1.080823 l -0.19897,-0.17092 0.0794,-1.303867 -0.30586,-0.224631 c -1.20623,-0.885825 -2.2889,-1.835415 -2.2889,-3.700727 v -0.02117 l 0.26246,-3.289036 c 0.16669,-2.038614 0.47705,-5.830887 5.64568,-5.830887 h 3.55944 c 5.06968,0 5.44327,3.786717 5.64383,5.821098 l 0.26167,3.320256 c 0,1.868488 -1.04828,2.789767 -2.31457,3.718983 l -0.31009,0.227542 0.077,1.327679 -0.22146,0.172509 c -0.49556,0.386027 -1.79308,1.033991 -4.91781,1.033991 z m 0,-16.340931 c -2.04814,0 -3.71422,-1.665817 -3.71422,-3.713427 0,-2.04814 1.66635,-3.714221 3.71422,-3.714221 2.04814,0 3.71449,1.666081 3.71449,3.714221 0,2.04761 -1.66635,3.713427 -3.71449,3.713427 z m -3.17923,-3.713427 c 0,1.751806 1.42663,3.17844 3.1795,3.17844 1.75339,0 3.17949,-1.426634 3.17949,-3.17844 0,-1.752865 -1.42583,-3.179498 -3.17949,-3.179498 -1.75313,0 -3.1795,1.425045 -3.1795,3.179498 z m 10.32801,13.573654 -0.25585,-3.267869 c -0.22781,-2.308225 -0.70141,-5.338498 -5.11149,-5.338498 h -3.5597 c -4.41166,0 -4.91173,2.885282 -5.11228,5.338498 l -0.26062,3.267869 c 0,1.573477 0.83662,2.363258 2.07063,3.269456 l 0.50959,-7.061729 c 0,-0.130969 0.10478,-0.23495 0.23336,-0.23495 0.12859,0 0.23522,0.103981 0.23522,0.23495 l -0.51197,8.71855 c 0,0.02461 -0.005,0.04445 -0.0114,0.06562 0.34025,0.288396 1.47002,0.953823 4.62571,0.953823 3.04482,0 4.20211,-0.61939 4.58867,-0.921015 l -0.51118,-8.816975 c 0,-0.130969 0.10478,-0.23495 0.23284,-0.23495 0.12938,0 0.236,0.103981 0.236,0.23495 l 0.50959,7.079721 c 1.24381,-0.912812 2.09603,-1.704446 2.09603,-3.287448 z"
       fill="#010101"
       style="stroke-width:0.26458332" />
    <path
       id="path5791"
       d="m 92.083972,91.608777 -2.06031,-2.570956 c -0.0262,-0.283104 -0.16431,-0.532871 -0.36803,-0.709613 0.22595,-0.196321 0.37173,-0.4826 0.37173,-0.804598 v -9.008798 c 0,-0.59055 -0.47995,-1.071297 -1.07076,-1.071297 h -14.45895 c -0.59029,0 -1.07077,0.480483 -1.07077,1.071297 v 9.008798 c 0,0.321998 0.14578,0.608277 0.37174,0.804598 -0.20214,0.175154 -0.33946,0.422804 -0.36672,0.703792 l -2.22408,2.56884 c -0.0415,0.04815 -0.0643,0.109537 -0.0643,0.173037 0,0.710671 0.27119,1.071298 0.80645,1.071298 h 19.38575 c 0.53473,0 0.80645,-0.360627 0.80645,-1.071298 0,-0.0598 -0.0204,-0.118269 -0.0582,-0.1651 z M 73.956042,87.52361 v -9.008798 c 0,-0.298714 0.24289,-0.542131 0.54161,-0.542131 h 14.45895 c 0.29898,0 0.5416,0.243417 0.5416,0.542131 v 9.008798 c 0,0.298715 -0.24262,0.541602 -0.5416,0.541602 h -14.45895 c -0.29872,0 -0.54161,-0.242887 -0.54161,-0.541602 z m 17.37969,4.792398 h -19.38576 c -0.11588,0 -0.25823,0 -0.27596,-0.445558 l 2.21748,-2.561167 c 0.0415,-0.04815 0.0646,-0.109537 0.0646,-0.173037 0,-0.299244 0.24288,-0.542131 0.5416,-0.542131 h 14.45895 c 0.29898,0 0.5416,0.242887 0.5416,0.542131 0,0.0598 0.0209,0.118269 0.0585,0.165364 l 2.05475,2.563019 c -0.0167,0.451379 -0.15954,0.451379 -0.27569,0.451379 z m -3.08742,-13.731346 h -6.10817 c 0.002,-0.01799 0.005,-0.03572 0.005,-0.05424 0,-0.229923 -0.18601,-0.416454 -0.41593,-0.416454 -0.23019,0 -0.41619,0.186531 -0.41619,0.416454 0,0.01852 0.003,0.03625 0.005,0.05424 h -6.10844 c -0.36406,0 -0.66066,0.317236 -0.66066,0.706438 v 7.559146 c 0,0.389731 0.2966,0.706437 0.66066,0.706437 h 13.03814 c 0.36433,0 0.6604,-0.316706 0.6604,-0.706437 V 79.2911 c 0,-0.389202 -0.29607,-0.706438 -0.6604,-0.706438 z m 0.26352,8.265584 c 0,0.170656 -0.118,0.309562 -0.26352,0.309562 h -13.03814 c -0.14526,0 -0.26379,-0.138906 -0.26379,-0.309562 V 79.2911 c 0,-0.170656 0.11853,-0.309563 0.26379,-0.309563 h 13.03814 c 0.14552,0 0.26352,0.138907 0.26352,0.309563 z m -14.13616,2.406121 c 0,-0.07329 0.0593,-0.132292 0.13229,-0.132292 h 14.46689 c 0.073,0 0.13229,0.059 0.13229,0.132292 0,0.07276 -0.0593,0.132291 -0.13229,0.132291 h -14.46689 c -0.073,0 -0.13229,-0.05953 -0.13229,-0.132291 z m -0.47281,0.892968 c 0,-0.07329 0.0593,-0.132291 0.13229,-0.132291 h 15.34451 c 0.0725,0 0.1323,0.059 0.1323,0.132291 0,0.07276 -0.0598,0.132292 -0.1323,0.132292 h -15.34451 c -0.073,0 -0.13229,-0.05953 -0.13229,-0.132292 z m -0.64346,0.760677 h 16.63144 c 0.073,0 0.13229,0.059 0.13229,0.132292 0,0.07276 -0.0593,0.132292 -0.13229,0.132292 h -16.63144 c -0.0733,0 -0.1323,-0.05953 -0.1323,-0.132292 0,-0.07329 0.0587,-0.132292 0.1323,-0.132292 z m 13.53211,-10.008129 c 0.0408,0.06059 0.0251,0.142611 -0.0354,0.183357 l -3.80894,2.557991 c -0.0228,0.01508 -0.0487,0.02275 -0.0744,0.02275 -0.0421,0 -0.0836,-0.02064 -0.10927,-0.05847 -0.041,-0.06059 -0.0254,-0.14261 0.0352,-0.183356 l 3.80894,-2.557991 c 0.0606,-0.04075 0.14287,-0.02487 0.18388,0.03572 z m -1.92352,2.280973 c 0.041,0.06059 0.0251,0.14314 -0.0357,0.183886 l -3.01651,2.038085 c -0.0228,0.01508 -0.0487,0.02275 -0.0741,0.02275 -0.0423,0 -0.0841,-0.02064 -0.10954,-0.05847 -0.0413,-0.06059 -0.0251,-0.14261 0.0354,-0.183885 l 3.01678,-2.037556 c 0.0601,-0.04075 0.14261,-0.0254 0.18362,0.03519 z"
       inkscape:connector-curvature="0"
       style="stroke-width:0.26458332" />
    <g
       id="g7345"
       transform="matrix(0.04727415,0,0,0.04727415,134.76188,100.10941)">
      <path
         style="fill:#c22133;fill-opacity:1;fill-rule:nonzero;stroke:none;stroke-width:2.78179073"
         id="path44560"
         d="m 355.56021,72.02335 c -1.59257,-3.289467 -3.43551,-6.464187 -5.57401,-9.45809 l -22.84546,8.314079 c 2.65661,2.7192 4.889,5.775693 6.71455,9.044297 z m -100.98699,25.268063 -22.85241,8.314077 c 0.29209,3.66501 0.92495,7.28482 1.81164,10.8316 l 21.7084,-7.90376 c -0.70588,-3.67197 -0.95624,-7.4552 -0.66763,-11.241917"
         inkscape:connector-curvature="0" />
      <path
         style="fill:#db212e;fill-opacity:1;fill-rule:nonzero;stroke:none;stroke-width:2.78179073"
         id="path44564"
         d="m 305.28874,65.551513 c 4.75339,2.218479 8.87044,5.243677 12.3442,8.79046 l 22.84546,-8.314078 c -6.32858,-8.880868 -14.94865,-16.301294 -25.50902,-21.228541 -32.6617,-15.230305 -71.62764,-1.050126 -86.85447,31.608099 -4.93072,10.567327 -6.76323,21.791853 -5.90087,32.661697 l 22.84893,-8.31407 c 0.37902,-4.951591 1.58562,-9.91361 3.80063,-14.670473 9.89622,-21.21811 35.20704,-30.425838 56.42514,-20.533094"
         inkscape:connector-curvature="0" />
      <path
         style="fill:#db212e;fill-opacity:1;fill-rule:nonzero;stroke:none;stroke-width:2.78179073"
         id="path44572"
         d="m 329.65617,107.30099 c -0.36511,4.94811 -1.61343,9.91013 -3.83539,14.67047 -9.89274,21.22159 -35.20704,30.42932 -56.42167,20.53657 -4.76034,-2.22195 -8.90869,-5.22281 -12.36854,-8.77655 l -22.80025,8.29669 c 6.31466,8.88087 14.92431,16.30477 25.49163,21.2355 32.66171,15.22683 71.62069,1.04665 86.85099,-31.61505 4.9342,-10.56038 6.7528,-21.7849 5.88349,-32.644319 z"
         inkscape:connector-curvature="0" />
      <path
         style="fill:#eb2126;fill-opacity:1;fill-rule:nonzero;stroke:none;stroke-width:2.78179073"
         id="path44576"
         d="m 335.27436,79.407614 -21.7084,7.900286 c 4.0336,7.225701 5.93913,15.54326 5.31322,23.90949 l 22.80026,-8.29321 c -0.65372,-8.181944 -2.83395,-16.169161 -6.40508,-23.516566 m -100.31902,36.508226 -21.7084,7.90724 c 1.99245,7.91419 5.45231,15.43546 10.20917,22.12914 l 22.79677,-8.30017 c -5.85219,-6.00866 -9.74322,-13.61338 -11.29754,-21.73621"
         inkscape:connector-curvature="0" />
      <path
         style="fill:#ad213b;fill-opacity:1;fill-rule:nonzero;stroke:none;stroke-width:2.78179073"
         id="path44584"
         d="m 352.25127,66.004611 c -0.71979,-1.168352 -1.46739,-2.319318 -2.26368,-3.438989 L 327.14213,70.8797 c 1.00492,1.029263 1.92987,2.121116 2.81309,3.240787 z m -97.76534,35.875009 c -0.0556,-1.52303 -0.0314,-3.05302 0.0868,-4.586482 l -22.85241,8.314082 c 0.11822,1.46391 0.30252,2.9174 0.52158,4.36741 l 22.2439,-8.09501 z"
         inkscape:connector-curvature="0" />
      <path
         style="fill:#ba2133;fill-opacity:1;fill-rule:nonzero;stroke:none;stroke-width:2.78179073"
         id="path44588"
         d="m 352.45504,99.003939 -22.80026,8.296691 c -0.24006,3.28251 -0.87974,6.57198 -1.92639,9.80581 l 24.81706,-9.04777 c 0.17747,-3.03215 0.14938,-6.05735 -0.0904,-9.054731 M 234.23241,142.03129 c 1.756,2.47232 3.69978,4.82988 5.81046,7.05532 l 24.82053,-9.05126 c -2.90002,-1.81511 -5.52186,-3.93275 -7.83422,-6.30423 z"
         inkscape:connector-curvature="0" />
    </g>
    <path
       inkscape:connector-curvature="0"
       d="m 173.7099,105.08512 v 0.30282 h 0.87829 v 2.68191 h 0.33249 v -2.68191 h 0.87879 v -0.30282 z m -2.01682,0.30256 v 0.98929 h 0.81843 v 0.30282 h -0.81843 v 1.3898 h -0.33249 v -2.98422 h 1.75247 v 0.30231 z m -1.52137,-0.3022 h 0.33249 v 2.98473 h -0.33249 z m -1.18848,2.98437 v -1.4072 h -1.48392 v 1.4072 h -0.33249 v -2.98473 h 0.33249 v 1.27522 h 1.48392 v -1.27522 h 0.33249 v 2.98473 z m -3.54658,0.0469 c -0.40513,0 -0.7678,-0.17494 -1.00207,-0.4133 l 0.222,-0.24758 c 0.22558,0.2174 0.48594,0.35858 0.79286,0.35858 0.39642,0 0.644,-0.19643 0.644,-0.51204 0,-0.27724 -0.16624,-0.43479 -0.71204,-0.63122 -0.644,-0.23018 -0.8614,-0.43888 -0.8614,-0.86959 0,-0.47776 0.37495,-0.76369 0.93353,-0.76369 0.40103,0 0.65679,0.11969 0.90846,0.32021 l -0.2133,0.25985 c -0.2174,-0.17903 -0.41792,-0.27725 -0.71613,-0.27725 -0.40974,0 -0.58007,0.20462 -0.58007,0.4394 0,0.24758 0.111,0.38774 0.70795,0.60155 0.66088,0.23837 0.86549,0.46037 0.86549,0.90386 0,0.46907 -0.36676,0.83122 -0.98928,0.83122 m -2.34953,-0.0469 -1.09567,-1.62869 c -0.0726,-0.111 -0.17085,-0.26036 -0.20922,-0.33709 0,0.111 0.009,0.48594 0.009,0.65219 v 1.31359 h -0.58876 v -2.98473 h 0.57137 l 1.05783,1.57753 c 0.0726,0.111 0.17034,0.26036 0.2087,0.3371 0,-0.111 -0.008,-0.48595 -0.008,-0.65271 v -1.26192 h 0.58824 v 2.98473 h -0.533 z m -4.70646,0 v -2.98473 h 2.07218 v 0.58416 h -1.47523 v 0.51612 h 0.85731 v 0.57955 h -0.85731 v 0.72074 h 1.53917 v 0.58416 z m -1.6961,-1.05727 h -0.65679 v 1.05732 h -0.59696 v -2.98473 h 1.3049 c 0.56267,0 1.02765,0.31152 1.02765,0.94632 0,0.69106 -0.46037,0.98109 -1.0788,0.98109 m 0.0302,-1.34734 h -0.68698 v 0.76728 h 0.69516 c 0.27725,0 0.42661,-0.12839 0.42661,-0.38825 0,-0.25985 -0.17085,-0.37903 -0.43479,-0.37903 m -3.25267,2.45152 c -0.78058,0 -1.31359,-0.57137 -1.31359,-1.53508 0,-0.96371 0.54171,-1.54377 1.32229,-1.54377 0.77597,0 1.30898,0.57188 1.30898,1.53559 0,0.9637 -0.5417,1.54326 -1.31768,1.54326 m -0.004,-2.486 c -0.41792,0 -0.69516,0.33709 -0.69516,0.94274 0,0.60564 0.29003,0.9504 0.70795,0.9504 0.41791,0 0.69464,-0.33658 0.69464,-0.94222 0,-0.60564 -0.28952,-0.95092 -0.70743,-0.95092"
       id="path44622"
       style="fill:#241f21;fill-opacity:1;fill-rule:nonzero;stroke:none;stroke-width:0.40921766" />
    <g
       id="g8428"
       transform="translate(4.2994708,31.938988)">
      <circle
         r="3.4029379"
         cy="65.820312"
         cx="77.343376"
         id="path8312-6-4"
         style="opacity:1;fill:#000000;fill-opacity:1;stroke:none;stroke-width:0.67173517;stroke-linecap:round;stroke-linejoin:round;stroke-miterlimit:4;stroke-dasharray:none;stroke-dashoffset:0;stroke-opacity:1" />
      <g
         id="flowRoot8337-6"
         style="font-style:normal;font-variant:normal;font-weight:normal;font-stretch:normal;font-size:24px;line-height:125%;font-family:Overpass;-inkscape-font-specification:Overpass;letter-spacing:0px;word-spacing:0px;fill:#ffffff;stroke:none;stroke-width:1px;stroke-linecap:butt;stroke-linejoin:miter;stroke-opacity:1"
         transform="matrix(0.26458333,0,0,0.26458333,39.116306,12.777453)"
         aria-label="1">
        <path
           id="path8422"
           d="m 144.84027,208.87695 h 2.088 v -16.8 h -1.512 c -0.504,1.512 -1.728,1.992 -3.384,1.992 v 1.416 h 2.808 z"
           inkscape:connector-curvature="0" />
      </g>
    </g>
    <g
       id="g8433"
       transform="translate(40.446948,30.049107)">
      <circle
         r="3.4029379"
         cy="62.93824"
         cx="87.737724"
         id="path8312-6-4-9"
         style="opacity:1;fill:#000000;fill-opacity:1;stroke:none;stroke-width:0.67173523;stroke-linecap:round;stroke-linejoin:round;stroke-miterlimit:4;stroke-dasharray:none;stroke-dashoffset:0;stroke-opacity:1" />
      <g
         id="flowRoot8337-6-7"
         style="font-style:normal;font-variant:normal;font-weight:normal;font-stretch:normal;font-size:24px;line-height:125%;font-family:Overpass;-inkscape-font-specification:Overpass;letter-spacing:0px;word-spacing:0px;fill:#ffffff;stroke:none;stroke-width:1px;stroke-linecap:butt;stroke-linejoin:miter;stroke-opacity:1"
         transform="matrix(0.26458333,0,0,0.26458333,48.47243,9.9334802)"
         aria-label="2">
        <path
           id="path8416"
           d="m 142.75227,208.87695 h 11.304 v -2.04 h -8.88 c 0.384,-1.944 2.016,-3.192 4.08,-4.392 2.472,-1.464 4.656,-2.856 4.656,-5.808 0,-2.88 -2.016,-4.848 -5.376,-4.848 -2.784,0 -4.872,1.512 -5.52,3.576 l 1.872,0.84 c 0.48,-1.488 1.512,-2.472 3.576,-2.472 2.016,0 3.288,1.248 3.288,2.856 0,1.896 -1.656,3 -3.432,4.08 -2.76,1.608 -5.568,3.792 -5.568,8.208 z"
           inkscape:connector-curvature="0" />
      </g>
    </g>
    <g
       id="g8438"
       transform="translate(61.370388,37.08891)">
      <circle
         r="3.4029379"
         cy="55.898438"
         cx="99.596725"
         id="path8312-6-4-7"
         style="opacity:1;fill:#000000;fill-opacity:1;stroke:none;stroke-width:0.67173523;stroke-linecap:round;stroke-linejoin:round;stroke-miterlimit:4;stroke-dasharray:none;stroke-dashoffset:0;stroke-opacity:1" />
      <g
         id="flowRoot8337-6-8"
         style="font-style:normal;font-variant:normal;font-weight:normal;font-stretch:normal;font-size:24px;line-height:125%;font-family:Overpass;-inkscape-font-specification:Overpass;letter-spacing:0px;word-spacing:0px;fill:#ffffff;stroke:none;stroke-width:1px;stroke-linecap:butt;stroke-linejoin:miter;stroke-opacity:1"
         transform="matrix(0.26458333,0,0,0.26458333,60.417156,2.8555777)"
         aria-label="3">
        <path
           id="path8419"
           d="m 148.05627,209.16495 c 3.216,0 5.784,-1.968 5.784,-5.064 0,-2.064 -1.08,-3.504 -2.808,-4.2 1.392,-0.72 2.16,-2.136 2.16,-3.648 0,-2.568 -2.136,-4.464 -5.064,-4.464 -2.76,0 -4.536,1.56 -5.28,3.48 l 1.944,0.744 c 0.504,-1.08 1.488,-2.256 3.336,-2.256 1.68,0 2.88,1.032 2.88,2.736 0,1.584 -1.176,2.664 -2.952,2.664 h -1.08 v 1.968 h 1.2 c 2.352,0 3.48,1.272 3.48,3.048 0,2.064 -1.632,3 -3.6,3 -1.704,0 -3,-0.792 -3.792,-2.712 l -1.944,0.792 c 0.864,2.28 2.616,3.912 5.736,3.912 z"
           inkscape:connector-curvature="0" />
      </g>
    </g>
  </g>
</svg>
