<?xml version="1.0" encoding="UTF-8" standalone="no"?>
<!-- Created with Inkscape (http://www.inkscape.org/) -->
<svg xmlns:dc="http://purl.org/dc/elements/1.1/" xmlns:cc="http://creativecommons.org/ns#" xmlns:rdf="http://www.w3.org/1999/02/22-rdf-syntax-ns#" xmlns:svg="http://www.w3.org/2000/svg" xmlns="http://www.w3.org/2000/svg" xmlns:sodipodi="http://sodipodi.sourceforge.net/DTD/sodipodi-0.dtd" xmlns:inkscape="http://www.inkscape.org/namespaces/inkscape" width="340" height="48" id="svg4736" version="1.1" inkscape:version="0.48.5 r10040" sodipodi:docname="logo.svg">
  <defs id="defs4738"/>
  <sodipodi:namedview id="base" pagecolor="#000000" bordercolor="#666666" borderopacity="0.19215686" inkscape:pageopacity="0.85098039" inkscape:pageshadow="2" inkscape:zoom="2" inkscape:cx="163.56269" inkscape:cy="-1.5024907" inkscape:document-units="px" inkscape:current-layer="layer1" showgrid="false" fit-margin-top="0" fit-margin-left="0" fit-margin-right="0" fit-margin-bottom="0" inkscape:showpageshadow="false" borderlayer="true" inkscape:window-width="1366" inkscape:window-height="730" inkscape:window-x="0" inkscape:window-y="312" inkscape:window-maximized="1">
    <inkscape:grid type="xygrid" id="grid4848" empspacing="5" visible="true" enabled="true" snapvisiblegridlinesonly="true"/>
  </sodipodi:namedview>
  <metadata id="metadata4741">
    <rdf:RDF>
      <cc:Work rdf:about="">
        <dc:format>image/svg+xml</dc:format>
        <dc:type rdf:resource="http://purl.org/dc/dcmitype/StillImage"/>
        <dc:title/>
      </cc:Work>
    </rdf:RDF>
  </metadata>
  <g inkscape:label="Layer 1" inkscape:groupmode="layer" id="layer1" transform="translate(-269.94767,-543.87425)">
    <path inkscape:connector-curvature="0" id="path6731" style="font-size:54.88470078px;font-style:normal;font-weight:normal;line-height:125%;letter-spacing:0px;word-spacing:0px;fill:#ffffff;fill-opacity:1;stroke:none;font-family:Sans" d="m 280.77868,554.65756 c 0.3976,2e-5 0.78727,0.0557 1.16899,0.16699 0.3817,0.11135 0.73955,0.28631 1.07356,0.52485 0.7634,0.55668 1.14512,1.32805 1.14513,2.31412 -10e-6,0.79525 -0.20678,1.39166 -0.62028,1.78925 -0.71573,0.68392 -1.38371,1.02589 -2.00397,1.02586 -0.79524,3e-5 -1.51891,-0.25446 -2.17097,-0.76343 -0.50897,-0.33396 -1.08154,-0.50097 -1.71771,-0.50098 -0.63618,1e-5 -1.13718,0.20677 -1.50297,0.62028 -0.36583,0.39762 -0.54873,0.90657 -0.54871,1.52682 l 0,16.86681 c -2e-5,0.76341 -0.19882,1.35189 -0.59643,1.76541 -0.71571,0.69979 -1.36779,1.0497 -1.95625,1.0497 -0.57257,0 -1.03382,-0.0795 -1.38371,-0.23857 -0.334,-0.14316 -0.62823,-0.34194 -0.88269,-0.59643 -0.55667,-0.55666 -0.835,-1.2167 -0.835,-1.98011 l 0,-20.70776 c 0,-0.77929 0.20675,-1.38368 0.62028,-1.81313 0.66799,-0.69976 1.30417,-1.04966 1.90855,-1.04968 0.62026,2e-5 1.08151,0.0715 1.38369,0.21471 0.30218,0.12726 0.55665,0.27834 0.76343,0.45328 0.28627,0.2545 0.49303,0.51691 0.62027,0.78728 0.12725,0.25449 0.23062,0.44535 0.31015,0.57257 0.0955,0.12724 0.23856,0.19087 0.42942,0.19083 0.20674,4e-5 0.37375,-0.0636 0.50099,-0.19083 l 0.42942,-0.40559 c 1.24055,-1.08147 2.52882,-1.62223 3.86481,-1.62225"/>
    <path inkscape:connector-curvature="0" id="path6733" style="font-size:54.88470078px;font-style:normal;font-weight:normal;line-height:125%;letter-spacing:0px;word-spacing:0px;fill:#ffffff;fill-opacity:1;stroke:none;font-family:Sans" d="m 292.13455,557.30567 c -10e-6,-0.95426 0.44531,-1.62226 1.33597,-2.00399 0.25447,-0.1113 0.5328,-0.16696 0.835,-0.16698 l 5.63022,0 c 1.94035,2e-5 3.60236,0.69187 4.9861,2.07553 1.38366,1.38373 2.0755,3.04575 2.07553,4.98609 l 0,16.05567 c -3e-5,1.20873 -0.57259,2.05965 -1.71769,2.55268 -0.34992,0.15904 -0.73164,0.23857 -1.14514,0.23857 -0.41353,0 -0.77138,-0.0716 -1.07355,-0.21471 -0.2863,-0.12724 -0.53281,-0.27833 -0.73955,-0.45328 -0.17498,-0.15906 -0.34993,-0.38171 -0.52486,-0.66801 -0.17497,-0.30217 -0.31015,-0.52483 -0.40557,-0.66799 -0.0955,-0.14312 -0.24654,-0.2147 -0.45328,-0.2147 -0.20677,0 -0.37378,0.0716 -0.50099,0.2147 l -0.38172,0.40558 c -1.06562,1.06561 -2.31412,1.59841 -3.74553,1.59841 -1.70179,0 -3.17297,-0.69981 -4.4135,-2.09941 -1.24057,-1.38369 -1.86084,-3.03777 -1.86084,-4.96222 l 0,-3.29226 c 0,-1.94035 0.69184,-3.60235 2.07554,-4.98608 1.3678,-1.36777 3.02982,-2.05167 4.98609,-2.05168 l 4.24652,0 0,-1.3837 c -2e-5,-0.79521 -0.19883,-1.39162 -0.59642,-1.78926 -0.69982,-0.69978 -1.43938,-1.04969 -2.21869,-1.0497 l -4.22267,0 c -0.58846,10e-6 -1.04175,-0.15109 -1.35983,-0.45328 -0.54077,-0.50893 -0.81115,-1.06559 -0.81114,-1.66998 m 3.55469,16.62822 c -10e-6,0.81114 0.19877,1.40757 0.59639,1.78928 0.6998,0.66799 1.34394,1.00198 1.93242,1.00198 0.58846,0 1.04968,-0.0557 1.3837,-0.16701 0.34989,-0.11132 0.65206,-0.27036 0.90656,-0.47713 0.55665,-0.44532 0.83497,-1.0338 0.83499,-1.76542 l 0,-6.39362 -2.81511,0 c -0.81114,0 -1.41552,0.19881 -1.81312,0.59642 -0.68391,0.6839 -1.02584,1.42347 -1.02583,2.21869 l 0,3.19681"/>
    <path inkscape:connector-curvature="0" id="path6735" style="font-size:54.88470078px;font-style:normal;font-weight:normal;line-height:125%;letter-spacing:0px;word-spacing:0px;fill:#ffffff;fill-opacity:1;stroke:none;font-family:Sans" d="m 331.42681,578.25199 c -4e-5,1.20873 -0.5726,2.05965 -1.71771,2.55268 -0.34992,0.15904 -0.73163,0.23857 -1.14512,0.23857 -0.41355,0 -0.77139,-0.0637 -1.07357,-0.19086 -0.3022,-0.12724 -0.55668,-0.27038 -0.76342,-0.42943 -0.2863,-0.25446 -0.49305,-0.50099 -0.62027,-0.73956 -0.11135,-0.23856 -0.21473,-0.43736 -0.31014,-0.5964 -0.0955,-0.17496 -0.2386,-0.26244 -0.42943,-0.26244 -0.19086,0 -0.35787,0.0716 -0.50099,0.2147 l -0.42941,0.40558 c -1.03383,1.06561 -2.26642,1.59841 -3.69783,1.59841 -1.71769,0 -3.19682,-0.69981 -4.43737,-2.09941 -1.22465,-1.36779 -1.83698,-3.02186 -1.83697,-4.96222 l 0,-11.78529 c -1e-5,-1.94034 0.69184,-3.60236 2.07554,-4.98609 1.38369,-1.38366 3.0457,-2.07551 4.98607,-2.07553 l 4.24653,0 0,-8.44534 c 0,-0.7952 0.19879,-1.39162 0.59642,-1.78926 0.68387,-0.68387 1.42345,-1.02581 2.21869,-1.02585 0.81111,4e-5 1.41548,0.19884 1.81311,0.59643 0.68388,0.68393 1.02583,1.42348 1.02587,2.21868 l 0,31.56263 m -11.30816,-4.05567 c -10e-6,0.81115 0.26242,1.43937 0.78727,1.88469 0.54076,0.42942 1.10536,0.64414 1.69384,0.64414 0.60436,0 1.07354,-0.0557 1.40755,-0.16701 0.34989,-0.11132 0.65208,-0.27036 0.90656,-0.47713 0.57256,-0.44532 0.85885,-1.0338 0.85885,-1.76542 l 0,-14.88666 -2.83897,0 c -0.77933,10e-6 -1.37575,0.20678 -1.78926,0.62026 -0.6839,0.68393 -1.02585,1.42349 -1.02584,2.2187 l 0,11.92843"/>
    <path inkscape:connector-curvature="0" id="path6737" style="font-size:54.88470078px;font-style:normal;font-variant:normal;font-weight:bold;font-stretch:normal;line-height:125%;letter-spacing:0px;word-spacing:0px;fill:#ffffff;fill-opacity:1;stroke:none;font-family:Supermercado;-inkscape-font-specification:Supermercado Bold" d="m 412.74947,557.30567 c -10e-6,-0.95426 0.44531,-1.62226 1.33598,-2.00399 0.25445,-0.1113 0.5328,-0.16696 0.83499,-0.16698 l 5.63022,0 c 1.94035,2e-5 3.60236,0.69187 4.98608,2.07553 1.38368,1.38373 2.07554,3.04575 2.07555,4.98609 l 0,16.05567 c -10e-6,1.20873 -0.57259,2.05965 -1.7177,2.55268 -0.34992,0.15904 -0.73162,0.23857 -1.14512,0.23857 -0.41354,0 -0.77139,-0.0716 -1.07357,-0.21471 -0.2863,-0.12724 -0.53282,-0.27833 -0.73956,-0.45328 -0.17496,-0.15906 -0.34992,-0.38171 -0.52486,-0.66801 -0.17496,-0.30217 -0.31015,-0.52483 -0.40555,-0.66799 -0.0955,-0.14312 -0.24653,-0.2147 -0.45329,-0.2147 -0.20676,0 -0.37377,0.0716 -0.50099,0.2147 l -0.38171,0.40558 c -1.06561,1.06561 -2.31413,1.59841 -3.74552,1.59841 -1.70181,0 -3.17296,-0.69981 -4.41352,-2.09941 -1.24055,-1.38369 -1.86084,-3.03777 -1.86084,-4.96222 l 0,-3.29226 c 0,-1.94035 0.69184,-3.60235 2.07554,-4.98608 1.3678,-1.36777 3.02981,-2.05167 4.98609,-2.05168 l 4.24652,0 0,-1.3837 c -1e-5,-0.79521 -0.19881,-1.39162 -0.59642,-1.78926 -0.69983,-0.69978 -1.43938,-1.04969 -2.21869,-1.0497 l -4.22266,0 c -0.58848,10e-6 -1.04176,-0.15109 -1.35984,-0.45328 -0.54076,-0.50893 -0.81114,-1.06559 -0.81113,-1.66998 m 3.55466,16.62822 c -10e-6,0.81114 0.1988,1.40757 0.59642,1.78928 0.69979,0.66799 1.34393,1.00198 1.93242,1.00198 0.58844,0 1.04969,-0.0557 1.38369,-0.16701 0.34989,-0.11132 0.65208,-0.27036 0.90656,-0.47713 0.55664,-0.44532 0.83498,-1.0338 0.83499,-1.76542 l 0,-6.39362 -2.81511,0 c -0.81114,0 -1.41552,0.19881 -1.81313,0.59642 -0.68389,0.6839 -1.02585,1.42347 -1.02584,2.21869 l 0,3.19681"/>
    <path inkscape:connector-curvature="0" id="path6739" style="font-size:54.88470078px;font-style:normal;font-variant:normal;font-weight:bold;font-stretch:normal;line-height:125%;letter-spacing:0px;word-spacing:0px;fill:#ffffff;fill-opacity:1;stroke:none;font-family:Supermercado;-inkscape-font-specification:Supermercado Bold" d="m 440.11327,580.0174 c -0.39762,0.38169 -0.77139,0.64411 -1.12127,0.78727 -0.334,0.15904 -0.69981,0.23857 -1.09741,0.23857 -0.38173,0 -0.74753,-0.0716 -1.09743,-0.21471 -0.33399,-0.14314 -0.62823,-0.34195 -0.88271,-0.59642 -0.55665,-0.55667 -0.83498,-1.21671 -0.83498,-1.98012 l 0,-20.73162 c 0,-0.77929 0.20676,-1.38368 0.62027,-1.81313 0.66799,-0.69976 1.30419,-1.04966 1.90856,-1.04968 0.62028,2e-5 1.07356,0.0715 1.35985,0.21471 0.30218,0.12726 0.55664,0.27834 0.7634,0.45328 0.30219,0.2545 0.50895,0.51691 0.62029,0.78728 0.12723,0.25449 0.23856,0.44535 0.334,0.57257 0.0955,0.12724 0.23856,0.19087 0.4294,0.19083 0.20677,4e-5 0.37376,-0.0636 0.50102,-0.19083 0.12722,-0.14313 0.33397,-0.35784 0.62027,-0.64414 0.95427,-0.92246 1.99601,-1.38368 3.12526,-1.3837 1.1451,2e-5 2.09937,0.19088 2.86281,0.57256 0.7634,0.36584 1.42343,0.87476 1.98013,1.52684 1.22463,1.38371 1.83695,3.0378 1.83697,4.96222 l 0,16.53281 c -2e-5,1.20873 -0.56464,2.05965 -1.69384,2.55268 -0.34991,0.15904 -0.72368,0.23857 -1.12127,0.23857 -0.38173,0 -0.74753,-0.0716 -1.09742,-0.21471 -0.34991,-0.14314 -0.6521,-0.34195 -0.90656,-0.59642 -0.55667,-0.55667 -0.835,-1.21671 -0.83498,-1.98012 l 0,-16.46123 c -2e-5,-0.77932 -0.19088,-1.37574 -0.57257,-1.78927 -0.68391,-0.69977 -1.41553,-1.04968 -2.19484,-1.04969 -1.27236,10e-6 -2.15507,0.49305 -2.6481,1.47911 -0.15905,0.31811 -0.23857,0.67597 -0.23857,1.07356 l 0,16.74752 c 0,0.77933 -0.20677,1.36779 -0.62028,1.76541"/>
    <path inkscape:connector-curvature="0" id="path6741" style="font-size:54.88470078px;font-style:normal;font-variant:normal;font-weight:bold;font-stretch:normal;line-height:125%;letter-spacing:0px;word-spacing:0px;fill:#ffffff;fill-opacity:1;stroke:none;font-family:Supermercado;-inkscape-font-specification:Supermercado Bold" d="m 461.60829,557.30567 c 0,-0.95426 0.44533,-1.62226 1.33599,-2.00399 0.25447,-0.1113 0.5328,-0.16696 0.835,-0.16698 l 5.6302,0 c 1.94034,2e-5 3.60238,0.69187 4.98609,2.07553 1.38368,1.38373 2.07552,3.04575 2.07556,4.98609 l 0,16.05567 c -4e-5,1.20873 -0.5726,2.05965 -1.7177,2.55268 -0.34992,0.15904 -0.73164,0.23857 -1.14513,0.23857 -0.41354,0 -0.77139,-0.0716 -1.07356,-0.21471 -0.2863,-0.12724 -0.53282,-0.27833 -0.73956,-0.45328 -0.17497,-0.15906 -0.34991,-0.38171 -0.52484,-0.66801 -0.17498,-0.30217 -0.31017,-0.52483 -0.40558,-0.66799 -0.0955,-0.14312 -0.24654,-0.2147 -0.45328,-0.2147 -0.20678,0 -0.37377,0.0716 -0.50099,0.2147 l -0.38172,0.40558 c -1.06562,1.06561 -2.31411,1.59841 -3.74553,1.59841 -1.70179,0 -3.17297,-0.69981 -4.41351,-2.09941 -1.24056,-1.38369 -1.86083,-3.03777 -1.86082,-4.96222 l 0,-3.29226 c -1e-5,-1.94035 0.69184,-3.60235 2.07553,-4.98608 1.36778,-1.36777 3.02982,-2.05167 4.98608,-2.05168 l 4.24653,0 0,-1.3837 c -10e-6,-0.79521 -0.19883,-1.39162 -0.59642,-1.78926 -0.69982,-0.69978 -1.43938,-1.04969 -2.21869,-1.0497 l -4.22266,0 c -0.58848,10e-6 -1.04176,-0.15109 -1.35986,-0.45328 -0.54075,-0.50893 -0.81113,-1.06559 -0.81113,-1.66998 m 3.55469,16.62822 c -1e-5,0.81114 0.19879,1.40757 0.5964,1.78928 0.69981,0.66799 1.34393,1.00198 1.93242,1.00198 0.58846,0 1.04968,-0.0557 1.38369,-0.16701 0.3499,-0.11132 0.65207,-0.27036 0.90657,-0.47713 0.55664,-0.44532 0.83498,-1.0338 0.83499,-1.76542 l 0,-6.39362 -2.81511,0 c -0.81114,0 -1.41552,0.19881 -1.81312,0.59642 -0.68391,0.6839 -1.02585,1.42347 -1.02584,2.21869 l 0,3.19681"/>
    <path inkscape:connector-curvature="0" id="path6743" style="font-size:54.88470078px;font-style:normal;font-variant:normal;font-weight:bold;font-stretch:normal;line-height:125%;letter-spacing:0px;word-spacing:0px;fill:#ffffff;fill-opacity:1;stroke:none;font-family:Supermercado;-inkscape-font-specification:Supermercado Bold" d="m 490.6421,573.45676 c -2e-5,0.81113 0.1988,1.40755 0.59641,1.78926 0.69981,0.66798 1.43936,1.002 2.2187,1.002 l 0.23857,0 c 0.58844,0 1.04172,0.15904 1.35984,0.47713 0.54073,0.54075 0.81112,1.03379 0.81113,1.47913 -1e-5,0.44532 -0.0557,0.80318 -0.16701,1.07354 -0.11133,0.25448 -0.26244,0.47716 -0.45326,0.66799 -0.44535,0.41353 -0.96226,0.62029 -1.5507,0.62029 l -1.64613,0 c -1.94037,0 -3.6024,-0.69185 -4.98609,-2.07554 -1.3837,-1.38371 -2.07554,-3.04573 -2.07554,-4.98609 l 0,-26.81511 c 0,-0.7952 0.19881,-1.39162 0.59642,-1.78926 0.6839,-0.68387 1.42344,-1.02581 2.21869,-1.02585 0.81113,4e-5 1.41549,0.19884 1.81313,0.59643 0.68388,0.68393 1.02582,1.42348 1.02584,2.21868 l 0,26.7674"/>
    <path inkscape:connector-curvature="0" id="path6745" style="font-size:54.88470078px;font-style:normal;font-variant:normal;font-weight:bold;font-stretch:normal;line-height:125%;letter-spacing:0px;word-spacing:0px;fill:#ffffff;fill-opacity:1;stroke:none;font-family:Supermercado;-inkscape-font-specification:Supermercado Bold" d="m 512.0417,555.70724 c 0.4135,-0.39757 0.78725,-0.66796 1.12128,-0.81111 0.34987,-0.15903 0.71569,-0.23855 1.0974,-0.23857 0.39759,2e-5 0.77136,0.0715 1.12127,0.21471 0.34989,0.14315 0.65207,0.34196 0.90655,0.59642 0.55664,0.55669 0.83499,1.21673 0.835,1.98011 l 0,27.36382 c -10e-6,1.95625 -0.69187,3.61828 -2.07554,4.98608 -1.41552,1.38369 -3.09346,2.07554 -5.03379,2.07555 l -4.22267,0 c -0.60437,-10e-6 -1.12127,-0.20676 -1.5507,-0.62028 -0.41352,-0.41352 -0.62029,-0.92248 -0.62029,-1.52683 0,-0.60439 0.20677,-1.12128 0.62029,-1.5507 0.42943,-0.41352 0.94633,-0.62029 1.5507,-0.62029 l 2.8151,0 c 0.81114,0 1.4155,-0.19882 1.81314,-0.59642 0.68388,-0.68389 1.02581,-1.4155 1.02583,-2.19482 l 0,-5.17694 c -2e-5,-0.30219 -0.0876,-0.50098 -0.26242,-0.59643 -0.15906,-0.11133 -0.3181,-0.16699 -0.47713,-0.16699 -0.15906,0 -0.30221,0.0716 -0.42944,0.2147 l -0.40555,0.38173 c -1.08152,1.08149 -2.33004,1.62226 -3.74553,1.62226 -1.7177,0 -3.14117,-0.69981 -4.27038,-2.09941 -1.12922,-1.38369 -1.69384,-3.03777 -1.69384,-4.96222 l 0,-16.53281 c 0,-1.20872 0.57257,-2.05962 1.71769,-2.55267 0.334,-0.15903 0.69184,-0.23855 1.07357,-0.23857 0.3976,2e-5 0.77136,0.0715 1.12128,0.21471 0.34986,0.14315 0.65206,0.34196 0.90656,0.59642 0.55665,0.55669 0.83497,1.21673 0.83498,1.98011 l 0,16.46124 c -1e-5,0.77932 0.1988,1.37574 0.59642,1.78927 0.66798,0.69979 1.29621,1.04969 1.88469,1.04969 0.58846,0 1.04969,-0.0556 1.38369,-0.16698 0.34989,-0.12725 0.66002,-0.3022 0.93041,-0.52487 0.55666,-0.47713 0.83498,-1.09742 0.835,-1.86083 l 0,-16.74752 c -2e-5,-0.7793 0.19879,-1.3598 0.59643,-1.74156"/>
    <path inkscape:connector-curvature="0" id="path6747" style="font-size:54.88470078px;font-style:normal;font-variant:normal;font-weight:bold;font-stretch:normal;line-height:125%;letter-spacing:0px;word-spacing:0px;fill:#ffffff;fill-opacity:1;stroke:none;font-family:Supermercado;-inkscape-font-specification:Supermercado Bold" d="m 536.87669,576.24802 c 0.60436,0 1.10534,0.2147 1.50298,0.64413 0.39759,0.42942 0.59639,0.94631 0.59642,1.55069 -3e-5,0.58848 -0.19883,1.08946 -0.59642,1.50297 -0.39764,0.41353 -0.89862,0.62029 -1.50298,0.62029 l -2.86281,0 c -1.94039,0 -3.60241,-0.69185 -4.98609,-2.07554 -1.36781,-1.36779 -2.0517,-3.02982 -2.0517,-4.98609 l 0,-14.17098 -2.81511,0 c -0.90656,2e-5 -1.55071,-0.42938 -1.9324,-1.28826 -0.11134,-0.25446 -0.167,-0.52484 -0.167,-0.81114 0,-0.90653 0.42942,-1.55068 1.28828,-1.93241 0.25445,-0.1113 0.52483,-0.16696 0.81112,-0.16698 l 2.81511,0 0,-4.96224 c 0,-1.25643 0.57255,-2.13118 1.7177,-2.62425 0.33399,-0.15903 0.69978,-0.23854 1.0974,-0.23857 0.77932,3e-5 1.3678,0.2068 1.76541,0.62028 0.6998,0.68392 1.04969,1.43143 1.04972,2.24254 l 0,4.96224 4.31809,0 c 0.55664,2e-5 0.98605,0.15111 1.28826,0.45327 0.50893,0.50897 0.76339,1.05768 0.76342,1.64612 -3e-5,0.57259 -0.19883,1.06563 -0.59642,1.47914 -0.39764,0.41353 -0.88272,0.62028 -1.45526,0.62026 l -4.31809,0 0,14.12327 c -3e-5,0.79524 0.20674,1.38369 0.62026,1.76539 0.6998,0.68391 1.4314,1.02587 2.19484,1.02587 l 1.45527,0"/>
    <path inkscape:connector-curvature="0" id="path6749" style="font-size:54.88470078px;font-style:normal;font-variant:normal;font-weight:bold;font-stretch:normal;line-height:125%;letter-spacing:0px;word-spacing:0px;fill:#ffffff;fill-opacity:1;stroke:none;font-family:Supermercado;-inkscape-font-specification:Supermercado Bold" d="m 546.32399,557.52037 c -2e-5,-0.77929 0.19879,-1.38368 0.59642,-1.81313 0.68389,-0.69976 1.43935,-1.04966 2.26641,-1.04968 0.79521,2e-5 1.38368,0.20679 1.76539,0.62027 0.6998,0.71573 1.04969,1.46325 1.0497,2.24254 l 0,20.73162 c -10e-6,0.76341 -0.19883,1.34393 -0.59642,1.74155 -0.6998,0.69979 -1.34394,1.0497 -1.93241,1.0497 -0.58846,0 -1.05764,-0.0795 -1.40754,-0.23857 -0.34991,-0.14316 -0.6521,-0.33399 -0.90656,-0.57256 -0.55668,-0.54076 -0.83501,-1.20079 -0.83499,-1.98012 l 0,-20.73162 m 2.86283,-13.64612 c 0.87473,4e-5 1.63019,0.31812 2.2664,0.95428 0.63616,0.63622 0.95426,1.28035 0.95426,1.9324 0,0.65213 -0.0875,1.16902 -0.26241,1.5507 -0.17497,0.38173 -0.40559,0.71573 -0.69185,1.00198 -0.63621,0.63621 -1.39167,0.95431 -2.2664,0.95428 -0.87478,3e-5 -1.63023,-0.31807 -2.26641,-0.95428 -0.63619,-0.63614 -0.95429,-1.27233 -0.95429,-1.90854 0,-1.08149 0.3181,-1.94032 0.95429,-2.57654 0.63618,-0.63616 1.39163,-0.95424 2.26641,-0.95428"/>
    <path inkscape:connector-curvature="0" id="path6751" style="font-size:54.88470078px;font-style:normal;font-variant:normal;font-weight:bold;font-stretch:normal;line-height:125%;letter-spacing:0px;word-spacing:0px;fill:#ffffff;fill-opacity:1;stroke:none;font-family:Supermercado;-inkscape-font-specification:Supermercado Bold" d="m 572.13712,560.21621 c -0.68391,-0.84292 -1.5189,-1.2644 -2.50498,-1.26441 -0.85885,10e-6 -1.49503,0.20676 -1.90854,0.62026 -0.68391,0.68392 -1.02585,1.42349 -1.02584,2.2187 l 0,11.666 c -10e-6,0.81113 0.19878,1.40755 0.59643,1.78926 0.69976,0.66798 1.43935,1.002 2.21867,1.002 l 5.86878,0 c 0.93836,0 1.5984,0.45328 1.98013,1.35983 0.11131,0.25447 0.16698,0.53281 0.16699,0.83499 -1e-5,0.28628 -0.0556,0.56462 -0.16699,0.83498 -0.11135,0.25448 -0.26245,0.47716 -0.45329,0.66799 -0.41352,0.41353 -0.92246,0.62029 -1.52684,0.62029 l -7.27634,0 c -1.94036,0 -3.60239,-0.69185 -4.98607,-2.07554 -1.38371,-1.38371 -2.07556,-3.04573 -2.07556,-4.98609 l 0,-11.833 c 0,-2.05166 0.69185,-3.70574 2.07556,-4.96221 1.51093,-1.36778 3.64214,-2.05168 6.39363,-2.0517 3.70574,2e-5 6.17891,0.85887 7.41948,2.57653 0.3976,0.52489 0.59641,1.05767 0.59642,1.59841 -1e-5,0.52488 -0.0716,0.96226 -0.2147,1.31214 -0.14317,0.33402 -0.34197,0.62823 -0.59643,0.88269 -0.54078,0.54079 -1.1531,0.81115 -1.83697,0.81113 -1.11334,2e-5 -2.02785,-0.54072 -2.74354,-1.62225"/>
    <path inkscape:connector-curvature="0" id="path6753" style="font-size:54.88470078px;font-style:normal;font-variant:normal;font-weight:bold;font-stretch:normal;line-height:125%;letter-spacing:0px;word-spacing:0px;fill:#ffffff;fill-opacity:1;stroke:none;font-family:Supermercado;-inkscape-font-specification:Supermercado Bold" d="m 588.59835,580.5661 c -0.58848,0 -1.09742,-0.20676 -1.52683,-0.62029 -0.42944,-0.41351 -0.64414,-0.84293 -0.64414,-1.28826 0,-0.44533 0.0556,-0.79523 0.167,-1.0497 0.12723,-0.27037 0.29422,-0.50894 0.50099,-0.7157 0.42942,-0.42943 0.93042,-0.64413 1.50298,-0.64413 l 5.27236,0 c 0.97018,0 1.74949,-0.27039 2.33796,-0.81115 0.58847,-0.55665 0.8827,-1.24054 0.88271,-2.05169 -10e-6,-0.81112 -0.22266,-1.46322 -0.66799,-1.95625 -0.44533,-0.50895 -0.99405,-0.8668 -1.64612,-1.07357 l -4.29423,-1.19284 c -1.47914,-0.44532 -2.65606,-1.27234 -3.53082,-2.48111 -0.89065,-1.22464 -1.33597,-2.52086 -1.33597,-3.88866 0,-1.36779 0.1988,-2.49702 0.59642,-3.38768 0.41351,-0.89063 0.96221,-1.65405 1.64611,-2.29027 1.4155,-1.32005 3.16502,-1.98008 5.24853,-1.9801 l 5.82105,0 c 0.60437,2e-5 1.10536,0.21472 1.50299,0.64413 0.3976,0.41353 0.59641,0.92248 0.59643,1.52684 -2e-5,0.60439 -0.19883,1.11334 -0.59643,1.52683 -0.39763,0.39763 -0.89862,0.59644 -1.50299,0.59643 l -5.36778,0 c -0.81114,10e-6 -1.44733,0.23858 -1.90855,0.71571 -0.44534,0.47714 -0.668,1.04176 -0.668,1.69382 0,1.01791 0.5646,1.78134 1.69384,2.29026 l 4.67594,1.35983 c 2.51291,0.84297 4.18289,2.43342 5.00995,4.7714 0.27035,0.79522 0.40554,1.70973 0.40555,2.74353 -10e-6,1.0338 -0.21472,2.01988 -0.64413,2.95826 -0.41353,0.93836 -0.97019,1.74948 -1.66997,2.43337 -1.47915,1.44734 -3.22069,2.17099 -5.22465,2.17099 l -6.63221,0"/>
    <g id="g13392" transform="matrix(0.76190476,0,0,0.76190476,245.1304,-59.458524)"/>
    <path id="path7613-5" sodipodi:nodetypes="cssszssc" inkscape:connector-curvature="0" d="m 341.58403,576.1321 c 6.34167,0 4.06596,-8.30545 9.33266,-8.30545 5.08362,0 3.50608,12.05385 9.33267,12.06068 5.98928,0.007 3.7344,-10.5077 9.33265,-10.5077 7.16335,0 4.21566,-13.95056 9.33267,-13.95056 5.11701,0 3.53898,12.376 9.33267,12.376 5.4499,0 3.42271,-10.03515 9.33266,-10.03515 1.38482,0 2.91282,1.75166 2.91282,1.75166" style="fill:none;stroke:#ffcc00;stroke-width:4;stroke-linecap:round;stroke-linejoin:miter;stroke-miterlimit:4;stroke-opacity:1;stroke-dasharray:none;marker-start:none;marker-mid:none;marker-end:none"/>
  </g>
</svg>