<?xml version="1.0" encoding="UTF-8" standalone="no"?>
<!-- Generator: Adobe Illustrator 17.1.0, SVG Export Plug-In . SVG Version: 6.00 Build 0)  -->

<svg
   xmlns:dc="http://purl.org/dc/elements/1.1/"
   xmlns:cc="http://creativecommons.org/ns#"
   xmlns:rdf="http://www.w3.org/1999/02/22-rdf-syntax-ns#"
   xmlns:svg="http://www.w3.org/2000/svg"
   xmlns="http://www.w3.org/2000/svg"
   xmlns:sodipodi="http://sodipodi.sourceforge.net/DTD/sodipodi-0.dtd"
   xmlns:inkscape="http://www.inkscape.org/namespaces/inkscape"
   version="1.1"
   id="Layer_1"
   x="0px"
   y="0px"
   viewBox="0 0 100 100"
   enable-background="new 0 0 612 792"
   xml:space="preserve"
   inkscape:version="0.91 r13725"
   sodipodi:docname="icon_projects.svg"
   width="100"
   height="100"><metadata
     id="metadata4345"><rdf:RDF><cc:Work
         rdf:about=""><dc:format>image/svg+xml</dc:format><dc:type
           rdf:resource="http://purl.org/dc/dcmitype/StillImage" /><dc:title></dc:title></cc:Work></rdf:RDF></metadata><defs
     id="defs4343" /><sodipodi:namedview
     pagecolor="#ffffff"
     bordercolor="#666666"
     borderopacity="1"
     objecttolerance="10"
     gridtolerance="10"
     guidetolerance="10"
     inkscape:pageopacity="0"
     inkscape:pageshadow="2"
     inkscape:window-width="2556"
     inkscape:window-height="1417"
     id="namedview4341"
     showgrid="false"
     fit-margin-top="0"
     fit-margin-left="0"
     fit-margin-right="0"
     fit-margin-bottom="0"
     inkscape:zoom="1.5113636"
     inkscape:cx="-14.807344"
     inkscape:cy="44.410253"
     inkscape:window-x="0"
     inkscape:window-y="1099"
     inkscape:window-maximized="0"
     inkscape:current-layer="Layer_1" /><g
     id="g4314"
     transform="translate(-257.34618,-347.81263)"><linearGradient
       id="SVGID_1_"
       gradientUnits="userSpaceOnUse"
       x1="277.151"
       y1="362.00891"
       x2="334.19141"
       y2="419.04929"><stop
         offset="0"
         style="stop-color:#E6E6E6"
         id="stop4317" /><stop
         offset="0.5"
         style="stop-color:#F7F7F7"
         id="stop4319" /><stop
         offset="1"
         style="stop-color:#C4C4C4"
         id="stop4321" /></linearGradient><path
       d="m 313.495,383.778 5.354,1.935 c -0.252,1.402 -0.614,2.767 -1.085,4.079 l -5.595,-1 c -0.668,1.606 -1.55,3.095 -2.594,4.454 l 3.669,4.355 c -0.91,1.074 -1.909,2.074 -2.985,2.984 l -4.354,-3.67 c -1.359,1.043 -2.849,1.928 -4.455,2.593 l 0.999,5.595 c -1.312,0.473 -2.675,0.835 -4.078,1.086 l -1.936,-5.354 c -0.844,0.109 -1.699,0.185 -2.573,0.185 -0.874,0 -1.73,-0.077 -2.576,-0.185 l -1.935,5.354 c -1.402,-0.251 -2.766,-0.613 -4.077,-1.086 l 0.998,-5.595 c -1.605,-0.667 -3.094,-1.55 -4.453,-2.593 l -4.355,3.67 c -1.075,-0.912 -2.074,-1.91 -2.985,-2.984 l 3.671,-4.355 c -1.044,-1.359 -1.926,-2.848 -2.593,-4.454 l -5.597,1 c -0.471,-1.312 -0.833,-2.677 -1.085,-4.079 l 5.355,-1.935 c -0.11,-0.847 -0.186,-1.699 -0.186,-2.575 0,-0.875 0.075,-1.73 0.186,-2.574 l -5.356,-1.936 c 0.252,-1.403 0.614,-2.768 1.086,-4.079 l 5.596,1 c 0.667,-1.607 1.549,-3.095 2.593,-4.455 l -3.671,-4.353 c 0.911,-1.077 1.91,-2.075 2.985,-2.986 l 4.355,3.672 c 1.359,-1.046 2.849,-1.928 4.453,-2.596 l -0.998,-5.595 c 1.312,-0.471 2.675,-0.835 4.077,-1.086 l 1.935,5.355 c 0.846,-0.108 1.702,-0.186 2.576,-0.186 0.874,0 1.73,0.077 2.573,0.186 l 1.936,-5.355 c 1.403,0.251 2.766,0.613 4.078,1.086 l -0.999,5.595 c 1.606,0.668 3.096,1.55 4.455,2.593 l 4.354,-3.669 c 1.076,0.911 2.075,1.909 2.985,2.983 l -3.669,4.355 c 1.044,1.36 1.926,2.849 2.593,4.455 l 5.595,-1 c 0.472,1.311 0.834,2.676 1.086,4.079 l -5.355,1.935 c 0.111,0.846 0.187,1.701 0.187,2.576 10e-4,0.876 -0.075,1.732 -0.185,2.575 z m -19.633,-7.221 c -2.566,0 -4.648,2.081 -4.648,4.646 0,2.567 2.081,4.647 4.648,4.647 2.565,0 4.646,-2.08 4.646,-4.647 0.001,-2.565 -2.08,-4.646 -4.646,-4.646 z m 46.372,5.516 5.565,-0.736 c 0.052,-1.404 -0.013,-2.812 -0.194,-4.215 l -5.617,-0.219 c -0.267,-0.853 -0.637,-1.689 -1.143,-2.478 -0.506,-0.788 -1.109,-1.476 -1.773,-2.077 l 2.15,-5.19 c -1.196,-0.749 -2.449,-1.398 -3.751,-1.942 l -2.995,4.75 c -1.765,-0.398 -3.631,-0.321 -5.404,0.255 l -3.426,-4.459 c -1.242,0.662 -2.431,1.423 -3.553,2.277 l 2.62,4.972 c -1.268,1.371 -2.118,3.038 -2.493,4.806 l -5.567,0.735 c -0.048,1.408 0.018,2.82 0.195,4.218 l 5.617,0.22 c 0.268,0.854 0.64,1.688 1.144,2.477 0.507,0.788 1.109,1.478 1.773,2.075 l -2.148,5.193 c 1.192,0.75 2.446,1.397 3.75,1.94 l 2.992,-4.747 c 1.765,0.397 3.632,0.32 5.407,-0.256 l 3.424,4.459 c 1.245,-0.661 2.434,-1.422 3.554,-2.278 l -2.619,-4.974 c 1.266,-1.372 2.114,-3.036 2.492,-4.806 z m -9.514,2.493 c -2.553,0.272 -4.842,-1.575 -5.114,-4.128 -0.271,-2.551 1.576,-4.841 4.129,-5.113 2.552,-0.272 4.841,1.576 5.112,4.127 0.272,2.553 -1.576,4.842 -4.127,5.114 z m -5.52,37.396 c 0.116,-1.403 0.115,-2.815 0,-4.222 l -5.611,-0.478 c -0.366,-1.968 -1.134,-3.794 -2.226,-5.384 l 3.625,-4.304 c -0.909,-1.075 -1.909,-2.072 -2.985,-2.985 l -4.302,3.627 c -1.589,-1.092 -3.415,-1.858 -5.383,-2.225 l -0.48,-5.61 c -1.403,-0.116 -2.815,-0.115 -4.222,0 l -0.477,5.61 c -1.969,0.366 -3.793,1.133 -5.384,2.225 l -4.301,-3.625 c -1.075,0.911 -2.073,1.91 -2.985,2.984 l 3.626,4.303 c -1.092,1.589 -1.86,3.416 -2.227,5.384 l -5.609,0.479 c -0.116,1.404 -0.116,2.817 0,4.222 l 5.609,0.479 c 0.365,1.969 1.134,3.795 2.224,5.384 l -3.624,4.302 c 0.911,1.074 1.909,2.074 2.984,2.985 l 4.302,-3.625 c 1.59,1.093 3.415,1.859 5.385,2.226 l 0.479,5.61 c 1.403,0.115 2.816,0.115 4.222,0 l 0.479,-5.61 c 1.969,-0.366 3.795,-1.133 5.384,-2.226 l 4.303,3.625 c 1.076,-0.911 2.073,-1.909 2.986,-2.985 l -3.627,-4.302 c 1.092,-1.589 1.859,-3.415 2.225,-5.384 l 5.61,-0.48 z m -19.471,2.537 c -2.566,0 -4.646,-2.08 -4.646,-4.646 0,-2.565 2.08,-4.647 4.646,-4.647 2.565,0 4.648,2.082 4.648,4.647 0,2.566 -2.082,4.646 -4.648,4.646 z"
       id="path4323"
       inkscape:connector-curvature="0"
       style="fill:url(#SVGID_1_)" /><path
       stroke-miterlimit="10"
       d="m 313.681,381.203 c 0,-0.875 -0.075,-1.73 -0.187,-2.576 l 5.355,-1.935 c -0.252,-1.403 -0.614,-2.768 -1.086,-4.079 l -5.595,1 c -0.667,-1.607 -1.549,-3.095 -2.593,-4.455 l 3.669,-4.355 c -0.91,-1.074 -1.909,-2.072 -2.985,-2.983 l -4.354,3.669 c -1.359,-1.043 -2.849,-1.925 -4.455,-2.593 l 0.999,-5.595 c -1.312,-0.473 -2.675,-0.835 -4.078,-1.086 l -1.936,5.355 c -0.844,-0.108 -1.699,-0.186 -2.573,-0.186 -0.874,0 -1.73,0.077 -2.576,0.186 l -1.935,-5.355 c -1.402,0.251 -2.766,0.615 -4.077,1.086 l 0.998,5.595 c -1.604,0.668 -3.094,1.55 -4.453,2.596 l -4.355,-3.672 c -1.075,0.911 -2.074,1.909 -2.985,2.986 l 3.671,4.353 c -1.044,1.36 -1.926,2.849 -2.593,4.455 l -5.596,-1 c -0.472,1.311 -0.834,2.676 -1.086,4.079 l 5.356,1.936 c -0.111,0.844 -0.186,1.699 -0.186,2.574 0,0.876 0.075,1.729 0.186,2.575 l -5.355,1.935 c 0.252,1.402 0.614,2.767 1.085,4.079 l 5.597,-1 c 0.667,1.606 1.549,3.095 2.593,4.454 l -3.671,4.355 c 0.911,1.074 1.91,2.072 2.985,2.984 l 4.355,-3.67 c 1.359,1.043 2.848,1.926 4.453,2.593 l -0.998,5.595 c 1.312,0.473 2.675,0.835 4.077,1.086 l 1.935,-5.354 c 0.846,0.107 1.702,0.185 2.576,0.185 0.874,0 1.73,-0.075 2.573,-0.185 l 1.936,5.354 c 1.403,-0.251 2.766,-0.613 4.078,-1.086 l -0.999,-5.595 c 1.606,-0.665 3.096,-1.55 4.455,-2.593 l 4.354,3.67 c 1.076,-0.91 2.075,-1.91 2.985,-2.984 l -3.669,-4.355 c 1.044,-1.359 1.926,-2.848 2.594,-4.454 l 5.595,1 c 0.471,-1.312 0.833,-2.677 1.085,-4.079 l -5.354,-1.935 c 0.109,-0.843 0.185,-1.699 0.185,-2.575 z"
       id="path4325"
       inkscape:connector-curvature="0"
       style="fill:none;stroke:#000000;stroke-width:2;stroke-linecap:round;stroke-linejoin:round;stroke-miterlimit:10" /><circle
       stroke-miterlimit="10"
       cx="293.862"
       cy="381.203"
       r="4.6469998"
       id="circle4327"
       style="fill:none;stroke:#000000;stroke-width:2;stroke-linecap:round;stroke-linejoin:round;stroke-miterlimit:10" /><circle
       stroke-miterlimit="10"
       cx="330.22601"
       cy="379.94501"
       r="4.6469998"
       id="circle4329"
       style="fill:none;stroke:#000000;stroke-width:2;stroke-linecap:round;stroke-linejoin:round;stroke-miterlimit:10" /><path
       stroke-miterlimit="10"
       d="m 325.2,421.962 c 0.116,-1.403 0.115,-2.815 0,-4.222 l -5.611,-0.478 c -0.366,-1.968 -1.134,-3.794 -2.226,-5.384 l 3.625,-4.304 c -0.909,-1.075 -1.909,-2.072 -2.985,-2.985 l -4.302,3.627 c -1.589,-1.092 -3.415,-1.858 -5.383,-2.225 l -0.48,-5.61 c -1.403,-0.116 -2.815,-0.115 -4.222,0 l -0.477,5.61 c -1.969,0.366 -3.793,1.133 -5.384,2.225 l -4.301,-3.625 c -1.075,0.911 -2.073,1.91 -2.985,2.984 l 3.626,4.303 c -1.092,1.589 -1.86,3.416 -2.227,5.384 l -5.609,0.479 c -0.116,1.404 -0.116,2.817 0,4.222 l 5.609,0.479 c 0.365,1.969 1.134,3.795 2.224,5.384 l -3.624,4.302 c 0.911,1.074 1.909,2.074 2.984,2.985 l 4.302,-3.625 c 1.59,1.093 3.415,1.859 5.385,2.226 l 0.479,5.61 c 1.403,0.115 2.816,0.115 4.222,0 l 0.479,-5.61 c 1.969,-0.366 3.795,-1.133 5.384,-2.226 l 4.303,3.625 c 1.076,-0.911 2.073,-1.909 2.986,-2.985 l -3.627,-4.302 c 1.092,-1.589 1.859,-3.415 2.225,-5.384 l 5.61,-0.48 z"
       id="path4331"
       inkscape:connector-curvature="0"
       style="fill:none;stroke:#000000;stroke-width:2;stroke-linecap:round;stroke-linejoin:round;stroke-miterlimit:10" /><path
       stroke-miterlimit="10"
       d="m 338.846,374.425 c -0.506,-0.788 -1.109,-1.476 -1.773,-2.077 l 2.15,-5.19 c -1.196,-0.749 -2.449,-1.398 -3.751,-1.942 l -2.995,4.75 c -1.765,-0.398 -3.631,-0.321 -5.404,0.255 l -3.426,-4.459 c -1.242,0.662 -2.431,1.423 -3.553,2.277 l 2.62,4.972 c -1.268,1.371 -2.118,3.038 -2.493,4.806 l -5.567,0.735 c -0.048,1.408 0.018,2.82 0.195,4.218 l 5.617,0.22 c 0.268,0.854 0.64,1.688 1.144,2.477 0.507,0.788 1.109,1.478 1.773,2.075 l -2.148,5.193 c 1.192,0.75 2.446,1.397 3.75,1.94 l 2.992,-4.747 c 1.765,0.397 3.632,0.32 5.407,-0.256 l 3.424,4.459 c 1.245,-0.661 2.434,-1.422 3.554,-2.278 l -2.619,-4.974 c 1.266,-1.371 2.114,-3.035 2.492,-4.805 l 5.565,-0.736 c 0.052,-1.404 -0.013,-2.812 -0.194,-4.215 l -5.617,-0.219 c -0.267,-0.854 -0.637,-1.69 -1.143,-2.479 z"
       id="path4333"
       inkscape:connector-curvature="0"
       style="fill:none;stroke:#000000;stroke-width:2;stroke-linecap:round;stroke-linejoin:round;stroke-miterlimit:10" /><circle
       stroke-miterlimit="10"
       cx="305.73001"
       cy="419.853"
       r="4.6469998"
       id="circle4335"
       style="fill:none;stroke:#000000;stroke-width:2;stroke-linecap:round;stroke-linejoin:round;stroke-miterlimit:10" /><path
       stroke-miterlimit="10"
       d="m 290.452,372.749 c 1.054,-0.426 2.205,-0.66 3.411,-0.66 5.033,0 9.113,4.081 9.113,9.113 0,5.034 -4.08,9.114 -9.113,9.114 -5.033,0 -9.114,-4.08 -9.114,-9.114 0,-1.842 0.547,-3.557 1.487,-4.99"
       id="path4337"
       inkscape:connector-curvature="0"
       style="fill:none;stroke:#000000;stroke-linecap:round;stroke-linejoin:round;stroke-miterlimit:10" /><path
       stroke-miterlimit="10"
       d="m 312.488,425.968 c -1.668,1.841 -4.078,2.997 -6.757,2.997 -5.033,0 -9.114,-4.08 -9.114,-9.114 0,-5.032 4.081,-9.113 9.114,-9.113 5.033,0 9.113,4.081 9.113,9.113 0,0.627 -0.063,1.239 -0.184,1.83"
       id="path4339"
       inkscape:connector-curvature="0"
       style="fill:none;stroke:#000000;stroke-linecap:round;stroke-linejoin:round;stroke-miterlimit:10" /></g></svg>