<?xml version="1.0" encoding="UTF-8" standalone="no"?>
<!-- Generator: Adobe Illustrator 17.1.0, SVG Export Plug-In . SVG Version: 6.00 Build 0)  -->

<svg
   xmlns:dc="http://purl.org/dc/elements/1.1/"
   xmlns:cc="http://creativecommons.org/ns#"
   xmlns:rdf="http://www.w3.org/1999/02/22-rdf-syntax-ns#"
   xmlns:svg="http://www.w3.org/2000/svg"
   xmlns="http://www.w3.org/2000/svg"
   xmlns:sodipodi="http://sodipodi.sourceforge.net/DTD/sodipodi-0.dtd"
   xmlns:inkscape="http://www.inkscape.org/namespaces/inkscape"
   version="1.1"
   id="Layer_1"
   x="0px"
   y="0px"
   viewBox="0 0 100 100"
   enable-background="new 0 0 612 792"
   xml:space="preserve"
   inkscape:version="0.91 r13725"
   sodipodi:docname="icon_applications.svg"
   width="100"
   height="100"><metadata
     id="metadata4552"><rdf:RDF><cc:Work
         rdf:about=""><dc:format>image/svg+xml</dc:format><dc:type
           rdf:resource="http://purl.org/dc/dcmitype/StillImage" /><dc:title></dc:title></cc:Work></rdf:RDF></metadata><defs
     id="defs4550" /><sodipodi:namedview
     pagecolor="#ffffff"
     bordercolor="#666666"
     borderopacity="1"
     objecttolerance="10"
     gridtolerance="10"
     guidetolerance="10"
     inkscape:pageopacity="0"
     inkscape:pageshadow="2"
     inkscape:window-width="2556"
     inkscape:window-height="1417"
     id="namedview4548"
     showgrid="false"
     fit-margin-top="0"
     fit-margin-left="0"
     fit-margin-right="0"
     fit-margin-bottom="0"
     inkscape:zoom="1.5113636"
     inkscape:cx="-164.96644"
     inkscape:cy="25.054993"
     inkscape:window-x="0"
     inkscape:window-y="1099"
     inkscape:window-maximized="0"
     inkscape:current-layer="Layer_1" /><g
     id="g4501"
     transform="translate(-255.9995,-346.6575)"><g
       id="g4503"><path
         d="m 287.73,420.33 -8.891,0 c -1.228,0 -2.352,-0.193 -3.34,-0.573 -1.002,-0.386 -1.874,-0.944 -2.592,-1.662 -0.722,-0.721 -1.275,-1.608 -1.646,-2.637 -0.359,-0.997 -0.542,-2.121 -0.542,-3.343 l 0,-7.916 c 0,-0.89 -0.109,-1.639 -0.325,-2.226 -0.2,-0.542 -0.482,-0.98 -0.841,-1.303 -0.37,-0.334 -0.812,-0.569 -1.351,-0.721 -0.599,-0.17 -1.281,-0.263 -2.03,-0.277 l -0.98,-0.02 0,-6.649 0.962,-0.037 c 0.767,-0.029 1.46,-0.133 2.06,-0.31 0.541,-0.159 0.98,-0.398 1.345,-0.731 0.354,-0.324 0.634,-0.764 0.835,-1.309 0.215,-0.586 0.325,-1.335 0.325,-2.225 l 0,-7.915 c 0,-2.618 0.739,-4.666 2.197,-6.086 1.45,-1.413 3.442,-2.13 5.922,-2.13 l 8.891,0 0,6.585 -5.537,0 c -1.148,0 -1.929,0.284 -2.385,0.87 -0.508,0.653 -0.766,1.721 -0.766,3.174 l 0,7.264 c 0,0.941 -0.157,1.822 -0.466,2.619 -0.305,0.788 -0.727,1.493 -1.254,2.094 -0.488,0.558 -1.064,1.036 -1.713,1.422 0.661,0.39 1.247,0.879 1.743,1.453 0.525,0.61 0.941,1.31 1.237,2.08 0.301,0.78 0.453,1.652 0.453,2.592 l 0,7.264 c 0,1.468 0.257,2.538 0.764,3.183 0.456,0.579 1.237,0.861 2.387,0.861 l 5.537,0 0,6.609 z"
         id="path4505"
         inkscape:connector-curvature="0"
         style="fill:#231f20" /><path
         d="m 287.73,420.33 -8.891,0 c -1.228,0 -2.352,-0.193 -3.34,-0.573 -1.002,-0.386 -1.874,-0.944 -2.592,-1.662 -0.722,-0.721 -1.275,-1.608 -1.646,-2.637 -0.359,-0.997 -0.542,-2.121 -0.542,-3.343 l 0,-7.916 c 0,-0.89 -0.109,-1.639 -0.325,-2.226 -0.2,-0.542 -0.482,-0.98 -0.841,-1.303 -0.37,-0.334 -0.812,-0.569 -1.351,-0.721 -0.599,-0.17 -1.281,-0.263 -2.03,-0.277 l -0.98,-0.02 0,-6.649 0.962,-0.037 c 0.767,-0.029 1.46,-0.133 2.06,-0.31 0.541,-0.159 0.98,-0.398 1.345,-0.731 0.354,-0.324 0.634,-0.764 0.835,-1.309 0.215,-0.586 0.325,-1.335 0.325,-2.225 l 0,-7.915 c 0,-2.618 0.739,-4.666 2.197,-6.086 1.45,-1.413 3.442,-2.13 5.922,-2.13 l 8.891,0 0,6.585 -5.537,0 c -1.148,0 -1.929,0.284 -2.385,0.87 -0.508,0.653 -0.766,1.721 -0.766,3.174 l 0,7.264 c 0,0.941 -0.157,1.822 -0.466,2.619 -0.305,0.788 -0.727,1.493 -1.254,2.094 -0.488,0.558 -1.064,1.036 -1.713,1.422 0.661,0.39 1.247,0.879 1.743,1.453 0.525,0.61 0.941,1.31 1.237,2.08 0.301,0.78 0.453,1.652 0.453,2.592 l 0,7.264 c 0,1.468 0.257,2.538 0.764,3.183 0.456,0.579 1.237,0.861 2.387,0.861 l 5.537,0 0,6.609 z"
         id="path4507"
         inkscape:connector-curvature="0"
         style="fill:#231f20" /><linearGradient
         id="SVGID_1_"
         gradientUnits="userSpaceOnUse"
         x1="267.34561"
         y1="382.79059"
         x2="294.3078"
         y2="409.75281"><stop
           offset="0"
           style="stop-color:#E6E6E6"
           id="stop4510" /><stop
           offset="0.5"
           style="stop-color:#F7F7F7"
           id="stop4512" /><stop
           offset="1"
           style="stop-color:#C4C4C4"
           id="stop4514" /></linearGradient><path
         d="m 267.194,397.733 c 0.55,0.058 1.069,0.155 1.553,0.292 0.828,0.232 1.551,0.623 2.147,1.159 0.603,0.543 1.066,1.249 1.379,2.099 0.297,0.809 0.448,1.79 0.448,2.916 l 0,7.916 c 0,0.989 0.143,1.886 0.423,2.665 0.27,0.749 0.666,1.389 1.178,1.9 0.518,0.518 1.156,0.925 1.895,1.209 0.759,0.292 1.641,0.441 2.622,0.441 l 6.891,0 0,-2.608 -3.537,0 c -1.779,0 -3.111,-0.547 -3.959,-1.625 -0.802,-1.02 -1.191,-2.465 -1.191,-4.419 l 0,-7.264 c 0,-0.692 -0.108,-1.323 -0.319,-1.873 -0.214,-0.556 -0.513,-1.059 -0.887,-1.493 -0.372,-0.433 -0.819,-0.798 -1.327,-1.085 -0.525,-0.297 -1.094,-0.519 -1.689,-0.656 l -0.774,-0.18 0,-1.603 0.79,-0.266 c 0.574,-0.124 1.129,-0.335 1.648,-0.629 0.51,-0.289 0.959,-0.652 1.333,-1.08 0.372,-0.425 0.673,-0.93 0.893,-1.501 0.22,-0.565 0.331,-1.203 0.331,-1.895 l 0,-7.264 c 0,-1.936 0.389,-3.376 1.188,-4.403 0.848,-1.089 2.182,-1.641 3.962,-1.641 l 3.537,0 0,-2.585 -6.891,0 c -1.968,0 -3.448,0.511 -4.526,1.562 -1.072,1.044 -1.593,2.566 -1.593,4.653 l 0,7.915 c 0,1.127 -0.15,2.108 -0.448,2.915 -0.312,0.848 -0.77,1.553 -1.362,2.094 -0.585,0.537 -1.303,0.932 -2.13,1.175 -0.489,0.144 -1.021,0.25 -1.587,0.316 l 0,2.843 z"
         id="path4516"
         inkscape:connector-curvature="0"
         style="fill:url(#SVGID_1_)" /></g><g
       id="g4518"><rect
         x="301.827"
         y="372.26199"
         width="8.323"
         height="48.792999"
         id="rect4520"
         style="fill:#231f20" /><rect
         x="301.827"
         y="372.26199"
         width="8.323"
         height="48.792999"
         id="rect4522"
         style="fill:#231f20" /><linearGradient
         id="SVGID_2_"
         gradientUnits="userSpaceOnUse"
         x1="293.70911"
         y1="384.3793"
         x2="318.267"
         y2="408.9371"><stop
           offset="0"
           style="stop-color:#E6E6E6"
           id="stop4525" /><stop
           offset="0.5"
           style="stop-color:#F7F7F7"
           id="stop4527" /><stop
           offset="1"
           style="stop-color:#C4C4C4"
           id="stop4529" /></linearGradient><rect
         x="303.827"
         y="374.26199"
         width="4.323"
         height="44.792999"
         id="rect4531"
         style="fill:url(#SVGID_2_)" /></g><g
       id="g4533"><path
         d="m 333.162,420.33 -8.892,0 0,-6.608 5.537,0 c 1.15,0 1.931,-0.282 2.387,-0.861 0.507,-0.644 0.764,-1.715 0.764,-3.183 l 0,-7.264 c 0,-0.94 0.152,-1.812 0.454,-2.593 0.296,-0.77 0.713,-1.471 1.236,-2.079 0.496,-0.575 1.082,-1.063 1.742,-1.453 -0.648,-0.386 -1.225,-0.864 -1.713,-1.422 -0.524,-0.598 -0.946,-1.303 -1.254,-2.094 -0.309,-0.796 -0.466,-1.677 -0.466,-2.618 l 0,-7.264 c 0,-1.454 -0.258,-2.522 -0.767,-3.174 -0.456,-0.585 -1.235,-0.87 -2.384,-0.87 l -5.537,0 0,-6.585 8.892,0 c 2.479,0 4.472,0.717 5.923,2.13 1.457,1.42 2.196,3.468 2.196,6.086 l 0,7.915 c 0,0.893 0.109,1.641 0.324,2.225 0.2,0.546 0.48,0.986 0.834,1.309 0.365,0.334 0.805,0.573 1.345,0.731 0.601,0.177 1.294,0.281 2.062,0.31 l 0.962,0.037 0,6.649 -0.98,0.02 c -0.749,0.015 -1.432,0.107 -2.028,0.276 -0.54,0.152 -0.982,0.388 -1.353,0.722 -0.364,0.327 -0.639,0.753 -0.841,1.303 -0.215,0.585 -0.324,1.333 -0.324,2.226 l 0,7.916 c 0,1.221 -0.183,2.346 -0.543,3.344 -0.369,1.026 -0.923,1.914 -1.645,2.636 -0.719,0.718 -1.591,1.276 -2.592,1.662 -0.988,0.378 -2.111,0.571 -3.339,0.571 z"
         id="path4535"
         inkscape:connector-curvature="0"
         style="fill:#4e376b" /><path
         d="m 333.162,420.33 -8.892,0 0,-6.608 5.537,0 c 1.15,0 1.931,-0.282 2.387,-0.861 0.507,-0.644 0.764,-1.715 0.764,-3.183 l 0,-7.264 c 0,-0.94 0.152,-1.812 0.454,-2.593 0.296,-0.77 0.713,-1.471 1.236,-2.079 0.496,-0.575 1.082,-1.063 1.742,-1.453 -0.648,-0.386 -1.225,-0.864 -1.713,-1.422 -0.524,-0.598 -0.946,-1.303 -1.254,-2.094 -0.309,-0.796 -0.466,-1.677 -0.466,-2.618 l 0,-7.264 c 0,-1.454 -0.258,-2.522 -0.767,-3.174 -0.456,-0.585 -1.235,-0.87 -2.384,-0.87 l -5.537,0 0,-6.585 8.892,0 c 2.479,0 4.472,0.717 5.923,2.13 1.457,1.42 2.196,3.468 2.196,6.086 l 0,7.915 c 0,0.893 0.109,1.641 0.324,2.225 0.2,0.546 0.48,0.986 0.834,1.309 0.365,0.334 0.805,0.573 1.345,0.731 0.601,0.177 1.294,0.281 2.062,0.31 l 0.962,0.037 0,6.649 -0.98,0.02 c -0.749,0.015 -1.432,0.107 -2.028,0.276 -0.54,0.152 -0.982,0.388 -1.353,0.722 -0.364,0.327 -0.639,0.753 -0.841,1.303 -0.215,0.585 -0.324,1.333 -0.324,2.226 l 0,7.916 c 0,1.221 -0.183,2.346 -0.543,3.344 -0.369,1.026 -0.923,1.914 -1.645,2.636 -0.719,0.718 -1.591,1.276 -2.592,1.662 -0.988,0.378 -2.111,0.571 -3.339,0.571 z"
         id="path4537"
         inkscape:connector-curvature="0" /><linearGradient
         id="SVGID_3_"
         gradientUnits="userSpaceOnUse"
         x1="317.71741"
         y1="382.81479"
         x2="344.63101"
         y2="409.72839"><stop
           offset="0"
           style="stop-color:#E6E6E6"
           id="stop4540" /><stop
           offset="0.5"
           style="stop-color:#F7F7F7"
           id="stop4542" /><stop
           offset="1"
           style="stop-color:#C4C4C4"
           id="stop4544" /></linearGradient><path
         d="m 326.27,418.33 6.892,0 c 0.98,0 1.862,-0.148 2.621,-0.441 0.739,-0.284 1.378,-0.691 1.896,-1.21 0.512,-0.511 0.908,-1.15 1.177,-1.898 0.282,-0.781 0.425,-1.678 0.425,-2.666 l 0,-7.916 c 0,-1.129 0.15,-2.109 0.447,-2.916 0.312,-0.851 0.777,-1.557 1.38,-2.1 0.595,-0.535 1.317,-0.926 2.147,-1.159 0.481,-0.136 1.001,-0.233 1.552,-0.291 l 0,-2.84 c -0.566,-0.066 -1.098,-0.172 -1.588,-0.317 -0.826,-0.242 -1.544,-0.638 -2.131,-1.175 -0.591,-0.541 -1.049,-1.246 -1.36,-2.094 -0.297,-0.805 -0.447,-1.786 -0.447,-2.915 l 0,-7.915 c 0,-2.058 -0.536,-3.623 -1.593,-4.653 -1.079,-1.051 -2.56,-1.562 -4.526,-1.562 l -6.892,0 0,2.585 3.537,0 c 1.78,0 3.113,0.552 3.962,1.64 0.8,1.026 1.189,2.467 1.189,4.404 l 0,7.264 c 0,0.692 0.111,1.33 0.33,1.894 0.223,0.573 0.523,1.078 0.895,1.501 0.375,0.429 0.822,0.792 1.332,1.08 0.52,0.294 1.074,0.506 1.648,0.629 l 0.79,0.169 0,1.603 -0.773,0.276 c -0.595,0.138 -1.163,0.359 -1.688,0.656 -0.509,0.287 -0.955,0.651 -1.328,1.085 -0.374,0.434 -0.672,0.935 -0.886,1.493 -0.213,0.55 -0.32,1.18 -0.32,1.873 l 0,7.264 c 0,1.954 -0.39,3.4 -1.191,4.419 -0.849,1.078 -2.181,1.625 -3.959,1.625 l -3.537,0 0,2.608 z"
         id="path4546"
         inkscape:connector-curvature="0"
         style="fill:url(#SVGID_3_)" /></g></g></svg>