<?xml version="1.0" encoding="UTF-8" standalone="no"?>
<!-- Generator: Adobe Illustrator 18.0.0, SVG Export Plug-In . SVG Version: 6.00 Build 0)  -->

<svg
   xmlns:dc="http://purl.org/dc/elements/1.1/"
   xmlns:cc="http://creativecommons.org/ns#"
   xmlns:rdf="http://www.w3.org/1999/02/22-rdf-syntax-ns#"
   xmlns:svg="http://www.w3.org/2000/svg"
   xmlns="http://www.w3.org/2000/svg"
   xmlns:sodipodi="http://sodipodi.sourceforge.net/DTD/sodipodi-0.dtd"
   xmlns:inkscape="http://www.inkscape.org/namespaces/inkscape"
   version="1.1"
   id="Layer_1"
   x="0px"
   y="0px"
   width="100"
   height="100"
   viewBox="0 0 100 100"
   enable-background="new 0 0 144 144"
   xml:space="preserve"
   inkscape:version="0.91 r13725"
   sodipodi:docname="icon_community.svg"><metadata
     id="metadata4212"><rdf:RDF><cc:Work
         rdf:about=""><dc:format>image/svg+xml</dc:format><dc:type
           rdf:resource="http://purl.org/dc/dcmitype/StillImage" /><dc:title></dc:title></cc:Work></rdf:RDF></metadata><defs
     id="defs4210" /><sodipodi:namedview
     pagecolor="#ffffff"
     bordercolor="#666666"
     borderopacity="1"
     objecttolerance="10"
     gridtolerance="10"
     guidetolerance="10"
     inkscape:pageopacity="0"
     inkscape:pageshadow="2"
     inkscape:window-width="2556"
     inkscape:window-height="1417"
     id="namedview4208"
     showgrid="false"
     fit-margin-top="0"
     fit-margin-left="0"
     fit-margin-right="0"
     fit-margin-bottom="0"
     inkscape:zoom="8.3125"
     inkscape:cx="40.043"
     inkscape:cy="43.48"
     inkscape:window-x="0"
     inkscape:window-y="1099"
     inkscape:window-maximized="0"
     inkscape:current-layer="Layer_1" /><g
     id="g4195"
     transform="translate(-16.655501,-23.6355)"><linearGradient
       id="SVGID_1_"
       gradientUnits="userSpaceOnUse"
       x1="49.7001"
       y1="43.715401"
       x2="101.8716"
       y2="95.886902"><stop
         offset="0"
         style="stop-color:#E6E6E6"
         id="stop4198" /><stop
         offset="0.5"
         style="stop-color:#F7F7F7"
         id="stop4200" /><stop
         offset="1"
         style="stop-color:#C4C4C4"
         id="stop4202" /></linearGradient><path
       d="m 90.594,42.522 c 2.96,0 5.367,-2.407 5.367,-5.365 0,-2.959 -2.407,-5.366 -5.367,-5.366 -2.959,0 -5.366,2.407 -5.366,5.366 0,2.959 2.407,5.365 5.366,5.365 z m 10.76,13.46 -0.344,-4.339 c -0.264,-2.681 -0.812,-8.258 -8.097,-8.258 l -4.636,0 c -7.425,0 -7.882,5.595 -8.101,8.285 l -0.344,4.371 c 0,0.407 0.044,0.777 0.108,1.129 L 51.692,67.595 C 50.606,65.884 48.653,64.51 45.039,64.51 l -4.636,0 c -7.425,0 -7.882,5.595 -8.102,8.285 l -0.344,4.371 c 0,2.778 1.624,4.203 3.293,5.428 l 0.068,0.049 -0.083,1.284 c -0.016,0.236 0.081,0.465 0.26,0.618 l 0.263,0.225 c 0.852,0.724 2.751,1.586 6.96,1.586 4.078,0 5.985,-0.818 6.866,-1.505 l 0.288,-0.225 c 0.194,-0.151 0.302,-0.389 0.288,-0.634 l -0.042,-0.726 18.108,12.861 c -1.478,1.84 -1.677,4.276 -1.801,5.792 l -0.344,4.371 c 0,2.778 1.624,4.203 3.293,5.428 l 0.068,0.049 -0.083,1.284 c -0.016,0.236 0.081,0.465 0.26,0.618 l 0.263,0.225 c 0.852,0.724 2.751,1.586 6.96,1.586 4.078,0 5.985,-0.818 6.866,-1.505 l 0.288,-0.225 c 0.194,-0.151 0.302,-0.389 0.288,-0.634 l -0.076,-1.323 0.074,-0.055 c 1.751,-1.285 3.322,-2.668 3.32,-5.507 l -0.344,-4.339 c -0.185,-1.878 -0.519,-5.173 -3.202,-6.98 l 7.571,-29.707 c 3.36,-0.128 5.03,-0.854 5.831,-1.479 l 0.288,-0.225 c 0.194,-0.151 0.302,-0.389 0.288,-0.634 l -0.076,-1.323 0.074,-0.055 c 1.753,-1.284 3.324,-2.667 3.322,-5.507 z M 82.212,94.058 c -0.86,-0.262 -1.855,-0.423 -3.048,-0.423 l -4.636,0 c -2.086,0 -3.608,0.451 -4.743,1.146 L 51.336,81.679 c 1.219,-1.077 2.145,-2.396 2.143,-4.572 L 53.135,72.768 C 53.047,71.87 52.92,70.647 52.525,69.417 L 80.666,59.033 c 0.629,1.002 1.532,1.755 2.459,2.436 l 0.068,0.049 -0.083,1.284 c -0.016,0.236 0.081,0.465 0.26,0.618 l 0.263,0.225 c 0.777,0.66 2.449,1.429 5.931,1.559 L 82.212,94.058 Z M 42.719,63.647 c 2.96,0 5.367,-2.407 5.367,-5.365 0,-2.959 -2.407,-5.366 -5.367,-5.366 -2.959,0 -5.366,2.407 -5.366,5.366 0,2.959 2.407,5.365 5.366,5.365 z m 34.125,18.394 c -2.959,0 -5.366,2.407 -5.366,5.366 0,2.958 2.407,5.365 5.366,5.365 2.96,0 5.367,-2.407 5.367,-5.365 0,-2.959 -2.407,-5.366 -5.367,-5.366 z"
       id="path4204"
       inkscape:connector-curvature="0"
       style="fill:url(#SVGID_1_)" /><path
       d="m 90.594,42.522 c 2.96,0 5.367,-2.407 5.367,-5.365 0,-2.959 -2.407,-5.366 -5.367,-5.366 -2.959,0 -5.366,2.407 -5.366,5.366 0,2.959 2.407,5.365 5.366,5.365 z m 0,-9.231 c 2.133,0 3.867,1.734 3.867,3.866 0,2.131 -1.734,3.865 -3.867,3.865 -2.132,0 -3.866,-1.734 -3.866,-3.865 0,-2.132 1.734,-3.866 3.866,-3.866 z m 10.76,22.691 -0.344,-4.339 c -0.264,-2.681 -0.812,-8.258 -8.097,-8.258 l -4.636,0 c -7.425,0 -7.882,5.595 -8.101,8.285 l -0.344,4.371 c 0,0.407 0.044,0.777 0.108,1.129 L 51.692,67.595 C 50.606,65.884 48.653,64.51 45.039,64.51 l -4.636,0 c -7.425,0 -7.882,5.595 -8.102,8.285 l -0.344,4.371 c 0,2.778 1.624,4.203 3.293,5.428 l 0.068,0.049 -0.083,1.284 c -0.016,0.236 0.081,0.465 0.26,0.618 l 0.263,0.225 c 0.852,0.724 2.751,1.586 6.96,1.586 4.078,0 5.985,-0.818 6.866,-1.505 l 0.288,-0.225 c 0.194,-0.151 0.302,-0.389 0.288,-0.634 l -0.042,-0.726 18.108,12.861 c -1.478,1.84 -1.677,4.276 -1.801,5.792 l -0.344,4.371 c 0,2.778 1.624,4.203 3.293,5.428 l 0.068,0.049 -0.083,1.284 c -0.016,0.236 0.081,0.465 0.26,0.618 l 0.263,0.225 c 0.852,0.724 2.751,1.586 6.96,1.586 4.078,0 5.985,-0.818 6.866,-1.505 l 0.288,-0.225 c 0.194,-0.151 0.302,-0.389 0.288,-0.634 l -0.076,-1.323 0.074,-0.055 c 1.751,-1.285 3.322,-2.668 3.32,-5.507 l -0.344,-4.339 c -0.185,-1.878 -0.519,-5.173 -3.202,-6.98 l 7.571,-29.707 c 3.36,-0.128 5.03,-0.854 5.831,-1.479 l 0.288,-0.225 c 0.194,-0.151 0.302,-0.389 0.288,-0.634 l -0.076,-1.323 0.074,-0.055 c 1.753,-1.284 3.324,-2.667 3.322,-5.507 z m -11.253,-11.097 1.439,0 -0.63,1.589 1.097,13.865 -1.13,0.914 -1.133,-0.916 0.978,-13.864 -0.621,-1.588 z m -49.698,21.125 4.636,0 c 0.147,0 0.276,0.014 0.416,0.019 -0.577,0.687 -1.404,1.493 -2.468,1.959 -1.096,-0.426 -2.042,-1.258 -2.724,-1.972 0.049,0 0.091,-0.006 0.14,-0.006 z m 9.566,14.866 -0.58,-8.699 c -0.027,-0.413 -0.392,-0.721 -0.798,-0.699 -0.413,0.028 -0.727,0.385 -0.698,0.798 l 0.671,10.076 0.077,1.334 c -0.483,0.366 -1.996,1.171 -5.922,1.171 -4.023,0 -5.5,-0.829 -5.962,-1.207 l 0.086,-1.32 0,-0.002 0.671,-10.052 c 0.028,-0.413 -0.285,-0.771 -0.698,-0.798 -0.413,-0.022 -0.771,0.286 -0.798,0.699 l -0.579,8.673 c -1.134,-0.917 -1.98,-1.938 -1.982,-3.652 l 0.341,-4.282 c 0.205,-2.514 0.521,-6.193 5.188,-6.808 0.75,0.888 2.149,2.304 3.852,2.89 l 0.174,0.061 0.172,-0.068 c 1.641,-0.646 2.831,-1.975 3.476,-2.848 4.373,0.704 4.742,4.3 4.983,6.759 l 0.34,4.266 c -0.002,1.767 -0.805,2.744 -2.014,3.708 z m 35.798,21.15 0.34,4.266 c 0,1.768 -0.804,2.746 -2.013,3.71 l -0.58,-8.699 c -0.027,-0.413 -0.392,-0.721 -0.798,-0.699 -0.413,0.028 -0.726,0.385 -0.698,0.798 l 0.671,10.076 0.077,1.334 c -0.483,0.366 -1.996,1.171 -5.922,1.171 -4.024,0 -5.5,-0.829 -5.962,-1.207 l 0.086,-1.32 0,-0.002 0.671,-10.052 c 0.028,-0.413 -0.285,-0.771 -0.698,-0.798 -0.413,-0.022 -0.771,0.286 -0.798,0.699 l -0.579,8.673 c -1.134,-0.917 -1.98,-1.938 -1.982,-3.652 l 0.341,-4.282 c 0.225,-2.75 0.564,-6.906 6.606,-6.906 l 4.636,0 c 5.924,-10e-4 6.333,4.154 6.602,6.89 z m -3.555,-7.968 c -0.86,-0.262 -1.855,-0.423 -3.048,-0.423 l -4.636,0 c -2.086,0 -3.608,0.451 -4.743,1.146 L 51.336,81.679 c 1.219,-1.077 2.145,-2.396 2.143,-4.572 L 53.135,72.768 C 53.047,71.87 52.92,70.647 52.525,69.417 L 80.666,59.033 c 0.629,1.002 1.532,1.755 2.459,2.436 l 0.068,0.049 -0.083,1.284 c -0.016,0.236 0.081,0.465 0.26,0.618 l 0.263,0.225 c 0.777,0.66 2.449,1.429 5.931,1.559 l -7.352,28.854 z m 15.632,-34.307 -0.58,-8.699 c -0.027,-0.413 -0.392,-0.721 -0.798,-0.699 -0.413,0.028 -0.726,0.385 -0.698,0.798 l 0.671,10.076 0.077,1.333 c -0.483,0.366 -1.996,1.171 -5.922,1.171 -4.024,0 -5.5,-0.829 -5.962,-1.207 l 0.086,-1.32 0,-0.002 0.671,-10.052 c 0.028,-0.413 -0.285,-0.77 -0.698,-0.798 -0.413,-0.022 -0.771,0.286 -0.798,0.699 l -0.579,8.673 c -1.134,-0.917 -1.98,-1.938 -1.982,-3.652 l 0.341,-4.282 c 0.225,-2.75 0.564,-6.906 6.606,-6.906 l 0.749,0 0.682,1.743 -0.999,14.16 2.168,1.752 2.169,-1.754 -1.12,-14.159 0.69,-1.742 0.297,0 c 5.925,0 6.334,4.155 6.603,6.891 l 0.34,4.266 c -0.002,1.769 -0.805,2.746 -2.014,3.71 z m -55.125,3.896 c 2.96,0 5.367,-2.407 5.367,-5.365 0,-2.959 -2.407,-5.366 -5.367,-5.366 -2.959,0 -5.366,2.407 -5.366,5.366 0,2.959 2.407,5.365 5.366,5.365 z m 0,-9.231 c 2.133,0 3.867,1.734 3.867,3.866 0,2.131 -1.734,3.865 -3.867,3.865 -2.132,0 -3.866,-1.734 -3.866,-3.865 0,-2.132 1.734,-3.866 3.866,-3.866 z m 34.125,27.625 c -2.959,0 -5.366,2.407 -5.366,5.366 0,2.958 2.407,5.365 5.366,5.365 2.96,0 5.367,-2.407 5.367,-5.365 0,-2.959 -2.407,-5.366 -5.367,-5.366 z m 0,9.231 c -2.132,0 -3.866,-1.734 -3.866,-3.865 0,-2.132 1.734,-3.866 3.866,-3.866 2.133,0 3.867,1.734 3.867,3.866 0,2.131 -1.734,3.865 -3.867,3.865 z m -3.19,5.013 c 0,-0.424 -0.344,-0.766 -0.769,-0.766 -0.422,0 -0.768,0.342 -0.768,0.766 0,0.424 0.346,0.766 0.768,0.766 0.426,0 0.769,-0.342 0.769,-0.766 z m 0.389,0.815 c -0.425,0 -0.769,0.344 -0.769,0.766 0,0.424 0.344,0.768 0.769,0.768 0.423,0 0.768,-0.344 0.768,-0.768 0,-0.423 -0.345,-0.766 -0.768,-0.766 z m 1.808,0.732 c -0.424,0 -0.768,0.344 -0.768,0.768 0,0.424 0.344,0.766 0.768,0.766 0.424,0 0.768,-0.342 0.768,-0.766 -0.001,-0.424 -0.345,-0.768 -0.768,-0.768 z m 4.926,-2.312 c -0.425,0 -0.769,0.342 -0.769,0.766 0,0.424 0.344,0.766 0.769,0.766 0.424,0 0.768,-0.342 0.768,-0.766 0,-0.425 -0.344,-0.766 -0.768,-0.766 z M 79.62,97.1 c -0.423,0 -0.768,0.344 -0.768,0.766 0,0.424 0.345,0.768 0.768,0.768 0.425,0 0.769,-0.344 0.769,-0.768 0,-0.423 -0.344,-0.766 -0.769,-0.766 z m -1.808,0.732 c -0.424,0 -0.768,0.344 -0.768,0.768 0,0.424 0.344,0.766 0.768,0.766 0.423,0 0.768,-0.342 0.768,-0.766 0,-0.424 -0.345,-0.768 -0.768,-0.768 z"
       id="path4206"
       inkscape:connector-curvature="0"
       style="fill:#231f20" /></g></svg>